<?xml version="1.0" encoding="utf-8"?>
<!-- Generator: Adobe Illustrator 25.2.0, SVG Export Plug-In . SVG Version: 6.00 Build 0)  -->
<svg version="1.1" id="Layer_1" xmlns="http://www.w3.org/2000/svg" xmlns:xlink="http://www.w3.org/1999/xlink" x="0px" y="0px"
	 viewBox="0 0 756 223" style="enable-background:new 0 0 756 223;" xml:space="preserve">
<style type="text/css">
	.st0{fill:#F7F7F7;}
</style>
<g>
	<g>
		<path class="st0" d="M326.6,84.8c0-17.3,0-34.7,0-52c0-2.3,0.5-3,2.9-3c28,0.1,56.1,0.1,84.1,0c2.5,0,2.9,0.9,2.9,3.1
			c-0.1,7.3-0.1,14.7,0,22.1c0.1,2.5-0.6,3.2-3.2,3.2c-15.5-0.1-31.1,0-46.6-0.1c-2.8,0-3.8,0.8-3.5,3.5c0.2,2.2,0.2,4.4,0,6.6
			c-0.2,2.3,0.8,2.8,2.9,2.8c13.5-0.1,27.1,0,40.6-0.1c2.7,0,3.3,0.8,3.2,3.3c-0.2,6.7-0.2,13.4,0,20.2c0.1,2.7-0.6,3.6-3.4,3.5
			c-13.3-0.2-26.7,0-40-0.1c-2.7,0-3.5,0.8-3.3,3.4c0.2,2.6,0.2,5.3,0,7.9c-0.2,2.6,0.8,3.2,3.2,3.2c16.2-0.1,32.4,0,48.5-0.1
			c2.7,0,3.6,0.5,3.5,3.4c-0.2,7.3-0.1,14.7,0,22.1c0,1.9-0.2,2.8-2.5,2.8c-29-0.1-58-0.1-87,0c-2.3,0-2.5-1-2.5-2.8
			C326.6,119.9,326.6,102.3,326.6,84.8z"/>
		<path class="st0" d="M488,84.9c0-17.3,0-34.7-0.1-52c0-2.5,0.7-3.1,3.1-3.1c27.9,0.1,55.9,0.1,83.8,0c2.3,0,3.1,0.5,3,3
			c-0.2,7.5-0.2,14.9,0,22.4c0,2.4-0.7,3-3,3c-15.4-0.1-30.9,0-46.3-0.1c-2.9,0-4.3,0.5-3.9,3.7c0.4,2.9-1.2,6.7,0.6,8.5
			c1.8,1.9,5.6,0.6,8.5,0.6c11.5,0.1,23.1,0.1,34.7,0c2.3,0,3.1,0.4,3,2.9c-0.2,7-0.2,14.1,0,21.1c0,2.3-0.6,3-3,3
			c-13-0.1-26-0.1-39.1-0.1c-5.3,0-4.6-0.5-4.6,4.8c0,1.9,0.2,3.8,0,5.7c-0.5,3.4,1,3.9,4.1,3.9c15.9-0.1,31.7,0,47.6-0.1
			c2.8,0,3.8,0.7,3.7,3.6c-0.2,7.1-0.2,14.3,0,21.4c0,2.3-0.4,3.2-3,3.2c-28.7-0.1-57.3-0.1-86,0c-2.4,0-2.9-0.7-2.9-3
			C488,119.8,488,102.4,488,84.9z"/>
		<path class="st0" d="M648.7,84.9c0-17.3,0-34.7-0.1-52c0-2.5,0.6-3.1,3.1-3.1c27.9,0.1,55.9,0.1,83.8,0c2.3,0,3.1,0.5,3,2.9
			c-0.2,7.5-0.2,14.9,0,22.4c0,2.4-0.7,3-3,3c-15.5-0.1-31.1,0-46.6-0.1c-3,0-3.9,0.9-3.6,3.7c0.3,2.9-1.2,6.7,0.5,8.5
			c1.8,1.9,5.6,0.6,8.5,0.6c11.5,0.1,23.1,0.1,34.7,0c2.2,0,3.1,0.4,3,2.9c-0.2,7-0.2,14.1,0,21.1c0,2.3-0.6,3.1-3,3
			c-13.3-0.1-26.7,0.1-40-0.1c-3.1,0-4,0.9-3.8,3.9c0.2,2.4,0.2,4.8,0,7.2c-0.2,2.7,0.9,3.3,3.4,3.3c16.1-0.1,32.1,0,48.2-0.1
			c2.8,0,3.8,0.6,3.7,3.6c-0.2,7.2-0.2,14.5,0,21.7c0.1,2.5-0.8,2.9-3,2.9c-28.7-0.1-57.3-0.1-86,0c-2.4,0-3-0.7-2.9-3
			C648.8,119.8,648.7,102.4,648.7,84.9z"/>
		<path class="st0" d="M253.5,85.1c0,17.2-0.1,34.4,0.1,51.6c0,3-0.9,3.6-3.7,3.5c-10.3-0.2-20.6-0.1-30.9,0c-2.2,0-2.8-0.6-2.8-2.8
			c0.1-35,0.1-69.9,0-104.9c0-2.3,0.8-2.8,2.9-2.7c10.5,0.1,21,0.1,31.5,0c2.4,0,3,0.6,3,3C253.5,50.2,253.5,67.6,253.5,85.1z"/>
		<path class="st0" d="M5.1,113c-0.5-4.2,1.6-7.4,3.8-10.5c8.5-11.9,18.3-22.7,28.7-33c12.9-12.8,26.3-25.1,41-35.8
			c6.3-4.6,12.2-4.3,18.4-0.7c5.4,3.1,10.1,7.2,14.8,11.2c18.6,15.7,35.5,33,50.2,52.4c2.1,2.8,4.2,5.8,6.2,8.7
			c3.3,4.7,3.3,9.4,0.5,14.4c-3.9,7-9.1,13.1-14.3,19.1c-15.7,18.1-32.8,34.9-51.9,49.3c-2.4,1.8-4.9,3.6-7.6,5.1
			c-4.6,2.7-9,2.5-13.6-0.4c-11.2-6.8-20.7-15.7-30.3-24.4c-16-14.5-31-29.9-43.3-47.7C6,118.4,4.7,115.9,5.1,113z M165.2,113.3
			c0.1-5-3-8.3-5.6-11.8c-12.1-16.6-26.3-31.3-41.6-45c-7.3-6.5-14.6-12.9-22.8-18.3c-4.6-3-9.1-3.1-12.9-0.4
			c-26.2,18.6-48.9,40.9-68.4,66.4c-4.4,5.8-4.5,10.2-0.3,16.1c2.5,3.5,5.1,6.9,7.9,10.2C38.6,151,57.7,169.4,79,185.4
			c7.4,5.6,11.3,5.4,18.9-0.1c11.9-8.7,22.9-18.4,33.3-28.8c11.6-11.6,22.8-23.5,32.1-37.1C164.5,117.5,165.4,115.5,165.2,113.3z"/>
		<path class="st0" d="M478.3,154.1c-86.1,0-172.1,0-258.1-0.1c-1.3,0-3.6,0.9-3.7-0.8c-0.1-1.9,2.3-1,3.5-1
			c172.3-0.1,344.6-0.1,516.9,0c1.2,0,3.6-0.9,3.5,1c0,1.7-2.4,0.8-3.7,0.8C650.6,154.1,564.4,154.1,478.3,154.1z"/>
		<path class="st0" d="M380.5,173.9c-3.6,5.1-7.1,9.8-10.3,14.7c-1.6,2.4-2.3,2-3.8-0.1c-3.3-5-6.9-9.8-10.4-14.7
			c-1.1,0.6-0.6,1.5-0.6,2.2c0,5.9,0,11.8,0,17.6c0,0.8,0.3,1.8-1,1.9c-1.1,0.1-1.1-0.7-1.1-1.5c0-9,0-18,0.6-27.1
			c2.4,3.4,4.8,6.7,7.2,10.1c1.8,2.6,3.8,5.1,5.4,7.7c1.5,2.5,2.4,2,3.9-0.1c4-6,8.2-11.8,12.9-18.5c0,9.9,0,18.9,0,27.9
			c0,0.7,0.2,1.6-1,1.6c-1.4,0-1.1-1-1.1-1.8c0-5.4,0-10.7,0-16.1C381.1,176.7,381.4,175.5,380.5,173.9z"/>
		<path class="st0" d="M604.2,179.8c0.9,0.6,1.6,0.9,2.2,1.4c5.4,3.9,4.8,10.9-1.4,13.6c-4.6,2-9.5,0.7-14.3,0.9
			c-1.2,0.1-1-1.1-1-1.9c0-8.4,0-16.8,0-25.2c0-1.6,0.7-2,2.1-1.9c2,0.1,4,0.1,6,0c3.7-0.1,6.6,1,8.4,4.4
			C607.8,174.2,606.6,177,604.2,179.8z M597,193.6c1.6,0,3.2,0.2,4.7,0c3.6-0.5,6.2-3.1,6.1-6.1c0-2.9-2.2-5.1-6-5.8
			c-0.9-0.2-1.9-0.3-2.8-0.4c-7.3-0.3-7.3-0.3-7.3,7C591.8,193.6,591.8,193.6,597,193.6z M591.8,173.9c0,1.2,0,2.5,0,3.8
			c0,1,0.3,1.6,1.4,1.6c2.3-0.1,4.6,0.1,6.9-0.2c2.6-0.4,4.5-1.9,4.6-4.8c0.1-2.8-1.6-4.4-4.2-5.1c-1.1-0.3-2.3-0.4-3.4-0.4
			C591.8,168.6,591.8,168.6,591.8,173.9z"/>
		<path class="st0" d="M546.9,196.2c-6.9-8.2-13.1-15.7-20-23.8c0,7.2,0,13.4,0,19.6c0,0.8,0,1.7,0,2.5c0,0.7-0.4,1.2-1.2,1.1
			c-0.6,0-0.9-0.4-1-1c0-0.1,0-0.2,0-0.3c0-9.1,0-18.1,0-28.2c6.9,8.2,13.2,15.7,19.4,23.1c0.2-0.1,0.5-0.1,0.7-0.2
			c0-2.8,0-5.5,0-8.3c0-4.2,0-8.4,0-12.6c0-0.7-0.1-1.6,1-1.6c0.8,0,1,0.6,1,1.3C546.9,177.1,546.9,186.1,546.9,196.2z"/>
		<path class="st0" d="M684.8,189.1c0-6.1,0-12.3,0-18.5c0-0.8,0-1.7,0-2.5c0-0.6,0-1.3,0.9-1.4c1.1-0.1,1.1,0.7,1.1,1.5
			c0,2.8,0,5.7,0,8.5c0,6.1,0,12.3,0,19.5c-6.9-8.2-13.1-15.6-20-23.8c0,6.3,0,11.6,0,17c0,1.6,0,3.1,0,4.7c0,0.8,0,1.5-1.1,1.6
			s-1.1-0.7-1.1-1.5c0-2.7,0-5.4,0-8.2c0-6.3,0-12.5,0-19.8c6.9,8.2,13.2,15.7,19.4,23.1C684.3,189.2,684.6,189.1,684.8,189.1z"/>
		<path class="st0" d="M618.8,181.2c2.8-0.2,5-0.3,7.2-0.6c3.2-0.5,5.3-2.9,5.3-5.7c0-2.8-2.1-5.3-5.3-5.8c-2.9-0.4-5.8-0.2-8.8-0.3
			c-1.8,0-1.4,1.5-1.4,2.5c0,7.1,0,14.3-0.1,21.4c0,1,0.8,2.7-1,2.8c-1.9,0.1-1.2-1.7-1.2-2.6c-0.1-7.9,0-15.7-0.1-23.6
			c0-1.9,0.3-2.9,2.6-2.7c2.5,0.2,5,0,7.5,0.1c5.5,0.1,9.5,3.3,9.8,7.8c0.2,4.4-3,7.6-8.4,8.5c-0.4,0.1-0.8,0.1-1.7,0.2
			c3.4,4.1,6.5,8.1,9.8,12.1c-1.5,0.7-2.4,0.4-3.2-0.6C626.3,190.2,622.7,185.9,618.8,181.2z"/>
		<path class="st0" d="M350.6,181.6c-0.3,8.3-7,14.7-15.2,14.5c-8-0.2-14.6-7.3-14.4-15.4c0.3-8.2,7.1-14.7,15.2-14.4
			C344.4,166.5,350.9,173.4,350.6,181.6z M335.8,193.9c7,0.1,12.6-5.5,12.7-12.5c0.1-7-5.5-12.8-12.4-12.8
			c-7.2-0.1-12.8,5.4-12.8,12.7C323.3,188.2,328.8,193.8,335.8,193.9z"/>
		<path class="st0" d="M476.1,180.9c0-3.8,0.2-7.6-0.1-11.3c-0.1-2.5,0.8-3.1,3-2.9c1.8,0.2,3.6,0,5.4,0c8.3,0.1,14.1,6.1,14.1,14.5
			c0,8.4-5.9,14.4-14.1,14.5c-1.8,0-3.6-0.2-5.4,0.1c-2.7,0.3-3.1-0.9-3-3.2C476.3,188.6,476.1,184.7,476.1,180.9z M478.4,181
			c0,2.3,0,4.6,0,6.9c0,5.9,0,5.9,5.7,5.8c7.4-0.1,12.4-5.2,12.5-12.5c0.1-7.3-5-12.4-12.4-12.5c-1,0-2.1,0.1-3.1,0
			c-2-0.2-2.8,0.4-2.7,2.6C478.5,174.5,478.4,177.7,478.4,181z"/>
		<path class="st0" d="M502,180.9c0-4,0.1-8,0-12c0-1.7,0.5-2.4,2.3-2.4c4.8,0.1,9.6,0,14.5,0.1c0.8,0,2.2-0.5,2.1,1.1
			c-0.1,1.5-1.4,1-2.2,1c-4,0.1-8,0.1-12,0c-2-0.1-2.6,0.7-2.5,2.6c0.1,2.2,0.1,4.4,0,6.6c-0.1,1.7,0.6,2.2,2.2,2.1
			c3-0.1,6.1,0,9.1,0c0.9,0,1.8,0,1.7,1.2c-0.1,1.1-0.9,1-1.7,1c-2.9,0-5.9,0.1-8.8,0c-1.8-0.1-2.5,0.4-2.6,2.4
			c-0.2,9-0.3,8.9,8.6,8.9c2.1,0,4.2,0,6.3,0c0.8,0,1.8-0.1,1.8,1.2c0,1.1-0.9,0.9-1.6,0.9c-5.1,0-10.3,0-15.4,0
			c-1.7,0-1.8-0.9-1.8-2.2C502,189.3,502,185.1,502,180.9z"/>
		<path class="st0" d="M409.4,166.2c3.9,0.1,7.3,1.1,9.5,4.5c0.5,0.8,1.6,1.8,0.2,2.7c-1.4,0.9-1.4-0.7-1.9-1.4
			c-3-4.5-11.1-5-14.7-1c-1.9,2.1-1.7,4.9,0.6,6.9c1.5,1.3,3.3,1.7,5.2,2c2,0.3,4,0.5,5.9,1.1c3,1,5.3,3.1,5.7,6.5
			c0.4,3.5-1.7,5.8-4.6,7.2c-4.5,2.2-9,1.9-13.1-0.9c-1.2-0.8-2.2-2-2.7-3.4c-0.3-0.9-0.1-1.4,0.8-1.7c0.9-0.4,1,0.3,1.2,0.9
			c1.9,4.7,9.6,5.4,13.2,3.1c1.9-1.2,3.4-2.6,3.1-5c-0.3-2.3-1.9-3.8-4-4.4c-2-0.6-4.1-0.8-6.2-1.2c-1.2-0.3-2.5-0.4-3.6-1
			c-2.8-1.3-4.9-3.4-5-6.7c-0.1-3.2,1.9-5.2,4.5-6.6C405.4,166.7,407.3,166.2,409.4,166.2z"/>
		<path class="st0" d="M740.9,181.2c0,4.2,0,8.4,0,12.6c0,0.8,0.3,1.8-1.1,1.8c-1.4,0-1-1.1-1-1.9c0-3.1-0.1-6.3,0-9.4
			c0-1.6-0.5-2.2-2.2-2.2c-4.2,0.1-8.4,0.1-12.6,0c-2.1-0.1-2.4,0.9-2.4,2.6c0.1,3,0,6.1,0,9.1c0,0.8,0.1,1.8-1.2,1.7
			c-1.1-0.1-1-0.9-1-1.6c0-8.5,0-17,0-25.5c0-0.8-0.1-1.8,1.2-1.8c1.3,0.1,1,1.1,1,1.9c0,2.9,0.1,5.9,0,8.8
			c-0.1,1.8,0.3,2.7,2.4,2.6c4.2-0.1,8.4-0.1,12.6,0c1.6,0,2.2-0.5,2.2-2.1c-0.1-2.8-0.1-5.7,0-8.5c0-0.9-0.9-2.7,1.1-2.6
			c1.6,0.1,0.9,1.6,1,2.5C741,173.2,740.9,177.2,740.9,181.2z"/>
		<path class="st0" d="M227.8,166.3c2.8,0.1,6.2,1.2,8.4,4.6c0.5,0.7,1.3,1.7,0.2,2.5c-1.3,0.9-1.4-0.5-1.9-1.2
			c-3-4.5-11-5.2-14.7-1.2c-2.1,2.2-1.8,5.1,0.7,7.1c1.7,1.4,3.8,1.6,5.9,1.9c3.2,0.4,6.5,0.8,8.9,3.5c2.5,2.8,2.6,6.3,0.1,9.1
			c-4.2,4.7-13.2,4.6-17.3,0c-0.6-0.7-1.2-1.4-1.2-2.5c0-0.7,0-1.3,0.8-1.5c0.7-0.2,0.8,0.4,1,0.9c1.7,4.6,9.3,5.4,12.9,3.3
			c2-1.1,3.8-2.6,3.4-5.1c-0.3-2.4-1.9-4-4.2-4.6c-2.4-0.6-5-0.9-7.4-1.4c-4.6-1-6.5-3.5-6.6-8.1c-0.1-2.1,0.8-3.6,2.4-4.9
			C221.4,167,223.9,166.2,227.8,166.3z"/>
		<path class="st0" d="M648.9,166.4c4.2,9.5,8.2,18.6,12.2,27.7c0.2,0.4,0.5,1.1-0.1,1.4c-0.5,0.3-1.2,0.3-1.7-0.3
			c-0.3-0.5-0.7-1.1-0.8-1.7c-1-4.6-3.9-6-8.2-5.2c-0.9,0.2-1.9,0.1-2.8,0c-4.7-0.7-8.1,0.5-9.2,5.7c-0.2,1-1,2.2-2.2,1.6
			c-1.3-0.6,0-1.7,0.3-2.3c3.8-8.3,7.7-16.5,11.5-24.8C648,167.9,648.3,167.4,648.9,166.4z M655.3,186.2c-2.2-5.1-4.2-9.6-6.6-14.8
			c-2.3,4.9-4.2,9-6.1,13.1c-0.6,1.2-0.2,1.7,1.2,1.7C647.4,186.2,651,186.2,655.3,186.2z"/>
		<path class="st0" d="M263.2,177.3c0,2.4,0,4.8,0,7.2c-0.1,6.3-4.6,11.3-10.6,11.5c-5.9,0.3-11.2-4.4-11.5-10.6
			c-0.3-5.7-0.1-11.3-0.1-17c0-0.8-0.1-1.8,1.2-1.8c1.3,0.1,1,1.1,1,1.9c0,5.2,0,10.5,0,15.8c0,5.4,3.5,9.3,8.5,9.5
			c5.1,0.2,9.1-3.4,9.3-9c0.2-5.2,0.1-10.5,0.1-15.8c0-0.9-0.6-2.5,1.1-2.4c1.4,0.1,0.9,1.5,0.9,2.3
			C263.3,171.8,263.2,174.5,263.2,177.3z"/>
		<path class="st0" d="M471.3,177.2c0,2.4,0,4.8,0,7.2c-0.1,6.5-4.8,11.5-10.8,11.6c-6.2,0.1-11.2-4.8-11.4-11.4
			c-0.1-5.2,0-10.5,0-15.8c0-0.8-0.4-2.1,1.1-2.1c1.5,0,1.1,1.3,1.1,2.1c0,5.1,0,10.3,0,15.4c0,5.4,3.5,9.3,8.4,9.6
			c5.1,0.3,9.2-3.4,9.4-8.9c0.2-5.4,0.1-10.7,0.1-16.1c0-0.8-0.5-2.2,1-2.2c1.5,0,1,1.4,1,2.2C471.3,171.7,471.3,174.4,471.3,177.2z
			"/>
		<path class="st0" d="M308.1,166.3c3.4-0.1,6.4,1,9,3.1c0.7,0.5,2.3,1,1.3,2.3c-1.1,1.4-1.8-0.1-2.5-0.6c-5.4-3.9-12.1-3.5-16.6,1
			c-4.5,4.6-4.9,11.8-1,17c4.1,5.3,11.7,6.4,17.2,2.5c0.5-0.4,1-0.8,1.5-1.2c0.6-0.6,1.2-1.3,2-0.3c0.9,1-0.2,1.5-0.7,2
			c-5.7,5.8-15.4,5.4-21-1c-4.1-4.7-4.9-10.1-2.5-15.9C297,169.7,302.3,166.3,308.1,166.3z"/>
		<path class="st0" d="M704,166.3c4.7-0.1,7.8,1.1,10.5,3.3c0.6,0.5,2,0.9,1,2.1c-1,1.2-1.6,0.1-2.3-0.5c-6.4-4.7-14.2-3.5-18.4,2.8
			c-3.4,5.1-2.6,12.2,1.9,16.4c4.6,4.3,11.4,4.6,16.4,0.6c0.2-0.2,0.5-0.4,0.7-0.6c0.7-0.5,1.3-1.7,2.3-0.5c0.9,1.2-0.4,1.7-1,2.2
			c-4,3.5-8.6,4.7-13.8,3.3c-6.9-1.9-11.7-9.1-10.7-16.2C691.7,171.7,697.8,166.3,704,166.3z"/>
		<path class="st0" d="M268.1,180.8c0-3.9,0.1-7.8,0-11.6c-0.1-2.1,0.7-2.7,2.7-2.6c2.8,0.2,5.7,0,8.5,0.1c4.7,0.2,8.5,3.7,8.7,7.9
			c0.1,4.3-3.6,8.1-8.5,8.5c-2.4,0.1-4.8,0.1-7.2,0c-1.5-0.1-2,0.5-2,2c0.1,2.8,0,5.7,0,8.5c0,0.8,0.4,2.1-1.1,2.1
			c-1.5-0.1-0.9-1.3-1.1-2.2c0-0.1,0-0.2,0-0.3C268.1,189,268.1,184.9,268.1,180.8z M275.7,168.7c-5.4,0-5.4,0-5.4,5.5
			c0,1.7,0,3.4,0,5c0,1,0.1,1.9,1.5,1.9c3-0.1,6.1,0.4,9.1-0.4c2.9-0.8,5-2.6,5-5.6c0.1-3.1-2-4.9-4.8-5.8
			C279.3,168.5,277.5,168.7,275.7,168.7z"/>
		<path class="st0" d="M561.7,182.4c0-3.9-0.1-7.8,0-11.6c0-1.6-0.5-2.2-2.2-2.2c-2.6,0.1-5.2,0-7.9,0c-0.6,0-1.3,0-1.4-0.9
			c-0.1-1.1,0.7-1.1,1.5-1.1c7.2,0,14.5,0,21.7,0c0.7,0,1.6-0.1,1.6,1c0,1.1-0.9,1-1.6,1c-2.2,0-4.4,0.2-6.6,0
			c-2.4-0.2-3.3,0.5-3.2,3.1c0.2,7.1,0.1,14.2,0,21.4c0,0.9,0.7,2.5-1,2.5c-1.7,0-1-1.6-1-2.4C561.6,189.6,561.7,186,561.7,182.4z"
			/>
		<path class="st0" d="M434.4,182.5c0,3.1,0.1,6.3,0,9.4c-0.1,1.2,1,3.5-1,3.5c-1.8,0-0.8-2.2-0.9-3.4c-0.1-6.7-0.2-13.4,0-20.1
			c0.1-2.5-0.5-3.6-3.2-3.3c-2.2,0.2-4.4,0.1-6.6,0c-0.7,0-1.6,0.1-1.6-1c0-1.1,0.9-1,1.6-1c7.1,0,14.2,0,21.4,0
			c0.8,0,1.9-0.3,1.8,1.1c-0.1,1.1-1,0.9-1.7,0.9c-2.4,0-4.8,0.1-7.2,0c-2-0.1-2.5,0.7-2.5,2.5C434.5,174.9,434.4,178.7,434.4,182.5
			z"/>
		<path class="st0" d="M291.4,171c-1.1-0.4-0.9-1.1-0.6-1.6c0.5-1,0.2-2.7,2-2.7c0.9,0,1.1,0.4,0.7,1.2
			C292.9,169,292.6,170.3,291.4,171z"/>
		<path class="st0" d="M125.9,101.1c-1.6,0.6-2.5,1-3.8,1.5c1.7,1.1,3.1,1.9,4.4,2.8c6.9,5,6.7,11.2-0.4,15.9
			c-2.6,1.8-5.5,3.1-8.5,4c-21.2,6.2-42.4,6.4-63.5-0.6c-4.3-1.4-8.5-3.2-11.9-6.3c-4-3.7-4.6-7.8-1.1-12C46.6,100.1,54,97,62,95.1
			c1.1-0.2,1.8,0.4,2.6,0.9c2.2,1.4,4.4,2.8,6.6,4.2c0.7,0.4,1.8,0.6,1.8,1.6c-0.1,1-1.3,0.8-2,1.1c-3.3,1-6.7,1.8-9.7,3.7
			c-2.7,1.8-6,3.7-5.7,7.3c0.3,3.7,3.6,5.5,6.9,6.6c18,6.2,36,5.9,54-0.3c1.7-0.6,3.2-1.6,4.6-2.7c4.2-3.1,4.1-7.3-0.1-10.4
			c-3.1-2.2-6.3-3.8-10.2-2.2c-1.9,0.8-2.9,0.2-3.4-1.8c-0.6-2.3-1.6-4.5-2.6-7.3C111.9,97.7,118.6,99.3,125.9,101.1z"/>
		<path class="st0" d="M87.8,52.4c3.4,9.4,6.7,18.4,9.9,27.4c0.2,0.5,0.4,1,0.5,1.5c0.7,2.3,3,4.8,2.1,6.7c-0.9,1.8-4.2,0.5-6.4,0.6
			c-1.8,0.1-2,1-2,2.4c0.4,9,0.6,18,1.1,27.1c0.3,4.7,0.3,4.8-4.3,4.9c-6.8,0.2-6.9,0.2-6.7-6.4c0.3-8.1,0.7-16.2,1.2-24.2
			c0.2-2.8-0.6-4.2-3.6-3.7c-0.6,0.1-1.3,0-1.9,0c-2,0.2-2.8-0.1-2-2.6c3.8-10.8,7.5-21.6,11.2-32.5C87.1,53.3,87.3,53.1,87.8,52.4z
			"/>
		<path class="st0" d="M87.9,167.1c-8.1-0.5-7.9-0.4-7.5-7.6c0.5-8.2,0.7-16.4,0.9-24.5c0.1-2.5,0.7-3.6,3.5-3.1
			c2,0.4,4.2,0.2,6.3,0c1.9-0.1,2.6,0.7,2.7,2.5c0.4,10.1,0.8,20.1,1.3,30.2c0.1,1.7-0.5,2.2-2.1,2.3C90.9,166.8,89,167,87.9,167.1z
			"/>
	</g>
</g>
</svg>
