<?xml version="1.0" encoding="utf-8"?>
<!-- Generator: Adobe Illustrator 25.2.0, SVG Export Plug-In . SVG Version: 6.00 Build 0)  -->
<svg version="1.1" id="Layer_1" xmlns="http://www.w3.org/2000/svg" xmlns:xlink="http://www.w3.org/1999/xlink" x="0px" y="0px"
	 viewBox="0 0 3273 1149.5" style="enable-background:new 0 0 3273 1149.5;" xml:space="preserve">
<style type="text/css">
	.st0{fill:#FFFFFF;}
</style>
<g>
	<g>
		<path class="st0" d="M87.9,534.3c2-1.5,0.9-3.7,0.9-5.5c0.1-18,2.7-35.6,5.8-53.2c3.7-20.6,9-40.6,16.2-60.2
			c7.8-21.3,17.2-41.8,28.6-61.5c11.6-20,24.7-38.8,39.2-56.7c12-14.8,25.4-28.5,39.4-41.4c17.8-16.3,36.7-31.1,57-44.1
			c23.9-15.4,48.8-28.8,75.1-39.6c22.9-9.4,46.3-17.2,70.3-23c15.5-3.7,31.2-6.8,47-8.8c15.8-2,31.7-3.3,47.7-4.2
			c10.6-0.6,21.3-1.1,31.8-0.5c15.7,0.9,31.5,1.7,47.2,3.6c23.2,2.8,46,7.3,68.6,13.3c19.8,5.2,39.1,12,58,19.9
			c13.7,5.7,27,12.2,40.1,19.1c21,11,40.8,23.8,59.6,38.2c12.3,9.4,23.9,19.6,35.3,30.1c20.4,18.8,38.1,39.9,54.3,62.3
			c13.6,18.8,25.4,38.7,35.3,59.7c13.5,28.8,23.6,58.8,29.5,90.1c3,15.8,4.8,31.7,6.1,47.7c1.1,14.3,1.2,28.6,0.6,42.8
			c-0.8,19.6-3.2,39.1-7.4,58.4c-5,23.1-11.5,45.7-20.5,67.5c-8.1,19.6-17.7,38.4-28.8,56.6c-10.7,17.5-22.7,33.9-35.8,49.5
			c-13.6,16.2-28.5,31.1-44.6,45.1c-16.1,14-33,26.8-50.8,38.5c-12.3,8-25,15.3-38,22.1c-23.6,12.2-48,22.5-73.3,30.5
			c-21.9,6.9-44.1,12.4-66.8,16c-14.1,2.2-28.2,3.9-42.4,5c-17,1.3-34.1,2.6-51.1,1.7c-15.2-0.9-30.5-1.6-45.7-3.6
			c-20.4-2.6-40.6-6.3-60.5-11.2c-23.7-5.8-46.8-13.7-69.3-23.2c-27.6-11.6-53.7-25.9-78.4-42.9c-13-8.9-25.4-18.4-37.4-28.5
			c-13-10.9-25.1-22.7-36.7-35c-18.2-19.4-34.1-40.6-48.1-63.1c-7.9-12.8-15.3-25.8-21.6-39.5c-12.1-26.5-21.8-53.9-27.6-82.6
			c-3.2-15.6-5.6-31.2-7.1-47c-0.6-6.3-0.5-12.5-0.8-18.8c-0.1-1.2,0.7-2.7-1-3.5C87.9,547.7,87.9,541,87.9,534.3z M448.4,361.5
			c-1.2,0.3-2.4,0.7-3.7,0.8c-14.1,1.6-28,4.3-41.8,7.6c-20.7,4.9-40.9,11.5-60.5,20.1c-26.1,11.6-49.7,26.5-69.4,47.6
			c-12.8,13.7-22.9,28.8-30.3,46c-7.7,17.9-11.4,36.7-12.7,56c-0.8,11.2,0.1,22.4,1.7,33.6c2.2,15.8,6.8,30.9,13.7,45.1
			c11.9,24.3,29.2,44.5,50.8,60.6c31.4,23.5,66.8,38.9,104.7,48.6c21,5.4,42.2,9.7,63.9,11.8c3,0.3,4.3,1.6,4.1,4.7
			c-0.8,10.9-0.9,21.8-2.2,32.6c-1.1,8.9-5.3,16.4-14.8,19.1c-4.4,1.2-8.9,2.2-13.4,2.5c-13.3,0.9-26.7,1.1-40.1,2.3
			c-4.4,0.4-9.2-0.3-13.2,2.9c-9.7,7.9-10.3,20.7-5,30.7c3.1,5.8,8.2,8.5,15,8.3c6.8-0.2,13.5-0.5,20.3-0.9
			c16.2-1,32.5-0.8,48.8-0.8c49.9-0.2,99.9-1.3,149.8,0.5c21.1,0.8,42.2,0.2,63.3,1.2c2.2,0.1,4.2-0.3,6.2-1.3
			c12-5.9,12-22.9,7.8-31.7c-3.8-7.9-11.1-8.7-18.3-8.9c-15.7-0.4-31.3-1.7-46.9-3.1c-11-1-18.6-6.7-21-17.3
			c-2.8-12.3-2.7-24.9-2.4-37.5c0.1-3,2.5-3.1,4.6-3.2c10.3-0.5,20.5-2.4,30.6-4.3c24.3-4.6,48.2-10.8,71.3-19.7
			c27.8-10.6,53.7-24.8,76.1-44.4c18.4-16.1,33.7-34.9,43.5-57.8c6.7-15.6,11.6-31.6,12.6-48.4c1.1-18.6,0.7-37.2-3.7-55.6
			c-8.7-36.5-28.4-66-57.3-89.2c-22.6-18.3-48.7-30.8-76.1-40.2c-16.3-5.6-33-9.9-49.9-13.2c-15.2-2.9-30.6-5.3-46-6.9
			c-5.4-0.5-5.9-2.1-5.9-6.6c0.3-33.1-0.5-66.2,1.1-99.3c0.2-3.3,0.1-6.5,0.8-9.8c0.9-4.4,1.3-9.2,0.5-13.6
			c-1.6-9.5-14.1-16.7-23.4-14.5c-12.2,2.9-23.8,7.5-35.8,11.1c-15.1,4.5-30.1,9.2-45.5,12.6c-17,3.7-34.1,7.1-51.2,10.3
			c-15.9,3-31.8,5.4-47.8,7.8c-4.9,0.7-10.2,0-14.8,2.7c-6.6,3.8-10.8,15.7-8.4,24c2.3,7.8,5.7,14.9,14.8,16
			c6.5,0.8,13.1,1.3,19.6,2.1c11.2,1.4,22.5,2.2,33.6,4.2c13.4,2.3,17.6,7.2,20.7,19.4c1.9,7.8,1.3,15.8,1.7,23.6
			c0.9,17.6,1.1,35.2,1.1,52.8c0,55.6,1.3,111.2-0.7,166.8c-0.6,18.6-0.1,37.3-0.1,56c0,13.5,0,27,0,40.5c0,1.6-0.8,3.3,2.3,3.9
			c19.6,3.7,39.4,5,59.3,5.8c8.1,0.3,16.2-0.2,24.3-0.6c12.9-0.6,25.6-2,38.4-3.3c9.8-1,9.8-1.2,9.8-11.3c0-82,0-164,0-245.9
			c0-6,0-6,6.2-4.8c1.9,0.4,3.9,0.6,5.8,1.1c18.5,4.4,36.8,9.6,53.5,19.1c23.1,13.2,36.4,33.7,43.5,58.7c5,17.6,4.9,35.7,5.9,53.7
			c0.4,8.1-0.1,16.2-0.6,24.3c-0.7,11-1.3,22-3.2,32.8c-3.6,19.8-11,37.9-25.1,52.6c-12.2,12.8-26.9,22.1-43.9,27.7
			c-17.7,5.9-35.7,9.7-54.2,12.1c-19,2.4-38.1,3.4-57.2,3.9c-4,0.1-7.9-0.9-11.8-0.9c-17.7-0.1-35.1-2.2-52.5-5.1
			c-21-3.4-41.4-8.7-60.2-19c-16.8-9.2-30.3-21.8-39.2-39c-9.9-19.1-13.3-39.9-13.8-61.1c-0.4-17.1-0.8-34.2,0.6-51.3
			c1-12.1,2.5-24,6.2-35.6c7.1-22.3,19.6-40.3,40-52.6c13.4-8.1,28.1-12.9,42.9-17.1c3.5-1,4.2-2.2,4.1-5.2
			c-0.2-15.3-1.6-30.5-1.1-45.8C448.8,362.3,448.6,362,448.4,361.5z"/>
		<path class="st0" d="M1019.9,1036.2c-7.6-4.4-6.1-11-4.6-17.8c7.6-35.5,15.1-71.1,22.7-106.6c5.1-23.9,10.4-47.9,15.5-71.8
			c5.9-27.6,11.6-55.3,17.5-83c4.7-22,9.4-44,14.1-66.1c4.9-22.8,9.9-45.6,14.8-68.4c4.9-22.8,9.8-45.6,14.6-68.5
			c5.2-24.6,10.2-49.2,15.5-73.8c4.7-22.2,9.5-44.3,14.3-66.5c4.9-23.1,9.8-46.3,14.7-69.4c4.7-22.2,9.5-44.3,14.3-66.5
			c4.9-23.1,9.8-46.3,14.7-69.4c4.5-21.1,9.1-42.1,13.6-63.1c3.8-18,7.6-36,11.4-54c0.8-4,2.3-7.5,6-9.8c2.7,0,5.3,0,8,0
			c7.6,4.4,6.1,11,4.6,17.8c-7.6,35.5-15.1,71.1-22.7,106.6c-5.1,23.9-10.4,47.9-15.5,71.8c-5.9,27.6-11.6,55.3-17.5,83
			c-4.7,22-9.4,44-14.1,66.1c-4.9,22.8-9.9,45.6-14.8,68.4c-4.8,22.5-9.5,45-14.2,67.6c-5.3,24.9-10.5,49.8-15.8,74.7
			c-4.7,22.2-9.6,44.3-14.3,66.5c-4.9,23.1-9.8,46.3-14.7,69.4c-4.7,22.2-9.6,44.3-14.3,66.5c-5.3,24.8-10.4,49.5-15.7,74.3
			c-4.8,22.3-9.6,44.7-14.4,67c-3.2,14.6-6.6,29.2-9.4,43.9c-0.9,4.6-2.5,8.3-6.2,11.2C1025.2,1036.2,1022.5,1036.2,1019.9,1036.2z"
			/>
		<path class="st0" d="M1991.8,489.9c-16.3,31.2-32.6,62.4-48.9,93.6c-4.2,8-8.4,15.9-12.4,23.9c-1.1,2.2-2.4,3.1-5,3
			c-5.7-0.2-11.4-0.4-17,0c-4.3,0.3-6.4-1.1-8.4-4.9c-19.4-37.5-39-74.9-58.5-112.3c-0.6-1.1-1.2-2.2-2.7-3.3c0,1.7,0,3.4,0,5.1
			c0,50.8,0,101.6,0.1,152.5c0,3.8-0.9,5-4.8,4.9c-13.2-0.3-26.3-0.2-39.5,0c-2.9,0-3.9-0.5-3.9-3.8c0.1-80,0.1-160,0-239.9
			c0-3.2,0.8-4.2,4.1-4.2c14.5,0.2,29,0.2,43.5,0c3.2,0,4.6,1.2,6,3.9c22.8,44,45.6,87.9,68.5,131.8c0.8,1.6,1.7,3.2,2.5,4.8
			c1.9-1.3,2.4-3.3,3.3-5c23-43.7,45.9-87.4,68.7-131.1c1.7-3.3,3.6-4.4,7.2-4.3c14.2,0.2,28.3,0.2,42.5,0c3.1,0,3.9,0.8,3.9,3.9
			c-0.1,80.1-0.1,160.3,0,240.4c0,2.8-0.8,3.6-3.6,3.6c-13.2-0.1-26.3-0.2-39.5,0c-4.1,0.1-5.2-0.8-5.2-5.1
			c0.2-50.8,0.1-101.6,0.1-152.5c0-1.6,0-3.2,0-4.8C1992.4,490,1992.1,490,1991.8,489.9z"/>
		<path class="st0" d="M3197.8,652.3c-17.9,0-35,0-52.1,0c-2.7,0-3.1-2.2-4-3.8c-15.4-25.1-30.7-50.2-45.9-75.4
			c-1.8-2.9-3.6-4-7-3.9c-13,0.2-26,0.2-39,0c-3.3,0-4.1,0.8-4.1,4.1c0.1,24.8,0,49.6,0.2,74.5c0,3.6-0.7,4.7-4.6,4.7
			c-13.2-0.3-26.3-0.2-39.5,0c-3,0-4.2-0.5-4.2-4c0.1-80,0.1-159.9,0-239.9c0-3.4,1.1-4.1,4.2-4c35,0.1,70-0.1,105,0.1
			c36.5,0.2,68.5,27.1,77,64.3c7.9,34.6-6.9,70.6-35.5,86.7c-6.8,3.8-6.8,3.8-2.7,10.6C3162.8,594.6,3180,623,3197.8,652.3z
			 M3045.7,486.9c0,11.8,0.1,23.6-0.1,35.5c-0.1,3.8,0.7,5,4.8,5c17.8-0.3,35.6-0.2,53.5-0.1c12,0.1,20.7-5.2,26.8-15.2
			c6.9-11.4,8.7-23.7,5.5-36.5c-3.7-14.7-15.5-29.9-37.1-29c-16.3,0.7-32.6,0.2-49,0c-3.4,0-4.5,0.8-4.5,4.3
			C3045.9,462.9,3045.7,474.9,3045.7,486.9z"/>
		<path class="st0" d="M1631.9,654c-54.5-0.3-100.1-36.5-115.5-91.6c-17.6-62.9,16.2-130.7,77-152.5c52.4-18.7,107.7-0.3,139.3,49.4
			c34.7,54.5,24.8,125.1-23.4,166.2C1687.1,644.5,1661.3,654.1,1631.9,654z M1560.4,528.4c0,14,3,28,8.4,40.2
			c23.6,53,89.8,56.1,119.4,14.2c22.3-31.5,22.2-78.5-0.7-109.6c-27.8-37.6-83.7-37-110.6,1.2
			C1565.5,490.6,1560.7,508.9,1560.4,528.4z"/>
		<path class="st0" d="M1554.9,968.9c-54.5-0.3-100.1-36.5-115.5-91.6c-17.6-62.9,16.2-130.7,77.1-152.5
			c49.9-17.9,103.2-2.2,136,44.5c38.4,54.6,29.7,128.6-20.1,171.2C1610.1,959.5,1584.2,969,1554.9,968.9z M1628,850.4
			c0-25.7-5.1-43.7-14.8-58.4c-27.7-42.2-87.8-42.7-114.7-0.1c-21.2,33.6-21.3,69.1-0.3,102.8c26.6,42.7,86.2,42.8,114.3,1.1
			C1623.2,880,1627.9,862.4,1628,850.4z"/>
		<path class="st0" d="M2052.7,843.4c0-39.5,0.1-79-0.1-118.4c0-4.1,0.6-5.6,5.3-5.6c52.8,0.2,105.6,0.2,158.4,0
			c4.1,0,5.3,1,5.2,5.2c-0.3,10.7-0.3,21.3,0,32c0.1,4.3-1.4,5.1-5.3,5.1c-36.8-0.1-73.6,0-110.5-0.2c-4.3,0-5.1,1.2-5.1,5.3
			c0.2,16.8,0.2,33.6,0,50.5c0,3.5,0.9,4.4,4.4,4.3c31.7-0.1,63.3,0,95-0.2c3.7,0,5.2,0.6,5,4.8c-0.4,10-0.3,20,0,30
			c0.1,3.6-0.9,4.4-4.4,4.3c-31.5-0.1-63,0-94.5-0.2c-4.1,0-5.6,0.5-5.6,5.2c0.3,18.1,0.3,36.3,0,54.5c-0.1,4.7,1.5,5.3,5.6,5.3
			c37.8-0.2,75.6,0,113.5-0.2c4.1,0,5.3,0.9,5.2,5.1c-0.3,11.2-0.2,22.3-0.1,33.5c0,2.7-0.6,3.7-3.5,3.7c-55-0.1-110-0.1-164.9,0
			c-4.1,0-3.6-2-3.6-4.5C2052.7,923,2052.7,883.2,2052.7,843.4z"/>
		<path class="st0" d="M2787.7,528.6c0-39.6,0.1-79.3-0.1-118.9c0-4.2,1-5.2,5.2-5.1c52.8,0.2,105.6,0.1,158.4,0
			c4,0,5.5,0.7,5.3,5.1c-0.3,10.8-0.3,21.7,0,32.5c0.1,3.8-1,4.7-4.7,4.7c-37-0.1-74,0-111-0.2c-4.1,0-5.3,1-5.2,5.1
			c0.3,16.5,0.2,33,0,49.5c-0.1,4.2,0.7,5.5,5.3,5.5c31.3-0.3,62.6,0,94-0.2c4.2,0,5.3,1.1,5.1,5.2c-0.3,9.7-0.3,19.3,0,29
			c0.1,3.7-0.7,5-4.8,5c-31.5-0.2-63,0-94.5-0.2c-4.2,0-5.2,1-5.1,5.2c0.2,18.5,0.2,37,0,55.5c0,3.5,0.9,4.4,4.4,4.3
			c38.2-0.1,76.3,0,114.5-0.2c4,0,5.4,0.6,5.3,5c-0.4,11-0.2,22-0.1,33c0,3-0.3,4.3-3.9,4.3c-54.8-0.1-109.6-0.1-164.4,0
			c-3.9,0-3.7-1.7-3.7-4.4C2787.7,608.2,2787.7,568.4,2787.7,528.6z"/>
		<path class="st0" d="M2306.2,477.6c0-22.7,0.1-45.3-0.1-68c0-4.3,1.2-5.2,5.3-5.1c12.7,0.3,25.3,0.3,38,0c4.1-0.1,4.9,1.2,4.9,5
			c-0.1,40-0.2,80,0,120c0,15.9,1.4,31.6,7.6,46.5c9.5,23.1,27.5,35.3,52.1,35.5c25.3,0.2,42.7-11.7,53-34.4
			c7.2-15.8,8.2-32.8,8.2-49.8c0-39.2,0.1-78.3-0.1-117.5c0-4,0.8-5.4,5.1-5.3c12.8,0.3,25.7,0.2,38.5,0.1c3,0,4.3,0.4,4.3,4
			c-0.2,42.7,0.3,85.3-0.3,128c-0.3,24-4.7,47.3-16.8,68.6c-17,29.8-43.4,45.1-77.1,48.2c-20.2,1.9-40.4,0.8-59.4-7.3
			c-32.8-13.9-51-39.8-58.7-73.8c-3.4-15.2-4.6-30.6-4.5-46.1C2306.3,509.9,2306.2,493.8,2306.2,477.6z"/>
		<path class="st0" d="M1383.4,784.1c-16.2-12.5-34.3-20.1-54.2-23.1c-11.7-1.8-23.6-1.8-35,2.4c-10.4,3.9-16.2,11.3-17.1,22.4
			c-0.9,10.7,4.3,18.1,13.3,23.2c12.2,6.9,25.8,9.6,39.1,13.1c14.8,4,29.5,8,43.5,14.2c19.5,8.6,34.7,21.8,38.6,43.8
			c7.6,43.5-11.9,76.3-56.7,85.9c-48,10.3-92.7,0.2-134.1-25.9c-2.5-1.6-3.2-2.8-1.6-5.7c6.1-11.4,11.9-23,17.8-34.6
			c1.2-2.4,1.9-3.1,4.5-1.2c22.4,15.9,47,26,74.6,27.9c10.2,0.7,20.3,0.1,30-3.4c8.3-3,14-8.4,15.4-17.3c1.5-9.5-1.4-17.4-9.3-23.2
			c-9.3-6.8-20.1-10.1-30.9-13.4c-17.8-5.4-36-9.5-53.1-17c-4.1-1.8-8.2-3.7-12-6c-24.3-14.4-30.8-34.2-28.1-60.1
			c4-39.5,32.9-59.7,64.9-65.9c39.3-7.6,75.1,2.1,108.5,23.1c1.6,1,3.1,1.7,1.6,4.2C1396.6,759.7,1390.1,771.8,1383.4,784.1z"/>
		<path class="st0" d="M2092.7,528.3c0-39.7,0.1-79.3-0.1-119c0-4,1.1-4.9,5-4.9c31.2,0.2,62.4,1,93.5-0.1
			c49.6-1.9,78.9,36.7,84.3,69.8c6,36.6-14.3,78.8-53.6,91.6c-8.2,2.7-16.6,3.5-25.1,3.5c-17.2,0-34.3,0.2-51.5-0.1
			c-3.9-0.1-4.5,1.1-4.5,4.7c0.2,24.7,0,49.3,0.2,74c0,3.9-1.1,4.6-4.7,4.5c-13-0.2-26-0.3-39,0c-3.8,0.1-4.6-0.9-4.6-4.6
			C2092.8,608,2092.7,568.2,2092.7,528.3z M2140.8,486.8c0,12,0.1,24-0.1,36c-0.1,3.3,0.6,4.5,4.3,4.5c16.6-0.2,33.3-0.2,50-0.1
			c13.9,0.1,23.4-6.8,28.8-19.2c5-11.5,5.5-23.6,2-35.6c-5-17.2-16.6-25.8-34.6-25.8c-15.3,0-30.6,0.1-46-0.1
			c-3.4,0-4.5,0.7-4.5,4.3C2140.9,462.9,2140.8,474.9,2140.8,486.8z"/>
		<path class="st0" d="M1747.4,847.6c1.1,26.4,11.6,52.7,39.2,70c31.2,19.5,78.3,6.9,93.2-25.8c1.3-2.8,2.4-2.1,4.3-1
			c11.1,6.4,22.1,12.9,33.3,19.1c2.9,1.6,2.7,3,1.5,5.4c-7.4,15-18.8,26.3-32.9,34.7c-68.3,40.6-144.3,15.2-176.1-56.6
			c-23-51.9-9.6-111.5,32-146.9c26.5-22.6,57.5-30.9,91.9-27.7c29.6,2.7,54.2,14.8,73.2,37.9c3.7,4.5,9.1,9.6,8.9,14.6
			c-0.2,4.9-7.9,6.9-12.4,10.1c-6.9,5-13.9,9.7-20.9,14.5c-1.4,1-2.4,2.1-3.6-0.4c-13.6-26.1-36.4-36.1-64.5-34.6
			c-29.8,1.6-48.8,18.8-59.9,45.5C1749.7,818,1747.5,830.3,1747.4,847.6z"/>
		<path class="st0" d="M1456.2,482.6c-12.8-25.8-34.2-36.8-61.4-36.9c-27.8-0.1-47.7,13.7-60.6,37.8c-18,33.6-13,78.1,11.3,105.1
			c26.4,29.3,71.2,31.3,99.1,4.3c5.5-5.3,9.5-11.5,12.7-18.7c12.3,7.1,24.5,14.2,36.8,21.1c2.5,1.4,2,2.8,1,4.8
			c-5.4,11.4-13.5,20.5-23.3,28.2c-35.2,27.8-95.1,38.4-140.2,6.1c-30.3-21.7-49.3-50.9-54.8-87.6c-7.2-48.2,8.1-88.8,46.5-119.3
			c25.5-20.3,55.2-26.6,87.3-23.6c29.4,2.8,53.9,14.9,72.6,38c3.1,3.8,5.6,8.3,8.4,12.4c1.3,2,1.3,3.2-0.9,4.7
			C1479.1,466.7,1467.8,474.6,1456.2,482.6z"/>
		<path class="st0" d="M2681.6,719.5c-10.8,19.4-21.1,37.8-31.4,56.2c-18.8,33.7-37.5,67.3-56.4,100.9c-1.5,2.7-2.2,5.4-2.2,8.5
			c0.1,25.7,0,51.3,0.1,77c0,3.9-0.6,5.4-5,5.3c-12.8-0.3-25.7-0.3-38.5,0c-3.9,0.1-4.6-1.1-4.5-4.7c0.2-25.7,0-51.3,0.2-77
			c0-4.2-1-7.7-3-11.3c-28-49.8-55.8-99.7-83.7-149.7c-0.9-1.5-2.2-2.9-2.1-5.2c16.5,0,33,0,49.4,0c3.1,0,3.3,2.5,4.1,4.2
			c15.8,30.7,31.5,61.5,47.2,92.2c3.8,7.4,7.6,14.8,11.3,22.2c1.8-0.6,2-2.2,2.6-3.5c19.3-37,38.6-73.9,57.7-110.9
			c1.6-3,3.2-4.3,6.8-4.3C2649.7,719.7,2665.1,719.5,2681.6,719.5z"/>
		<path class="st0" d="M2653.7,404.6c32.8,0,65.7,0.1,98.5-0.1c3.6,0,4.9,0.6,4.8,4.5c-0.3,11-0.3,22,0,33c0.1,3.6-0.7,4.7-4.6,4.7
			c-23-0.2-46,0-69-0.2c-4.4,0-5.8,0.8-5.8,5.6c0.2,65,0.1,130,0.2,195c0,4.4-1.1,5.5-5.4,5.4c-12.5-0.3-25-0.3-37.5,0
			c-4.2,0.1-5.2-1-5.2-5.1c0.1-64.8,0-129.6,0.2-194.5c0-5.4-1.6-6.4-6.6-6.3c-22.7,0.3-45.3,0-68,0.2c-4.1,0-4.9-1.3-4.8-5
			c0.2-10.5,0.3-21,0-31.5c-0.1-4.3,0.7-5.9,5.5-5.8C2588.7,404.7,2621.2,404.6,2653.7,404.6z"/>
		<path class="st0" d="M2345.1,719.5c32.7,0,65.3,0.1,98-0.1c4,0,5,1.1,4.9,5c-0.3,10.8-0.3,21.7,0,32.5c0.1,4.1-1.3,4.8-5,4.8
			c-23.2-0.2-46.3,0-69.5-0.2c-4,0-4.9,1.2-4.9,5c0.1,65.2,0,130.3,0.2,195.5c0,4.2-0.7,5.6-5.3,5.5c-12.5-0.4-25-0.4-37.5,0
			c-4.7,0.2-5.2-1.5-5.2-5.6c0.1-64.8,0-129.6,0.2-194.5c0-4.8-1.1-6-6-5.9c-23,0.3-46,0-69,0.2c-3.5,0-4.4-0.8-4.4-4.4
			c0.2-11.2,0.2-22.3,0-33.5c-0.1-3.6,1-4.4,4.4-4.4C2279.1,719.6,2312.1,719.5,2345.1,719.5z"/>
		<path class="st0" d="M1477.8,240.7c0-27,0.1-54-0.1-81c0-3.4,0.7-4.4,4.3-4.4c36,0.1,72,0.1,108,0c3,0,4.4,0.4,4.3,3.9
			c-0.3,7.2-0.3,14.3,0,21.5c0.1,3.3-1,3.8-3.9,3.8c-24.8-0.1-49.7,0-74.5-0.1c-3.7,0-5.1,0.6-5,4.8c0.3,10.5,0.3,21,0,31.5
			c-0.1,4,0.7,5.3,5.1,5.3c20.8-0.3,41.7,0,62.5-0.2c3.8,0,4.9,0.9,4.7,4.7c-0.3,6.1-0.3,12.3,0,18.5c0.1,3.2-0.9,3.8-3.9,3.8
			c-21.2-0.1-42.3,0.1-63.5-0.2c-4.1,0-4.9,1.2-4.8,5c0.2,11.5,0.3,23,0,34.5c-0.1,4.2,0.7,5.6,5.3,5.5c25.2-0.3,50.3,0,75.5-0.2
			c3.9,0,5.1,1,4.9,4.9c-0.3,6.8-0.2,13.7,0,20.5c0,2.5-0.3,3.8-3.4,3.8c-37.3-0.1-74.7-0.1-112,0c-3.9,0-3.3-2-3.3-4.3
			C1477.8,295,1477.8,267.8,1477.8,240.7z"/>
		<path class="st0" d="M1767.7,240.7c0-27,0.1-54-0.1-81c0-3.4,0.7-4.4,4.3-4.4c36,0.1,72,0.1,108,0c3,0,4.4,0.4,4.3,3.9
			c-0.3,7.2-0.3,14.3,0,21.5c0.1,3.3-1,3.8-3.9,3.8c-24.8-0.1-49.7,0-74.5-0.1c-3.7,0-5.1,0.6-5,4.7c0.3,10.5,0.3,21,0,31.5
			c-0.1,4,0.7,5.3,5.1,5.3c20.8-0.3,41.7,0,62.5-0.2c3.8,0,4.9,0.9,4.7,4.7c-0.3,6.1-0.3,12.3,0,18.5c0.1,3.2-0.9,3.8-3.9,3.8
			c-21.2-0.1-42.3,0.1-63.5-0.2c-4.1,0-4.9,1.2-4.8,5c0.2,11.5,0.3,23,0,34.5c-0.1,4.2,0.7,5.6,5.3,5.5c25.2-0.3,50.3,0,75.5-0.2
			c3.9,0,5.1,1,4.9,4.9c-0.3,6.8-0.2,13.7,0,20.5c0,2.5-0.3,3.8-3.4,3.8c-37.3-0.1-74.7-0.1-112,0c-3.9,0-3.3-2.1-3.3-4.3
			C1767.7,295,1767.7,267.8,1767.7,240.7z"/>
		<path class="st0" d="M1622.7,240.4c0-26.8,0.1-53.7-0.1-80.5c0-3.7,0.7-4.7,4.6-4.7c35.8,0.2,71.7,0.1,107.5,0
			c3.3,0,4.7,0.5,4.5,4.2c-0.3,7-0.3,14,0,21c0.2,3.5-1.2,4-4.2,4c-24.8-0.1-49.7,0-74.5-0.1c-3.6,0-4.8,0.6-4.7,4.5
			c0.3,10.7,0.3,21.3,0,32c-0.1,3.8,0.8,5,4.8,5c20.8-0.2,41.7,0,62.5-0.2c4,0,5.1,1,4.9,5c-0.3,6-0.3,12,0,18c0.2,3.4-1,4.1-4.2,4
			c-21-0.1-42,0-63-0.1c-3.6,0-5.2,0.5-5.1,4.7c0.3,11.7,0.3,23.3,0,35c-0.1,4.1,0.8,5.3,5.1,5.2c25.2-0.2,50.3,0,75.5-0.2
			c4.2,0,5.4,1,5.2,5.2c-0.4,6.6-0.2,13.3,0,20c0.1,2.8-0.3,4.1-3.7,4.1c-37.2-0.1-74.3-0.1-111.5,0c-3.5,0-3.6-1.5-3.6-4.1
			C1622.8,295,1622.7,267.7,1622.7,240.4z"/>
		<path class="st0" d="M1952.7,843.3c0-39.7,0.1-79.3-0.1-119c0-4,1.1-4.9,5-4.9c12.8,0.2,25.7,0.3,38.5,0c4.1-0.1,4.8,1.3,4.8,5
			c-0.1,79.5-0.1,158.9,0,238.4c0,3.9-1.1,4.6-4.7,4.5c-13-0.2-26-0.3-39,0c-3.8,0.1-4.6-1-4.6-4.6
			C1952.8,922.9,1952.7,883.1,1952.7,843.3z"/>
		<path class="st0" d="M1442.9,241.4c0,26.8-0.1,53.6,0.1,80.4c0,3.7-0.7,4.8-4.6,4.6c-8.3-0.3-16.7-0.2-25-0.1
			c-2.6,0-3.7-0.3-3.7-3.4c0.1-54.8,0.1-109.6,0-164.4c0-3.2,1.3-3.4,3.8-3.4c8.5,0.1,17,0.2,25.5,0c3.5-0.1,4,1.1,4,4.2
			C1442.8,186.8,1442.9,214.1,1442.9,241.4z"/>
		<path class="st0" d="M2290.1,300.8c5.7-10.8,11.2-21.1,16.6-31.4c1.2-2.2,11.3-4.1,12.8-2.3c0.6,0.8,0.5,2.2,0.5,3.3
			c0,17.5-0.1,35,0.1,52.4c0,3-1,3.5-3.7,3.5c-7.8,0-7.8,0.1-7.8-7.8c0-9.9,0-19.8-0.9-30.1c-4.2,7.9-8.5,15.9-12.6,23.8
			c-1.2,2.3-1.9,4.2-5.3,4.1c-3.2-0.1-3.8-2.1-4.8-4.1c-4.2-8-8.4-16-13.6-23.9c0,8.3,0,16.7,0,25c0,2.2-0.3,4.4,0.1,6.5
			c0.8,5.3-1.3,6.7-6.4,6.4c-3.6-0.2-5.1-0.7-5-4.8c0.3-16.6,0.2-33.3,0-49.9c0-3.7,0.6-5,4.8-5.2c5.9-0.3,8.8,1.8,11.2,7
			C2280.2,282.7,2285.2,291.5,2290.1,300.8z"/>
		<path class="st0" d="M2732.4,295.8c8.6,4.6,11.7,10.1,10.4,17.9c-1,6.2-6,10.8-14.2,12c-10.4,1.6-20.9,0.3-31.4,0.7
			c-2,0.1-2-1.2-2-2.6c0-18,0-36,0-54c0-2.5,0.9-3.1,3.2-3.1c9,0.1,18-0.1,27,0.1c7.3,0.1,12,3.5,14.2,9.7
			c2.2,6.3,0.4,13.3-4.8,17.7C2734.1,294.6,2733.4,295.1,2732.4,295.8z M2716.9,300.6c-10.5,0-10.5,0-10.5,10.7c0,1,0.1,2,0,3
			c-0.1,1.6,0.5,2.4,2.3,2.4c5.3-0.1,10.6,0.1,15.9-0.3c4.4-0.3,7.2-4,6.9-8.2c-0.3-4.4-3.2-7.4-7.7-7.6
			C2721.5,300.5,2719.2,300.6,2716.9,300.6z M2715.7,276.5c-9.3,0-9.3,0-9.3,9.3c0,0.7,0.1,1.3,0,2c-0.4,2.9,0.4,4.3,3.7,4
			c3.6-0.3,7.3,0,11-0.1c5.5-0.1,8.2-2.8,8.1-7.8c-0.1-4.9-2.7-7.3-8-7.4C2719.3,276.5,2717.5,276.5,2715.7,276.5z"/>
		<path class="st0" d="M2221.3,326.6c-16-0.1-28.8-13.5-28.7-30.1c0.1-16.7,13.3-30.2,29.4-30.1c15.6,0.1,28.6,14.1,28.4,30.6
			C2250.3,313.6,2237.4,326.8,2221.3,326.6z M2239,297c0.3-8.1-4.1-16-10.5-19c-6.1-2.9-13.5-1.7-18.5,3c-8.8,8.2-7.9,25.1,1.7,32.4
			c2,1.5,4.2,2.6,6.8,2.9C2229.8,318,2238.6,309.8,2239,297z"/>
		<path class="st0" d="M2056,287.2c-0.4,5.7,0.8,12.5-0.8,19.3c-3.5,14.7-13.2,21.4-29.1,19.9c-11.8-1.1-20.8-11-21.4-24.3
			c-0.5-10.6-0.3-21.3-0.6-31.9c-0.1-3,1-3.9,3.7-3.5c0.2,0,0.3,0,0.5,0c7.4-0.1,7.4-0.1,7.5,7.2c0,9-0.2,18,0.1,27
			c0.4,11,7.5,17.2,17.3,15.5c6.6-1.2,11.3-7.4,11.4-16.1c0.2-9.6,0.3-19.3,0-29c-0.1-3.8,0.9-4.8,4.7-4.7c6.7,0.3,6.7,0.1,6.7,6.5
			C2056,277.5,2056,281.8,2056,287.2z"/>
		<path class="st0" d="M1975.2,326.8c-8.5,0.2-16.5-1.6-23.9-5.8c-1.9-1.1-2.8-2.1-1.3-4.2c0.8-1.2,1.5-2.6,2-4
			c1-2.7,2.3-2.9,4.7-1.3c6.4,4,13.2,6.1,20.9,4.9c3.1-0.5,5.4-1.9,5.9-5.2c0.4-3.1-1.4-5.3-4-6.3c-4.6-1.8-9.5-3.1-14.2-4.6
			c-11.9-3.7-16.3-10.7-13.4-21.1c2.1-7.3,9.9-12.5,19.5-12.9c6.8-0.3,13.1,1.6,19.1,4.8c2.1,1.1,2.9,2,1.6,4.5
			c-3.1,6-3,6.1-8.8,3.3c-4.3-2-8.8-3.1-13.6-2.5c-3.4,0.4-6.2,1.9-6.7,5.6c-0.6,3.8,1.7,6,5,7.1c5,1.7,10.2,2.9,15.2,4.7
			c9.1,3.1,13.5,9.1,12.6,16.8c-1,8.7-6.8,14.4-16.1,15.7C1978.2,326.6,1976.7,326.7,1975.2,326.8z"/>
		<path class="st0" d="M2371.4,326.8c-6.8-0.2-13.1-2.2-19.1-5.3c-2.6-1.3-4-2.7-1.9-5.5c0.7-0.9,1.1-2,1.5-3.1
			c1.1-3.2,2.7-2.8,5.1-1.2c5.1,3.3,10.8,5.1,17,5c4-0.1,8.6-0.2,9.3-5.4c0.7-4.9-3.4-6.4-7-7.7c-5.2-1.8-10.5-3.2-15.6-5.1
			c-5.6-2.1-9.2-6-9.5-12.2c-0.3-6.4,1.5-11.9,7-15.7c10.4-7.2,24.1-4.5,33.5,1.2c2,1.2,1.1,2.4,0.3,3.7c-1.2,2-2,4.7-3.7,5.7
			c-1,0.6-3.5-1.6-5.4-2.5c-4-1.7-8.2-2.8-12.6-2.3c-3.6,0.4-6.6,1.6-7.3,5.6c-0.7,4,1.8,6.2,5.3,7.3c5,1.6,10.2,3,15.2,4.7
			c8.6,3,12.8,8.6,12.3,16.1c-0.5,8.3-5.3,13.8-14,15.9C2378.3,326.8,2374.9,327.1,2371.4,326.8z"/>
		<path class="st0" d="M2518.8,289c0-6.7,0.1-13.2-0.1-19.6c-0.1-3,0.4-4.8,4-4.2c1.1,0.2,2.4,0.2,3.5,0c3.2-0.5,3.8,0.8,3.8,3.8
			c-0.2,13.3,0.3,26.6-0.3,39.9c-0.2,4.6,3.3,7.8,2.7,12c-0.3,1.9,1.9,5.1-2.1,5.5c-3.5,0.3-7.2,0.6-9-3.4c-0.5-1-0.6-2.2-0.9-3.7
			c-4.4,5.4-9.8,8-16.6,7.6c-5.2-0.3-9.6-2.4-13.2-6.1c-8.3-8.8-8.2-24.9,0.4-33.7C2498.4,279.5,2508.3,280,2518.8,289z
			 M2518.8,305.2c0-8.4-4.8-14.2-11.7-14.1c-6.2,0.1-11.2,6-11.3,13.4c-0.1,7.6,5.4,13.5,12.3,13.3
			C2514.9,317.6,2518.8,313,2518.8,305.2z"/>
		<path class="st0" d="M2068.1,296.9c0-8.6,0.1-17.3-0.1-25.9c-0.1-3.1,0.6-4.5,4.1-4.3c7.6,0.4,15.3-0.1,22.9,0.5
			c10.3,0.8,17.5,10,17,20.9c-0.5,10.2-8.5,18.1-18.7,18.3c-3.3,0.1-6.7,0.3-10-0.1c-3.5-0.4-4.1,1.1-4,4.2
			c0.2,4.1-0.1,8.3,0.1,12.5c0.1,2.5-0.5,3.8-3.3,3.4c-1.5-0.2-3-0.2-4.5,0c-2.8,0.3-3.7-0.7-3.6-3.6
			C2068.3,314.2,2068.1,305.5,2068.1,296.9z M2079.4,286.3c0,9.9,0,9.9,10.1,9.9c1,0,2,0,3,0c3.7,0.2,5.9-1.7,7.2-4.9
			c3.4-7.9-1.2-14.7-9.9-14.7C2079.4,276.6,2079.4,276.6,2079.4,286.3z"/>
		<path class="st0" d="M2179.4,285.2c-6.4-8.1-13.8-10.6-21.4-7.4c-7.4,3.1-12.2,12.7-11,21.7c1.3,9.3,7.5,16.2,15.5,17.1
			c6,0.7,11.3-1,15-5.9c4.2-5.6,6.4,0.6,9.2,1.7c3.5,1.3,0.3,3.6-0.8,5c-8.2,10.4-25.5,12.5-37.1,4.6c-10.2-7-15.5-20.6-12.6-32.4
			c3.2-13.1,12.3-21.4,25.7-22.8c8.9-0.9,16.8,1.7,22.9,8.5c2.3,2.6,3.6,4.8-0.7,6.7C2182.6,282.6,2181.3,283.9,2179.4,285.2z"/>
		<path class="st0" d="M2940,290.3c5.2-6.6,10.9-9.1,17.8-8.5c6,0.6,9.9,3.9,11,9.8c2,10.9,0.5,21.9,0.9,32.9c0,1.2-0.4,1.6-1.6,1.9
			c-7.5,1.6-9.5,0.1-9.5-7.6c0-5.7,0-11.3,0-17c0-6.9-2.4-10.3-7.3-10.4c-5.3-0.1-11.1,5.3-11.2,10.6c-0.2,6.8-0.2,13.7,0,20.5
			c0.1,3.1-0.8,4.2-3.9,3.8c-1.6-0.2-3.3-0.2-5,0c-2,0.2-2.5-0.6-2.5-2.5c0.1-18.6,0.1-37.3,0-55.9c0-2.3,0.9-2.9,2.9-2.7
			c0.5,0.1,1,0,1.5,0c6.9,0,6.9,0,6.9,6.7C2940,277.5,2940,283.2,2940,290.3z"/>
		<path class="st0" d="M2581.2,315.9c-4.4,8.9-14.5,13-26,10.5c-9.5-2-16.2-10.3-16.9-20.9c-0.9-13.2,8.8-23.4,22.5-23.8
			c13.4-0.4,23.4,9.4,23.3,22.5c0,3-1,3.5-3.7,3.5c-8.8-0.2-17.7,0.1-26.5-0.1c-4.3-0.1-4.3,1.6-2.9,4.7c2.9,6.5,11,8.9,17.3,5.1
			C2574.4,313.6,2574.4,313.6,2581.2,315.9z M2561.4,300.7c2.8,0,5.6-0.1,8.4,0c2.5,0.1,3.3-0.6,2.5-3.1c-1.5-4.7-6.2-8.1-11.3-8
			c-4.9,0.1-9.4,3.5-10.7,8.1c-0.6,2.1-0.2,3.1,2.2,3C2555.4,300.7,2558.4,300.7,2561.4,300.7z"/>
		<path class="st0" d="M2810.4,320.2c-3.8,3.6-8.1,6.4-13.7,6.8c-9.1,0.7-16.3-4.9-16.9-13.1c-0.5-7.2,6.3-13.8,15.4-14.5
			c3.5-0.3,7-0.5,10.4,0.7c3.8,1.3,4.3-0.6,3.7-3.7c-1-4.2-3.6-6.5-8-7c-4.9-0.5-9.3,0.8-13.3,3.4c-2.1,1.3-3.2,0.7-3.6-1.3
			c-0.4-1.7-3.7-3.5-0.2-5.4c8.9-4.8,18.2-6.2,27.7-1.9c5.7,2.6,8,7.7,8.4,13.7c0.2,2.5,0.4,5.1,0,7.5c-1.1,5.6,2,10.4,2.5,15.6
			c0.2,1.7,2,5.1-1.8,5.5c-3.7,0.4-7.9,1.1-9.5-4C2811.4,321.7,2811.7,320.7,2810.4,320.2z M2800.1,305.3c-0.9,0.1-2.6,0.1-4.1,0.6
			c-3.3,1.2-6,3.3-5.4,7.3c0.6,4,3.4,5.5,7.1,5.8c3.3,0.3,6.2-0.8,8.9-2.7c2.9-2,3.6-4.8,2.9-7.9c-0.7-3.2-3.8-2.4-6.1-3
			C2802.5,305.3,2801.7,305.4,2800.1,305.3z"/>
		<path class="st0" d="M2466.1,318.4c-4.5,5.2-9.2,7.9-15.1,8.5c-9.5,1-15.7-3.6-16.2-13.2c-0.5-9.6-0.1-19.3-0.2-28.9
			c0-2.1,0.8-2.3,2.6-2.5c8.5-0.6,8.5-0.7,8.5,8c0,5.8,0,11.6,0,17.5c0.1,6.7,2.3,9.8,7.2,9.9c5.9,0.2,11.4-4.9,11.5-10.7
			c0.1-7,0.2-14-0.1-21c-0.1-3.2,0.9-3.8,3.9-3.8c7.1,0.1,7.1,0,7.1,7.1c0,5.3,0.6,10.7-0.1,16c-0.8,5.8,2.4,10.7,2.6,16.1
			c0.1,1.6,1.8,4.7-1.8,5.1c-3.7,0.4-7.5,0.7-9.3-3.7C2466.3,321.8,2466.4,320.6,2466.1,318.4z"/>
		<path class="st0" d="M2601.7,289.5c4.6-5.9,10.9-8.1,18.1-7.7c6.2,0.3,10.1,3.8,11.2,10.1c1.8,10.7,0.4,21.6,0.9,32.4
			c0.1,1.9-0.9,2-2.4,2.1c-8.7,0.8-8.7,0.8-8.7-7.9c0-5.5,0-11,0-16.5c0-7.2-2.2-10.5-7-10.6c-5.8-0.1-11.5,5.4-11.6,11.3
			c-0.1,6.7-0.2,13.3,0,20c0.1,2.8-0.7,3.6-3.5,3.6c-7.8,0-7.8,0.1-7.8-7.8c0-10.8,0.2-21.6-0.1-32.5c-0.1-3.6,1.4-4.4,4.3-3.8
			c2.3,0.5,6.6-2.2,6,3.5C2600.8,287,2600.2,288.5,2601.7,289.5z"/>
		<path class="st0" d="M2840.9,290.3c5.3-6.5,11.4-8.9,18.5-8.6c6.3,0.3,10.3,3.7,11.5,9.8c2,10.9,0.5,21.9,0.9,32.9
			c0.1,1.6-0.7,1.8-2.1,2c-8.4,1.1-9,0.6-9-7.5c0-5.7,0-11.3,0-17c0-7.1-2.3-10.4-7.2-10.4c-5.6,0-11.3,5.4-11.4,11
			c-0.1,6.5-0.2,13,0,19.5c0.1,3.3-0.5,4.6-4.2,4.5c-7.1-0.3-7.1,0-7.1-7c0-11,0.2-22-0.1-33c-0.1-3.7,1.1-4.6,4.5-4.2
			c2.8,0.3,6.8-1.3,5.8,4.2C2840.7,287.5,2840.9,288.4,2840.9,290.3z"/>
		<path class="st0" d="M2921.9,315.8c-4.9,9.4-15.3,13.4-26.3,10.5c-10-2.6-16.9-12.3-16.3-22.8c0.6-10.2,6.1-17.5,15.3-20.6
			c8.8-2.9,19.2-0.3,24.8,5.9c2.5,2.7,2.8,4.3-1.4,5.4c-3.7,1-7,2.2-10.2-1.5c-1.5-1.7-4.2-1.8-6.6-1.5c-4.9,0.5-8.9,4-10.1,9
			c-1.6,6.3,0.7,13.1,5.4,16c4.3,2.7,9.1,2.1,13.6-1.9c1.4-1.2,2.5-1.4,4-0.9C2916.6,314.1,2919.1,314.9,2921.9,315.8z"/>
		<path class="st0" d="M2644.6,305.6c0-2.8,0-5.7,0-8.5c0-3.1,1.1-6.5-4.5-6.4c-3,0-0.9-3.8-1.4-5.9c-0.5-1.9,0.5-2.8,2.5-2.5
			c3.6,0.7,3.7-1.5,3.5-4.1c-0.1-1.5,0.2-3-0.1-4.5c-0.7-4.4,0.9-5.7,5.5-5.8c5-0.1,6.5,1.5,5.7,6.1c-0.2,1.1,0.1,2.3-0.1,3.5
			c-0.6,3.9,0.8,5.5,4.8,4.8c3.3-0.6,4.5,0.4,4.5,4.1c0,3.8-1.1,5.2-4.8,4.5c-3.7-0.7-4.9,0.7-4.6,4.5c0.4,5.3,0.1,10.6,0.1,16
			c0,4.9,1.7,6.3,6.5,5c2.8-0.8,4.2-0.5,4.7,2.6c0.4,2.7,2.2,5.4-2.3,6.4c-2.8,0.6-5.5,1.5-8.3,1.5c-7.9,0.1-11.6-3.6-11.7-11.4
			C2644.6,312.2,2644.6,308.9,2644.6,305.6z"/>
		<path class="st0" d="M2405.7,305.6c0-2.8,0-5.7,0-8.5c0-3.1,1.1-6.5-4.5-6.4c-3,0-0.9-3.8-1.4-5.9c-0.5-1.9,0.5-2.8,2.4-2.5
			c3.5,0.6,3.7-1.4,3.5-4.1c-0.1-1.5,0.2-3-0.1-4.5c-0.7-4.4,0.8-5.7,5.5-5.8c4.9-0.1,6.5,1.4,5.7,6c-0.2,1,0.1,2,0,3
			c-0.7,4.2,0.7,6.2,5.2,5.3c3.4-0.7,4.1,0.9,4,4.1c-0.1,3.1-0.3,5.3-4.2,4.6c-4-0.8-5.5,0.6-5.2,4.9c0.4,5.1,0.1,10.3,0.1,15.4
			c0,4.9,1.6,6.3,6.4,5.1c2.8-0.7,4.2-0.5,4.8,2.6c0.5,2.7,2.2,5.4-2.4,6.4c-2.8,0.6-5.5,1.5-8.3,1.5c-7.9,0.1-11.6-3.6-11.7-11.4
			C2405.6,312.2,2405.7,308.9,2405.7,305.6z"/>
		<path class="st0" d="M2761.7,290.3c2.6-2.7,4.9-5.7,8.5-7.3c2.1-0.9,4.9-1.8,6-0.5c1.7,1.9,0.6,5.1,0.6,7.7c0,2.5-2.4,1.8-3.8,2.1
			c-8.2,1.6-11,4.9-11,13.1c0,5.8-0.2,11.7,0.1,17.5c0.1,2.9-0.9,3.5-3.6,3.5c-7.7,0-7.7,0.1-7.7-7.4c0-10.6,0.1-21.3-0.1-31.9
			c0-3.2,0-5.5,4.3-4.8c3,0.5,7-1.1,6.1,4.6C2760.9,287.8,2760.5,289.1,2761.7,290.3z"/>
		<path class="st0" d="M2129.4,271.2c0.5,4.5-1.3,8.4-2.3,12.6c-0.5,2-1.6,2.1-3.2,2.2c-2.6,0.1-4.3,0.3-3.6-3.6
			c0.4-2.1,3.5-5.6-1.7-7.7c-1.6-0.6-0.8-6.1-0.1-9.4c0.2-0.8,9.5-1.1,10.1-0.3C2130.2,266.9,2129,269.2,2129.4,271.2z"/>
		<path class="st0" d="M855.9,943.9c0,13-0.2,24.9,0.1,36.8c0.1,4.4-1.7,4.6-5.2,4.7c-3.7,0.1-5.1-0.6-5.1-4.8
			c0.3-16.3,0.2-32.6,0-49c0-3.5,0.9-4.5,4.4-4.4c9.7,0.2,10.6,1.1,15.8,14.2c3,7.5,6.9,14.6,10.9,23c4-8.1,7.6-15.2,11-22.3
			c1.2-2.5,2.2-5.1,3.4-7.6c3.6-7.4,6.6-8.7,14.7-7.3c1.9,0.3,2,1.3,2,2.7c0,17.5-0.1,35,0,52.5c0,4.7-3.3,2.6-5.3,2.8
			c-1.9,0.1-4.9,1.4-4.8-2.8c0.2-10.3,0.1-20.7,0.1-31c0-2.1,0-4.2,0-7.4c-6.5,10.8-10.3,21.7-15.7,31.8c-1.3,2.5-2.5,3.6-5.5,3.6
			c-2.8,0-3.9-1.1-5-3.4C866.6,965.6,862.3,954.9,855.9,943.9z"/>
		<path class="st0" d="M810.9,960.2c0-6.8-0.1-13.7,0.1-20.5c0.1-2.9-0.9-3.8-3.7-3.6c-2.6,0.2-5.4-0.2-8,0.1
			c-4.3,0.5-5.9-0.8-5.5-5.3c0.2-3.2,1.1-3.8,4-3.8c12.5,0.2,25,0.3,37.5,0c4.1-0.1,3.7,2,3.7,4.6c0,2.6,0.4,4.9-3.7,4.6
			c-4.3-0.3-10-1.9-12.5,0.7c-2.7,2.8-0.8,8.5-0.8,13c-0.1,10.3-0.1,20.7,0,31c0,3-0.3,4.5-3.9,4.4c-7.1-0.2-7.1,0-7.1-7.1
			C810.9,972.2,810.9,966.2,810.9,960.2z"/>
	</g>
</g>
</svg>
