<?xml version="1.0" encoding="utf-8"?>
<!-- Generator: Adobe Illustrator 25.2.0, SVG Export Plug-In . SVG Version: 6.00 Build 0)  -->
<svg version="1.1" id="Layer_1" xmlns="http://www.w3.org/2000/svg" xmlns:xlink="http://www.w3.org/1999/xlink" x="0px" y="0px"
	 viewBox="0 0 1411.7 1414.07" style="enable-background:new 0 0 1411.7 1414.07;" xml:space="preserve">
<style type="text/css">
	.st0{fill:#F9F9F9;}
</style>
<g>
	<g>
		<path class="st0" d="M503.42,865.54c6.18-4.65,12.47-9.17,18.54-13.97c85.45-67.61,170.89-135.23,256.22-202.99
			c2.67-2.12,4.78-5.51,6.03-8.75c11.17-28.86,21.28-58.16,33.32-86.65c12.84-30.38,29.72-58.55,53.55-81.9
			c10.93-10.71,23.12-19.65,38.48-23.1c21.3-4.79,38.03,8.33,38.64,30.1c0.45,16.14-5.64,30.32-13.24,43.93
			c-11.4,20.4-26.79,37.71-43.43,53.89c-16.24,15.8-32.93,31.14-49.11,46.99c-2.76,2.71-4.91,6.77-5.78,10.56
			c-10.86,47.53-21.26,95.17-35.96,141.72c-9.03,28.62-19.35,56.74-34.83,82.66c-1.43,2.39-2.86,4.78-3.52,7.9
			c1.24-1.16,2.5-2.3,3.73-3.47c36.22-34.44,72.24-69.09,108.85-103.11c5.97-5.54,5.4-12.47,8.22-18.59
			c0.48-1.04,0.52-2.28,0.95-3.35c3.4-8.56,1.88-15.39-6.38-20.48c-5.63-3.47-6.54-9.61-6.26-15.43c0.35-7.09,1.8-14.12,2.76-21.17
			c1.37-10.05,2.62-20.11,4.14-30.13c0.54-3.58,1.88-7.03,2.56-10.59c0.37-1.92-0.02-3.97,0.22-5.93c0.25-2.14,0.34-4.54,1.39-6.28
			c1.52-2.53,4.01-4.45,5.78-6.85c2.4-3.27,1.63-6.3-1.89-7.87c3.12-5.48,9.22-10.49,3.46-18.38c0.9-1.05,2.01-2.7,3.47-3.95
			c3.83-3.3,6.46-6.65,7.37-12.27c1.85-11.53,13.32-17.26,24.24-13.26c13.76,5.04,16.39,9.01,15.97,24.01
			c-0.04,1.31-0.35,3.38,0.31,3.83c5.07,3.38,3.53,8.58,4.61,13.24c0.89,3.82,4.81,6.94,7.52,10.54c-0.16,0.13-1.27,1.02-3.05,2.45
			c2.22,0.68,3.66,1.11,3.84,1.17c0.57,1.5,0.63,2.58,1.15,2.89c5.87,3.49,8.1,9.01,8.63,15.41c0.74,8.96,1.28,17.93,2.01,26.89
			c0.15,1.79,0.77,3.54,1.28,5.81c1.27-0.78,2.33-1.18,3.08-1.91c49.24-48.09,95.35-98.78,130.93-158.16
			c14.09-23.5,26.22-47.95,32.33-74.9c2.7-11.94,3.42-24.03,0.85-36.16c-2.2-10.36-7.78-17.51-18.54-19.85
			c-0.8-0.17-1.57-0.56-2.3-0.93c-0.43-0.22-0.76-0.61-1.45-1.18c3.75-4.61,8.95-4.5,13.69-4.33c29.14,1.02,43.05,22.23,46.12,45.14
			c3.24,24.19-5.26,45.68-15.46,66.58c-17.18,35.18-41.28,65.62-67.02,94.79c-36.01,40.81-75.94,77.6-116.55,113.74
			c-4.21,3.74-5.41,10.75-8.4,16.03c-1.25,2.21-3.26,4.27-5.41,5.62c-2.9,1.82-5.73,7.9-5.2,11.43c1.49,9.86,3.33,19.73,3.83,29.66
			c0.87,17.42,0.51,34.9,1.34,52.32c0.35,7.3,2.44,14.52,3.68,21.78c1.72,10.06,4,20.08,4.92,30.21
			c1.07,11.76,0.92,23.63,1.32,35.45c0.04,1.14-0.2,2.68,0.43,3.34c3.51,3.67,2.79,6.46,0.35,10.87c-1.49,2.7,0.47,8.2,2.34,11.65
			c2.57,4.73,6.61,8.64,9.83,13.04c1.18,1.61,1.84,3.62,2.73,5.44c-1.78,0.56-3.53,1.21-5.33,1.66c-6.54,1.64-12.16-1.72-17.66-4.12
			c-1.65-0.72-1.97-5.47-2.11-8.41c-0.26-5.76,0.06-11.54,0.07-17.31c0-0.61-0.25-1.59-0.67-1.79c-5.46-2.56-4.81-6.61-3.3-11.32
			c0.54-1.67,0.01-4.11-0.87-5.74c-6.59-12.19-7.11-25.8-9.6-38.98c-1.38-7.31-3.95-14.38-5.72-21.62
			c-2.09-8.54-3.75-17.18-5.84-25.71c-2.95-12.07-6.09-24.09-9.21-36.12c-1-3.85-1.97-7.72-3.39-11.42
			c-0.49-1.28-2.31-2.05-3.53-3.05c-0.88,1.12-2.06,2.11-2.58,3.38c-0.89,2.13-1.48,4.41-2,6.67c-4.36,18.91-8.67,37.83-13.03,56.73
			c-0.26,1.12-0.79,2.17-1.15,3.27c-1.61,4.85-3.24,9.69-4.78,14.56c-0.88,2.77-1.85,5.54-2.38,8.39c-0.73,3.97-0.98,8.01-1.59,12
			c-1.04,6.79-2.09,13.59-3.34,20.35c-1.44,7.79-2.98,15.57-4.74,23.3c-0.65,2.85-2.75,5.48-2.96,8.3
			c-0.45,6.16-0.16,12.38-0.1,18.57c0.08,8.15-2.05,10.3-10.36,10.14c-1.99-0.04-4.04-0.11-5.93-0.64c-1.78-0.5-3.39-1.63-5.07-2.48
			c0.93-1.68,1.46-3.85,2.84-4.95c6.87-5.45,6.68-13.77,8.92-21.08c0.26-0.85,0.02-2.13-0.47-2.9c-6.64-10.47-3.24-21.94-2.89-32.93
			c0.36-11.23,1.89-22.46,3.5-33.6c0.74-5.14,2.97-10.06,4.42-15.11c1.59-5.53,4.01-11.04,4.37-16.66c0.7-10.74,0.2-21.55,0.2-33.67
			c-2.56,2.07-4.23,3.29-5.75,4.67c-52.74,48.02-104.77,96.77-154.56,147.86c-6.83,7.01-14.63,12.65-24.58,14.46
			c-4.36,0.79-8.86,1.1-12.05-2.69c-3.23-3.85-2.3-8.34-0.21-12.25c3.44-6.45,7.51-12.56,11.11-18.93
			c14.09-24.91,24.36-51.48,32.91-78.66c12.38-39.36,23.92-78.99,36-118.45c4.33-14.16,9.21-28.14,13.82-42.22
			c0.34-1.04,0.5-2.14,1.01-4.35c-1.91,1.26-3,1.83-3.91,2.6c-66.11,56.28-134.15,110.18-203.13,162.88
			c-49.64,37.92-99.65,75.36-149.59,112.88c-6.08,4.57-12.43,8.85-20.83,8.35c-8.73-0.52-13.43-6.38-10.04-14.5
			c2.13-5.1,5.46-9.95,9.15-14.11c46.78-52.81,90.95-107.67,130.88-165.86c34.72-50.6,67.06-102.63,92.74-158.53
			c12.89-28.06,23.91-56.8,29.18-87.39c3.28-19.02,4.15-38.13-2.13-56.81c-7.93-23.58-24.6-37.59-48.66-42.52
			c-25.47-5.22-50.47-1.16-74.85,6.33c-55.68,17.1-104.47,46.14-144.66,88.33c-32.73,34.37-56.9,74.21-68.55,120.77
			c-4.69,18.73-6.21,37.67-2.09,56.89c7.38,34.43,34.23,46.49,63.62,42.41c25.31-3.51,46.2-16.57,65.54-32.21
			c33.54-27.12,61.49-59,80.88-97.87c7.08-14.18,13.48-28.63,16.26-44.39c2.53-14.4,1.41-28.22-6.6-40.92
			c-0.36-0.56-0.89-1.1-1.01-1.71c-0.3-1.52-0.4-3.08-0.59-4.62c1.66,0.23,3.83-0.12,4.87,0.81c2.95,2.63,5.96,5.45,8.01,8.78
			c8.31,13.44,10.07,28.28,8.82,43.75c-2.99,37.01-19.82,68.23-41.79,96.78c-28.1,36.5-64.15,62.78-107.95,77.61
			c-25.63,8.68-51.54,9.11-76.48-2.51c-24.8-11.56-36.5-32.57-39.54-58.97c-3.52-30.62,4.97-58.8,18.52-85.66
			c26.66-52.84,66.25-94.29,114.58-127.73c33.1-22.9,68.69-40.73,107.72-51.19c38.96-10.45,77.98-11.53,116.74,0.7
			c26.73,8.44,48.3,23.77,61.2,49.49c7.44,14.84,10.31,30.75,11.26,47.23c1.89,32.82-7.84,62.77-21.89,91.72
			c-25.72,52.98-58.62,101.47-93.42,148.74c-27.97,37.99-57.58,74.65-89.21,109.66c-2.21,2.44-4.46,4.84-6.69,7.26
			C502.77,864.73,503.09,865.14,503.42,865.54z M842.07,601.94c0.38,0.22,0.77,0.44,1.15,0.66c5.43-5.05,10.87-10.09,16.3-15.14
			c19.89-18.48,39.87-36.89,55.77-59.12c9.57-13.37,17.97-27.4,19.49-44.25c0.78-8.64-1.09-16.95-9.18-21.8
			c-7.88-4.73-15.7-2.88-22.89,2.24c-1.89,1.35-3.73,2.81-5.41,4.41c-10.44,9.93-18.26,21.8-23.19,35.17
			c-8.79,23.85-16.88,47.97-24.96,72.07C846.33,584.61,844.41,593.35,842.07,601.94z M889.31,707.26
			c9.31-9.87,11.43-27.04,3.49-31.77C892.57,686.25,882.99,695.48,889.31,707.26z M945.66,691.91c9.5-7.19,9.47-7.18,6.01-16.84
			c-0.83-2.32-1.38-4.75-2.18-7.08c-0.31-0.91-0.97-1.71-2.14-3.71C946.74,674.11,946.23,682.5,945.66,691.91z"/>
		<path class="st0" d="M1164.66,880.66c1.67,2.44,3.22,4.25,4.22,6.33c0.6,1.23,1,3.25,0.4,4.27
			c-32.57,55.71-92.94,66.85-139.89,32.19c-27.24-20.1-40.88-48.47-44.27-81.87c-3.38-33.22,3.9-63.97,22.67-91.61
			c17.04-25.1,40.28-40.81,71.31-41.69c36.54-1.04,62.3,17.03,79.73,48.09c8.89,15.83,12.75,33.12,13.77,51.15
			c0.15,2.72-0.96,3.63-3.42,3.6c-1.5-0.02-3,0.01-4.5,0.01c-42.99,0-85.98,0-128.98,0c-8.38,0-8.46,0.01-8.23,8.13
			c0.67,23.83,4.07,47.12,14.54,68.86c9.4,19.5,23.69,33.13,46.19,35.16c18.33,1.66,35.17-3.77,49.55-14.94
			c8.32-6.46,15.19-14.79,22.67-22.33C1161.57,884.86,1162.45,883.48,1164.66,880.66z M1079.04,794.18
			c14.98,0,29.95-0.13,44.93,0.08c4.31,0.06,6.04-1.44,6.01-5.71c-0.11-14.48-2.35-28.47-9.13-41.47
			c-8.91-17.09-25.65-25.88-44.53-23.65c-16.16,1.91-26.93,11.35-34.81,24.72c-7.41,12.57-10.48,26.46-12.02,40.83
			c-0.43,4.02,0.51,5.33,4.61,5.28C1049.09,794.07,1064.07,794.18,1079.04,794.18z"/>
		<path class="st0" d="M200.01,448.62c1.73,2.36,2.56,3.69,3.58,4.86c12.18,13.9,24.43,27.74,36.52,41.71
			c1.15,1.33,1.39,3.44,2.06,5.18c-1.81,0.32-3.68,1.09-5.43,0.89c-26.95-3.02-53.88-6.2-80.82-9.27
			c-5.15-0.59-10.21-0.57-12.57,5.86c-0.5-0.12-1-0.24-1.51-0.36c-0.26-1.73-1.23-3.76-0.66-5.15c2.82-6.93,5.96-13.73,9.23-20.46
			c0.47-0.96,2.23-1.28,3.4-1.9c0.29,1.27,1.13,2.71,0.79,3.77c-1.34,4.09,0.25,6.17,4.18,6.62c20.83,2.38,41.66,4.69,62.5,6.97
			c1.06,0.12,2.17-0.33,4.4-0.72c-3.35-3.86-6.08-7.09-8.91-10.24c-6.79-7.56-13.72-14.98-20.39-22.64
			c-3.72-4.28-7.57-7.92-13.75-7.74c-1.3,0.04-2.61-0.52-3.92-0.72c-8.88-1.35-8.88-1.34-15.28,6.36c-0.49-2.73-1.52-4.7-0.98-6.05
			c2.58-6.48,5.48-12.85,8.54-19.13c0.64-1.31,2.4-2.08,3.88-3.3c0.7,1.47,1,1.78,0.96,2.05c-1.06,7.46-1.11,7.75,6.71,8.88
			c18.93,2.73,37.91,5.18,56.87,7.69c1.69,0.22,3.44,0.03,6.61,0.03c-4.04-4.71-6.98-8.41-10.21-11.85
			c-11.29-12.01-22.67-23.93-34.04-35.87c-1.03-1.08-2.23-1.99-3.32-3.02c-2.8-2.66-5-2.71-6.97,1.08
			c-0.69,1.32-2.43,2.09-3.69,3.11c-0.19-1.89-1.06-4.05-0.44-5.62c2.2-5.56,4.8-10.97,7.51-16.31c0.58-1.15,2.24-1.76,3.41-2.62
			c0.36,1.22,0.73,2.44,1.08,3.66c0.88,3.06,0.91,6.8,2.77,9.06c9.82,11.96,20.06,23.57,30.22,35.25
			c9.07,10.42,18.28,20.72,27.27,31.2c1.26,1.47,1.65,3.69,2.44,5.56c-2.03,0.21-4.12,0.84-6.08,0.57
			c-16.65-2.24-33.28-4.65-49.91-6.98C204.51,448.81,202.94,448.81,200.01,448.62z"/>
		<path class="st0" d="M197.24,643.02c-0.89-1.32-2.39-2.57-2.53-3.97c-0.37-3.47-1.94-5.5-5.26-6.39
			c-23.12-6.19-46.25-12.37-69.35-18.64c-3.17-0.86-4.43,0.75-5.84,3.15c-0.93,1.57-2.72,2.64-4.13,3.93
			c-0.33-2.02-1.3-4.17-0.9-6.03c3.79-17.72,7.78-35.4,11.78-53.07c1.3-5.73,1.93-5.96,7.39-3.93c3.74,1.39,7.58,2.51,11.28,3.98
			c1.2,0.48,2.11,1.68,3.15,2.55c-1.32,0.65-2.59,1.56-3.98,1.87c-1.43,0.31-2.98,0.07-4.48,0c-5.46-0.26-9.04,2.36-10.36,7.49
			c-1.9,7.41-3.4,14.92-5.05,22.39c-0.76,3.41,0.73,5.43,4,6.29c9.33,2.44,18.63,5,28.03,7.16c1.2,0.28,3.9-1.28,4.19-2.42
			c1.96-7.73,3.51-15.56,5.08-23.38c0.81-4.04-0.6-7.03-4.32-9.17c-1.22-0.7-1.69-2.71-2.5-4.12c1.51,0.02,3.09-0.26,4.51,0.1
			c6.27,1.59,12.52,3.26,18.71,5.13c1.26,0.38,2.21,1.75,3.31,2.67c-1.17,0.61-2.3,1.65-3.51,1.75c-7.94,0.63-8.7,1.05-10.89,8.95
			c-1.64,5.93-2.9,11.96-4.41,17.93c-0.74,2.9-0.05,4.96,2.98,5.82c8.95,2.54,17.84,5.34,26.92,7.29c1.88,0.41,5.93-1.96,6.45-3.78
			c2.64-9.21,5.15-18.57,6.3-28.05c0.74-6.07-3.6-10.76-8.52-14.44c-1.22-0.91-1.78-2.71-2.64-4.1c1.63,0.07,3.43-0.29,4.88,0.26
			c15.83,5.98,15.88,6.35,12.12,22.38c-3.88,16.49-7.47,33.05-11.19,49.58C198.04,642.47,197.64,642.74,197.24,643.02z"/>
		<path class="st0" d="M187.52,724.23c-1.76-2.03-3.66-3.22-3.87-4.66c-0.49-3.44-2.22-5-5.43-5.44
			c-23.04-3.22-46.09-6.4-69.12-9.72c-4.13-0.6-6.63,0.45-7.89,4.69c-0.38,1.3-2.29,2.14-3.49,3.2c-0.51-1.42-1.6-2.9-1.44-4.25
			c1.26-10.9,2.86-21.77,4.13-32.67c0.86-7.43,1.46-14.9,2-22.36c0.47-6.51,0.93-6.9,6.99-5.42c4.97,1.21,9.98,2.21,14.98,3.31
			c0.22,0.46,0.43,0.93,0.65,1.39c-1.51,0.81-2.97,2.18-4.55,2.33c-10.99,1.05-13.13,2.89-14.54,13.75
			c-0.79,6.1-1.25,12.25-1.89,18.37c-0.37,3.53,1.39,5.36,4.69,5.79c9.4,1.23,18.82,2.35,28.22,3.56c2.89,0.37,4.41-0.75,4.67-3.69
			c0.69-7.79,1.43-15.57,2.13-23.35c0.36-4.03-1.57-6.53-5.14-8.23c-1.41-0.67-2.43-2.16-4.46-4.06c2.25-0.52,2.89-0.85,3.46-0.76
			c7.38,1.14,14.76,2.29,22.11,3.58c1.13,0.2,2.14,1.08,3.2,1.65c-0.97,0.91-1.79,2.32-2.94,2.66c-9.66,2.93-9.9,3.18-10.99,13.41
			c-0.53,4.96-1.08,9.93-1.82,14.86c-0.45,3.01,0.47,5.04,3.49,5.52c9.18,1.46,18.37,2.89,27.59,4.05c3.48,0.44,6.03-1.84,6.41-5.07
			c1.14-9.67,2.35-19.39,2.46-29.1c0.07-5.97-4.94-9.41-9.73-12.44c-1.25-0.79-1.9-2.54-2.82-3.85c1.52-0.08,3.17-0.6,4.54-0.17
			c4.28,1.33,8.43,3.06,12.66,4.55c2.81,0.99,3.77,2.84,3.44,5.77c-2.24,19.83-4.4,39.67-6.61,59.5
			C188.56,721.51,188.24,722.11,187.52,724.23z"/>
		<path class="st0" d="M671.8,121.23c0,7.16,0.17,14.33-0.2,21.48c-0.05,0.96-2.67,2.26-4.27,2.6
			c-17.72,3.72-35.47,7.31-53.23,10.81c-0.97,0.19-2.15-0.66-3.23-1.02c0.51-1.35,0.67-3.5,1.6-3.91c3.92-1.74,4.33-4.79,3.74-8.29
			c-4.12-24.59-8.35-49.16-12.41-73.76c-0.67-4.04-2.71-5.66-6.64-5.94c-1.3-0.09-2.5-1.48-3.74-2.28c1.21-1.02,2.3-2.67,3.66-2.96
			c15.29-3.2,30.62-6.18,45.95-9.22c3.35-0.67,6.69-1.35,10.55-2.13c0.87,8,1.65,15.2,2.44,22.4c-0.36,0.35-0.72,0.69-1.08,1.04
			c-1.04-0.9-2.4-1.62-3.04-2.75c-1.22-2.16-1.83-4.65-3.03-6.82c-2.33-4.22-5.8-6.17-10.8-5.08c-5.85,1.27-11.77,2.2-17.62,3.45
			c-6.12,1.32-7.01,2.97-5.85,9.15c1.65,8.82,3.32,17.65,4.62,26.53c0.66,4.53,2.6,6.09,7.03,4.98c5.64-1.41,11.33-2.66,17.01-3.9
			c5.12-1.11,8.46-3.55,8.34-9.42c-0.03-1.26,1.36-2.55,2.76-4.97c1.98,10.69,3.67,19.63,5.22,28.6c0.13,0.73-0.69,1.62-1.06,2.43
			c-0.92-0.47-2.15-0.71-2.72-1.45c-2.16-2.81-3.6-7.51-6.26-8.3c-3.97-1.18-8.76,0.22-13.17,0.78c-2.96,0.38-5.83,1.43-8.79,1.79
			c-4.45,0.55-6,2.83-5.25,7.15c1.54,8.84,2.96,17.7,4.44,26.55c0.76,4.53,3.53,7,8.02,6.25c7.67-1.27,15.41-2.55,22.83-4.78
			c6.27-1.88,9.19-7.27,10.4-13.57c0.38-1.95,1.12-3.84,1.69-5.75C670.4,121.02,671.1,121.13,671.8,121.23z"/>
		<path class="st0" d="M127.62,744.12c8.12,0,16.25-0.05,24.37,0.07c0.88,0.01,2.43,0.97,2.47,1.56c0.06,0.88-0.9,2.57-1.54,2.63
			c-11.31,1.02-10.25,9.29-10.25,17.05c0,4.16-0.19,8.32-0.38,12.48c-0.16,3.66,1.5,5.78,5.17,5.87c8.64,0.23,17.29,0.31,25.94,0.44
			c3.52,0.05,6.27-1.79,6.34-5.1c0.21-10.22,0.44-20.5-0.54-30.65c-0.52-5.41-5.76-8.17-10.55-10.51c-1.37-0.67-2.27-2.3-3.38-3.49
			c1.62-0.27,3.33-1.01,4.85-0.72c4.41,0.82,8.87,1.69,13.03,3.29c1.58,0.6,3.37,3.23,3.38,4.94c0.09,19.32-0.11,38.64-0.34,57.96
			c-0.02,1.42-0.87,2.83-1.33,4.24c-1.19-1.07-3.06-1.94-3.45-3.24c-0.94-3.12-2.85-4.27-5.83-4.41
			c-8.14-0.39-16.28-1.05-24.43-1.17c-15.14-0.23-30.29-0.11-45.44-0.22c-3.99-0.03-6.65,1.11-7.36,5.57
			c-0.21,1.29-2.07,2.32-3.18,3.47c-0.59-1.32-1.7-2.65-1.7-3.97c-0.08-18.99,0.04-37.97-0.03-56.96c-0.01-4.01,1.41-5.33,5.44-4.71
			c5.4,0.84,10.87,1.19,17.14,3c-1.41,0.97-2.7,2.46-4.25,2.82c-11.31,2.62-12.81,4.36-12.82,15.83c0,5.99,0.06,11.99,0,17.98
			c-0.03,3.28,1.37,4.97,4.73,5.02c9.65,0.15,19.3,0.51,28.95,0.36c1.43-0.02,4-2.36,4.03-3.68c0.2-8.3,0.2-16.65-0.58-24.9
			c-0.22-2.26-3.23-4.36-5.17-6.32c-1.24-1.26-2.88-2.13-4.33-3.18C126.92,745.01,127.27,744.56,127.62,744.12z"/>
		<path class="st0" d="M307.1,374.12c-0.65-2.57-1-4.06-1.42-5.53c-0.67-2.36-0.7-5.38-2.21-6.93c-6.74-6.9-13.92-13.37-20.92-20.01
			c-2.04-1.93-3.99-2.6-6.65-0.79c-0.64,0.44-3.69-0.98-3.7-1.55c-0.03-5.74,0.34-11.48,0.61-17.21c0.52-0.23,1.03-0.45,1.55-0.68
			c2.67,2.21,5.35,4.43,8.64,7.15c0.72-5.22,1.34-9.74,1.97-14.25c1.25-8.84,5.45-12.84,14.28-12.57c4.44,0.14,5.75-1.57,6.23-5.59
			c0.51-4.27,1.37-8.58,2.77-12.63c3.03-8.75,11.17-11.89,18.73-6.51c7.69,5.47,14.5,12.17,21.68,18.35
			c1.26,1.09,2.51,2.21,3.61,3.45c3.01,3.39,6.01,4.46,9.66,0.73c0.7-0.72,2.46-0.4,3.74-0.57c-0.11,1.35,0.26,3.04-0.41,4
			c-3.26,4.62-6.75,9.08-10.27,13.51c-0.52,0.65-1.96,1.39-2.35,1.14c-0.78-0.51-1.24-1.63-1.64-2.59c-0.73-1.77-0.8-4.11-2.03-5.32
			c-6.74-6.66-13.57-13.25-20.72-19.45c-3.5-3.03-7.83-5.74-12.72-2.78c-5.66,3.42-7.19,9.35-7.98,15.38
			c-0.14,1.09,1.3,2.62,2.34,3.59c7.19,6.69,14.53,13.23,21.7,19.94c2.37,2.22,4.44,2.65,6.81,0.21c2.11-2.18,3.96-2.19,5.44,1.05
			c-4.82,6.21-9.7,12.48-15.53,19.99c-0.61-2.33-1.61-3.95-1.23-5.11c1.17-3.56,0.03-6.05-2.5-8.45
			c-6.77-6.4-13.28-13.08-20.19-19.32c-4.18-3.77-8.89-3.22-12.87,0.73c-5.89,5.84-5.89,15.45,0.05,21.07
			c5.69,5.37,11.39,10.73,17.16,16.01c2.46,2.25,5.11,3.77,8.48,1.32c0.63-0.46,2.45-0.29,2.9,0.26c0.49,0.6,0.44,2.28-0.07,2.97
			C316.14,362.44,312.06,367.65,307.1,374.12z"/>
		<path class="st0" d="M759.28,150.11c-10.11-11.08-10.11-11.07,2.8-18.72c0.78-0.46,1.38-1.24,2.78-2.52
			c-7.41-3.14-11.3-8.54-12.9-15.82c-3.27-14.8,8.12-30.86,23.18-32.04c2.68-0.21,5.95,0.28,8.1,1.71
			c4.58,3.05,9.18,3.22,14.24,2.27c1.55-0.29,3.99-0.43,4.7,0.44c1.18,1.45,1.67,3.77,1.64,5.71c-0.01,0.68-2.39,1.71-3.78,1.88
			c-2.54,0.3-5.15,0.09-7.66,0.09c0.38,5.07,1.39,9.72,0.92,14.21c-1.11,10.54-7.43,17.47-16.9,21.72
			c-3.49,1.56-7.09,2.9-10.42,4.75c-3.52,1.95-3.43,4.37,0.18,6.11c1.72,0.83,3.81,0.98,5.76,1.19c4.29,0.47,8.66,0.44,12.89,1.21
			c11.6,2.11,16.37,12.73,10.6,23.16c-7.66,13.85-22.18,20.62-37.51,17.34c-6.4-1.37-11.7-4.44-13.07-11.4
			c-1.36-6.9,1.25-12.35,7.25-16.17C754.45,153.72,756.67,151.98,759.28,150.11z M772.32,150.57c-0.06,0.19-0.12,0.38-0.19,0.57
			c-2.48,0.21-5.07,0.04-7.43,0.69c-5.58,1.54-9.43,5.55-10.52,10.96c-0.54,2.68,0.91,6.75,2.9,8.78c8.14,8.33,25.6,5.8,31.59-4.14
			c3.27-5.42,1.89-11.26-3.94-13.78C780.87,151.98,776.48,151.55,772.32,150.57z M785.68,107.22c-1.29-4.48-1.96-9.74-4.26-14.16
			c-4.16-7.99-13.61-8.49-18.2-1.54c-5.66,8.58-1.69,25.5,7.21,30.76c4.9,2.9,10.27,1.49,12.42-3.75
			C784.21,115.24,784.64,111.55,785.68,107.22z"/>
		<path class="st0" d="M1112.7,315.06c0.14-1.39,0.26-1.73,0.2-2.03c-2.32-11.68-0.07-13.86,11.17-10.87
			c1.38,0.37,2.84,0.48,5.07,0.85c-0.6-2.35-1.04-4.02-1.46-5.7c-3.1-12.19,3.86-24.51,16.03-28.35
			c12.18-3.84,23.9,1.96,29.07,13.47c1.56,3.47,5.31,6.09,8.39,8.72c4.91,4.19,5.03,5.72-0.47,10.42c-2.79-2.58-5.64-5.22-8.86-8.2
			c-0.79,1.56-1.39,2.66-1.9,3.8c-5.94,13.15-18.2,18.26-31.83,13.28c-2.81-1.03-5.58-2.33-8.49-2.88
			c-1.87-0.36-3.96,0.42-5.94,0.68c0.54,1.95,0.58,4.31,1.74,5.78c2.45,3.12,5.57,5.71,8.27,8.66c1.9,2.07,3.87,4.19,5.29,6.59
			c5.58,9.45,1.34,19.86-9.17,22.91c-15.19,4.41-30.26-1.21-38.72-14.44c-4.28-6.7-4.34-15-0.07-19.52
			c3.32-3.51,7.37-4.94,12.21-4.23C1106.28,314.43,1109.36,314.69,1112.7,315.06z M1119.88,349.52c0.28,0.41,0.56,0.81,0.84,1.22
			c3.24-2.22,7.05-3.94,9.56-6.8c2.87-3.27,1.54-7.65-0.99-10.56c-4.2-4.83-8.72-9.57-13.85-13.35c-4.16-3.07-9.64-2.18-13.52,0.92
			c-2.18,1.74-3.88,5.61-3.74,8.43C1098.61,338.75,1110.58,349.4,1119.88,349.52z M1153.16,272.33c-0.38,0.05-1.22,0.08-2.03,0.25
			c-10.85,2.35-18.49,22.7-11.79,31.55c2.7,3.56,6.27,5.29,10.44,2.79c8.17-4.91,13.21-12.22,14.14-21.75
			C1164.6,278.16,1159.6,272.44,1153.16,272.33z"/>
		<path class="st0" d="M420.22,1212.64c-4.83,10.37-9.83,20.67-14.36,31.17c-0.94,2.18-0.14,5.12-0.14,8.79
			c-4-1.8-8.39-3.78-12.77-5.76c7.67-2.33,8.45-9.31,11.17-14.65c3.47-6.81,6.62-13.78,9.85-20.71c2.03-4.36,5.32-8.59,1-13.79
			c0.41-0.29,0.81-0.59,1.22-0.88c5.68,2.73,11.46,5.3,16.94,8.38c0.84,0.47,0.58,3.36,0.39,5.09c-1.03,9.51-2.2,19-2.32,29.06
			c2.32-2.27,4.65-4.54,6.96-6.81c4.99-4.9,9.84-9.96,15.05-14.61c1.2-1.07,3.94-1.49,5.48-0.91c4.67,1.78,9.1,4.2,13.7,7.15
			c-6.55,0.94-7.81,6.03-9.87,10.42c-4.3,9.18-8.85,18.26-12.86,27.57c-1.21,2.81-0.97,6.23-1.51,10.19
			c-5.6-1.34-11.36-4.97-17.56-8.49c6.19-0.71,7.56-5.57,9.57-9.78c4.22-8.84,8.4-17.7,12.03-27.17c-2.53,2.33-5.12,4.6-7.58,7
			c-6.08,5.92-12.21,11.81-18.11,17.92c-2.1,2.17-3.76,2.29-6.46,1.11c-3.02-1.33-2.47-3.2-2.19-5.64
			c1.31-11.51,2.42-23.04,3.6-34.56C421.05,1212.7,420.63,1212.67,420.22,1212.64z"/>
		<path class="st0" d="M866.02,1295.93c4.92-5.95,1.19-11.34-0.52-16.81c-2.62-8.39-5.51-16.7-8.09-25.1
			c-1.2-3.9-2.39-7.58-8.17-8.14c1.55-1.26,2.14-2.07,2.91-2.32c9.15-2.96,18.25-6.09,27.51-8.67c8.16-2.27,13.17-0.7,16.03,4.1
			c3.25,5.46,2.32,10.6-3.08,17.22c-0.39,0.48-0.65,1.06-1.26,2.07c1.61,0.29,2.83,0.51,4.04,0.73c5.32,0.99,9.06,3.71,10.7,9.14
			c1.64,5.43,1.01,10.28-3.28,14.14c-2.06,1.85-4.46,3.62-7.03,4.57c-9.47,3.48-19.07,6.6-28.62,9.86
			C866.78,1296.45,866.4,1296.19,866.02,1295.93z M881.19,1287.36c2.58-0.85,4.61-1.47,6.6-2.18c4.16-1.49,7.61-3.83,7.45-8.77
			c-0.16-4.97-1.45-10.41-6.6-11.72c-3.91-1-8.55,0.75-12.82,1.48c-0.38,0.07-0.91,1.78-0.68,2.52
			C877.02,1274.8,879.06,1280.87,881.19,1287.36z M873.02,1262.15c5.59-1.9,11.63-2.3,13.15-8.82c1.03-4.41-0.05-8.93-4.06-11.46
			c-5.21-3.29-10.02-0.29-15.16,1.86C869.04,1250.06,870.98,1255.94,873.02,1262.15z"/>
		<path class="st0" d="M1102.13,286.3c2.18,1.84,3.92,3.3,5.78,4.86c-1.23,3.14-2.63,4.71-5.8,2.09c-4.23-3.5-8.65-6.78-12.85-10.31
			c-0.86-0.72-1.11-2.16-1.64-3.26c1.09-0.43,2.23-0.76,3.26-1.29c2.54-1.32,5.69-2.17,7.42-4.21c5.37-6.34,10.45-12.97,15.16-19.82
			c6.28-9.13,3.1-17.58-7.36-21.15c-4.23-1.45-7.27-0.59-9.91,3.08c-5.55,7.7-11.22,15.31-17.06,22.79c-2.33,2.98-2.71,5.37,0,8.26
			c0.72,0.77,0.43,2.5,0.61,3.78c-1.3-0.25-2.9-0.09-3.84-0.81c-5.25-4.03-10.34-8.27-16.27-13.07c1.78-0.83,3.1-2.03,4.06-1.79
			c3.97,1,6.46-1.02,8.57-3.74c6.11-7.89,12.06-15.91,18.16-23.8c2-2.59,1.41-4.78-0.22-7.26c-1.83-2.78-1.15-4.5,2.49-3.98
			c4.69,0.67,9.36,1.47,14.89,2.35c-1.93,3.4-3.36,5.91-5.24,9.21c4.4,0.91,8.34,1.74,12.28,2.55c10,2.06,15.42,10.52,11.17,19.76
			c-3.7,8.06-9.31,15.26-14.25,22.73C1108.69,277.55,1105.52,281.62,1102.13,286.3z"/>
		<path class="st0" d="M429.85,241.87c-0.35,1.95-0.11,3.88-0.91,4.56c-5.31,4.48-10.84,8.7-17.42,13.87c0-2.64,0.06-4.2-0.01-5.76
			c-0.13-2.69,0.52-5.89-0.69-7.99c-5.15-8.92-10.88-17.51-16.34-26.25c-1.55-2.48-3.4-3.35-6.29-2.28
			c-1.03,0.38-2.4-0.15-3.61-0.26c0.12-1.1-0.01-2.3,0.39-3.29c1.87-4.57,3.88-9.07,6.22-14.47c2.56,2.89,4.54,5.13,6.94,7.84
			c2.11-4.42,3.84-8.32,5.79-12.09c5.52-10.68,15.29-12.41,23.34-3.45c5.29,5.89,9.33,12.91,13.9,19.45
			c1.43,2.05,2.75,4.17,4.13,6.25c4.26,6.4,4.27,6.4,10.61,2.4c2.48,2.09,3.03,4.08,0.08,6.37c-4.2,3.27-8.24,6.75-12.5,9.95
			c-1,0.75-2.6,0.72-3.92,1.05c-0.04-1.24-0.05-2.47-0.13-3.7c-0.15-2.37,0.43-5.2-0.64-7.04c-4.87-8.31-9.98-16.5-15.46-24.42
			c-3.26-4.71-7.92-5.92-12.21-4.29c-3.93,1.5-10.25,9.5-9.95,12.99c0.12,1.4,0.94,2.83,1.72,4.07c5.52,8.72,11.3,17.27,16.59,26.12
			C422.44,246.44,425.38,242.73,429.85,241.87z"/>
		<path class="st0" d="M564.59,165.46c2.6-1.13,4.39-1.91,6.36-2.77c2.39,3.02,2.32,5-1.4,6.55c-4.76,1.97-9.36,4.34-14.1,6.35
			c-1.05,0.45-2.44,0.12-3.67,0.15c0.08-1.19,0.13-2.39,0.26-3.57c0.3-2.87,1.53-5.99,0.79-8.55c-2.51-8.61-5.53-17.08-8.74-25.46
			c-1.81-4.73-5.03-8.29-10.79-8.1c-4.42,0.14-11.54,5.08-12.73,9.25c-0.46,1.62-0.24,3.68,0.32,5.32
			c3.25,9.61,6.74,19.14,10.06,28.73c1.05,3.03,2.39,5,6.16,3.89c1.03-0.31,2.48,0.77,3.73,1.21c-0.77,1.08-1.31,2.64-2.36,3.17
			c-5.05,2.53-10.22,4.83-15.4,7.1c-0.94,0.41-2.12,0.26-3.18,0.36c0.03-1.21-0.44-2.87,0.17-3.56c3.04-3.39,2.52-7.05,1.23-10.78
			c-3.19-9.27-6.5-18.51-9.73-27.77c-1.01-2.89-2.64-4.36-6-3.75c-2.41,0.44-4.39-0.77-2.65-3.39c2.91-4.38,6.31-8.43,10.07-13.37
			c1.74,3.48,3.09,6.19,4.78,9.57c2.59-3.25,4.8-6.09,7.07-8.87c8.98-11.03,19.65-10.12,25.73,2.84
			c4.65,9.92,8.04,20.42,12.01,30.65C563.14,162.13,563.81,163.6,564.59,165.46z"/>
		<path class="st0" d="M893.93,161.54c-0.41,3.9-1.6,5.34-5.3,4.18c-4.74-1.49-9.71-2.28-14.52-3.57c-1.13-0.3-2.05-1.39-3.06-2.11
			c0.75-0.91,1.49-1.82,2.24-2.72c1.65-1.99,4.11-3.74,4.81-6.02c2.61-8.58,5.16-17.24,6.78-26.04
			c2.17-11.75-4.46-17.77-16.13-15.73c-3.69,0.65-5.57,2.68-6.39,6.04c-2.51,10.34-4.94,20.7-7.52,31.02
			c-0.73,2.94,0.78,4.16,3.01,5.46c1.14,0.66,1.77,2.22,2.63,3.37c-1.32,0.37-2.77,1.29-3.95,1.03c-6.29-1.39-12.51-3.07-19.73-4.89
			c1.29-1.46,2.19-2.54,3.16-3.56c2.05-2.16,5.24-3.95,6.01-6.49c3.05-10.01,5.55-20.2,7.73-30.43c0.37-1.75-1.41-4.47-2.95-5.98
			c-2.04-2-2.91-3.72,0.04-4.86c4.58-1.76,9.41-2.85,15.08-4.5c-0.46,3.97-0.82,7.08-1.25,10.76c4.69-1.22,8.63-2.35,12.63-3.26
			c9.9-2.25,17.32,2.83,17.22,13.04c-0.08,7.87-2,15.76-3.44,23.58c-1.19,6.49-2.86,12.89-4.37,19.6
			C889.33,160.23,891.49,160.85,893.93,161.54z"/>
		<path class="st0" d="M683.57,143.23c1.1-2.19,1.35-3.76,2.21-4.24c3.82-2.14,4.4-5.62,4.33-9.41c-0.18-9.97-0.23-19.96-0.84-29.9
			c-0.11-1.84-2.28-4.13-4.1-5.15c-3.6-2.02-4.04-3.11-0.73-5.48c3.74-2.67,7.62-5.13,12.39-8.31c0.58,3.98,1.01,6.92,1.55,10.63
			c3.69-2.3,6.95-4.44,10.3-6.42c10.66-6.31,20.34-2.32,22.12,9.97c1.64,11.32,2.02,22.85,2.5,34.3c0.21,5,1.35,7.76,7.03,5.78
			c1.31,2.82,2,5.13-2.02,5.51c-5.47,0.51-10.94,0.94-16.42,1.24c-1.01,0.06-2.18-0.49-3.04-1.09c-0.32-0.23-0.24-1.86,0.14-2.11
			c6.05-3.96,4.58-10.34,4.83-15.9c0.27-6.12-0.38-12.29-0.72-18.43c-0.7-12.5-9.97-17.47-20.3-10.61c-1.94,1.29-3.7,4.42-3.72,6.72
			c-0.09,10.64,0.52,21.28,0.77,31.92c0.07,3.07,1.42,4.46,4.44,4.88c1.19,0.17,2.22,1.44,3.33,2.21c-1.09,0.78-2.12,2.11-3.28,2.24
			C697.94,142.25,691.5,142.63,683.57,143.23z"/>
		<path class="st0" d="M370.21,1229.76c-19.71,0-31.1-17.74-22.18-35.21c2.81-5.51,6.68-10.86,11.21-15.04
			c8.63-7.96,19.69-7.46,30.11,0.21c9.28,6.84,12.17,16.02,7.29,26.81c-2.63,5.81-6.46,11.24-10.56,16.17
			C382.16,1227.41,376.69,1230.09,370.21,1229.76z M389.35,1189.38c-1.54-2.24-3.04-5.52-5.51-7.73c-3.04-2.72-6.81-1.86-10.2,0.13
			c-0.43,0.25-0.88,0.5-1.24,0.83c-8.97,8.31-15.62,18-17.51,30.35c-0.6,3.93,1.1,7.09,4.52,9.28c3.54,2.26,7.12,1.94,10.25-0.38
			C380.15,1214.1,385.63,1203.18,389.35,1189.38z"/>
		<path class="st0" d="M185.68,855.46c-0.27-1.08-0.63-2.15-0.81-3.25c-1.36-8.45-2.95-9.89-11.5-9.26
			c-20.06,1.48-40.11,3.02-60.16,4.71c-10.86,0.92-10.84,1.08-11.55,11.68c-0.04,0.62-0.31,1.22-0.97,3.65
			c-1.62-2.42-3.15-3.68-3.28-5.07c-0.96-10.26-1.72-20.54-2.33-30.83c-0.08-1.33,1.06-2.74,1.63-4.11
			c0.77,1.22,1.97,2.36,2.24,3.68c1.77,8.53,3.55,10.07,12.12,9.39c20.55-1.65,41.09-3.35,61.63-5.11c8.3-0.71,8.72-1.31,9.56-9.55
			c0.12-1.2,1.24-2.3,1.89-3.45c0.89,1.13,2.46,2.19,2.57,3.39c0.92,9.93,1.65,19.88,2.19,29.84c0.08,1.55-1.1,3.17-1.7,4.76
			C186.71,855.77,186.19,855.62,185.68,855.46z"/>
		<path class="st0" d="M292.93,390.31c-0.02,16.29-10.14,28.16-23.98,28.13c-16.84-0.03-30.69-14.28-30.64-31.53
			c0.05-17.4,8.72-26.97,24.34-26.88C278.82,360.14,292.94,374.26,292.93,390.31z M259.44,370.51c-7.59,0.26-13.17,2.38-16.16,8.27
			c-3.03,5.95-0.2,11.41,3.99,15.33c4.66,4.36,10.09,8.13,15.72,11.17c5.26,2.83,11.25,2.74,16.96,0.44
			c7.61-3.06,10.65-10.19,6.72-17.33C280.57,377.32,270.37,372.33,259.44,370.51z"/>
		<path class="st0" d="M228.29,1035.08c4.34,5.26,8.68,10.51,13.02,15.77c-0.08,0.4-0.15,0.81-0.23,1.21
			c-8.31-2.57-11.99,4.04-16.96,7.85c-5.94,4.56-11.7,9.39-17.17,14.5c-4.81,4.5-5.19,8.45-2.16,12.81
			c3.64,5.22,8.14,6.63,13.25,2.82c9.47-7.06,18.6-14.6,27.52-22.34c1.75-1.51,1.94-4.82,3.1-7.99c3.86,4.67,7.48,9.07,11.76,14.26
			c-11.6-1.43-16.07,8.07-23.34,12.8c-3.75,2.44-6.93,5.75-10.59,8.35c-8.11,5.75-15.35,5.08-22.38-2.02
			c-2.21-2.24-4.22-4.74-5.94-7.38c-5.65-8.65-4.58-16.27,3.29-23.05c6.31-5.44,12.86-10.59,19.23-15.96
			c3.41-2.88,7.84-5.25,6.08-11.29C227.29,1035.3,227.79,1035.19,228.29,1035.08z"/>
		<path class="st0" d="M1331.95,550.95c-4.78,0-8.6-0.62-12.13,0.12c-10.22,2.15-20.32,4.85-30.47,7.33
			c-7.96,1.95-7.96,1.96-12.55,8.02c-1.51-5.41-2.84-10.18-4.22-15.12c2.14-0.73,3.66-1.24,4.22-1.43
			c-2.55-4.08-5.94-7.87-7.46-12.31c-2.02-5.88,0.5-10.7,5.9-13.88c6.63-3.9,13.86-5.55,21.53-4.69
			c7.55,0.85,12.84,7.16,14.06,16.47c0.21,1.62,0.35,3.26,0.52,4.83c6.85,0.64,11.23-1.45,16.04-8.07
			C1329.12,539.31,1330.67,545.68,1331.95,550.95z M1307.15,538.57c0.13-5.48-3.11-9.23-7.91-8.63c-6.61,0.83-13.2,2.75-19.42,5.18
			c-1.82,0.71-3.49,4.89-3.19,7.22c0.48,3.75,3.96,6.06,7.77,5.38c6.01-1.07,11.99-2.63,17.74-4.66
			C1304.42,542.25,1306.04,539.61,1307.15,538.57z"/>
		<path class="st0" d="M1061.28,1132.51c4.41-5.03,7.8-8.9,11.42-13.05c5.3,5.82,10.15,11.16,15.41,16.94
			c1.17-3.46,1.78-6.21,2.98-8.65c3.97-8.06,11.94-9.61,18.37-3.41c4.42,4.27,8.18,9.23,12.62,13.48c2.5,2.39,5.77,3.96,9.69,6.56
			c-3.92,3.56-8.58,7.8-13.62,12.38c-1.62-11.94-10.77-17.43-17.59-24.51c-1.08-1.12-5.76-0.92-6.32,0.07
			c-1.37,2.42-2.77,6.71-1.57,8.37c4.46,6.15,9.82,11.7,15.19,17.12c1.22,1.23,3.86,1.07,6.93,1.8c-5.23,4.71-9.97,8.97-14.7,13.23
			c-0.44-0.1-0.87-0.2-1.31-0.3c2.18-6.48-2.47-9.64-5.73-13.36c-6.69-7.64-13.56-15.13-20.35-22.67
			C1069.92,1133.44,1067.28,1130.06,1061.28,1132.51z"/>
		<path class="st0" d="M663.1,1279.99c1.29-6.11,2.76-11.87-4.07-17.17c6.34,0,11.31,0,16.88,0c-0.5,9.25-0.94,18-1.45,26.75
			c-0.41,7.14-1.23,14.28-1.19,21.41c0.02,2.95,1.82,5.88,2.92,9.11c-4.15,0-8.94,0-14.01,0c-0.09-1.68-0.18-3.27-0.25-4.48
			c-4.36,1.34-8.58,3.4-12.95,3.82c-6.62,0.62-11.66-3.05-12.48-9.61c-0.79-6.28-0.88-13.01,0.55-19.12
			c2.16-9.27,11.04-13.37,21.94-11.53C660.23,1279.38,661.49,1279.66,663.1,1279.99z M662.83,1292.75c0.46-5.5-1.55-9.04-5.41-9.92
			c-3.75-0.85-7.48,1.68-8.56,7.19c-1.04,5.28-1.11,10.82-1.01,16.24c0.07,4.05,1.68,7.64,6.7,7.7c4.31,0.05,7.39-3.52,7.7-8.76
			C662.47,1301.06,662.64,1296.91,662.83,1292.75z"/>
		<path class="st0" d="M230.27,1119.3c4.75,1.17,7.77-3.25,11.31-6.88c5.8-5.95,11.73-11.78,17.61-17.67
			c5.63-5.63,5.63-5.63,7.5-14.31c8.3,9.16,18.37,15.9,23.97,26.69c2.75,5.29,1.44,10.4-2.62,14.66
			c-4.55,4.77-10.22,7.77-16.53,4.95c-5.59-2.5-10.45-6.64-16.2-10.43c-3.44,5.57-13.44,7.66-11.34,16.85
			C239.58,1128.71,234.69,1123.77,230.27,1119.3z M276.13,1096.56c-5.42,5.44-10.65,10.68-16.09,16.14
			c2.71,3.33,5.74,6.9,11.13,6.16c4.23-0.58,10.45-6.9,11.16-11.13C283.26,1102.19,279.47,1099.35,276.13,1096.56z"/>
		<path class="st0" d="M1283.54,729.5c0.63,2.59,0.81,4.73-2.75,5.5c-8.82,1.92-9.17,13.73-3.42,18.37c2.28,1.84,4.96,3.5,7.74,4.38
			c8.31,2.65,16.89,3.86,25.55,2.05c2.66-0.56,5.49-1.78,7.51-3.55c4.61-4.04,2.81-11.04-3.15-12.33
			c-5.04-1.09-10.45-2.77-14.43,3.38c-0.29-0.36-0.58-0.72-0.87-1.08c0.67-6.59,1.34-13.18,2.16-21.24c4.91,7.39,11.52,6.44,17.59,7
			c7.17,0.66,7.9,1.9,4.83,8.37c-0.43,0.92-0.32,2.24-0.1,3.29c3.74,17.75-5.32,29.12-23.31,29.07c-3.31-0.01-6.69-0.15-9.91-0.83
			c-17.11-3.59-24.61-15.03-21.32-32.17c0.09-0.49,0.28-0.96,0.38-1.45C1272.29,727.47,1272.29,727.47,1283.54,729.5z"/>
		<path class="st0" d="M1169.8,1104.43c-3.38,4.01-6.91,8.2-10.29,12.2c-4.9-17.73-15.94-31.83-24.08-47.32
			c-2.61-4.97-2.98-8.3,1.48-11.77c0.77-0.6,1.36-1.44,2.31-2.47c11.48,5.08,22.93,10.3,34.5,15.21c6.18,2.62,11.86,7.27,19.49,4.96
			c0.15,0.38,0.3,0.76,0.44,1.15c-4.68,5.49-9.37,10.99-13.58,15.93c-2.05-3.14-3.17-6.4-5.45-8.05c-6.18-4.45-6.55-4.15-11.61,1.7
			c-0.76,0.88-1.53,1.76-2.28,2.65c-4.97,5.88-5.09,7.87,0.65,13.02C1163.2,1103.25,1166.38,1103.35,1169.8,1104.43z
			 M1143.1,1069.33c-0.31,0.31-0.61,0.62-0.92,0.93c3.7,6.36,7.41,12.73,11.51,19.78c3.41-4,6.33-7.44,9.74-11.43
			C1156.14,1075.29,1149.62,1072.31,1143.1,1069.33z"/>
		<path class="st0" d="M1006.69,170.86c-2.27,0.39-4.66,1.43-6.8,1.05c-7.68-1.39-15.28-3.23-22.9-4.96
			c-6.3-1.43-6.91-1.11-8.89,5.13c-3.67,11.57,0.38,21.53,10.35,23.73c4.5,0.99,9.4,0.17,15.59,0.17c-2.06,1.87-3.46,4.21-5.22,4.52
			c-5.18,0.93-10.56,1.74-15.77,1.36c-9.33-0.69-16.37-9.64-17.38-20.87c-1.38-15.39,11.67-32.8,26.88-35.87
			c12.47-2.52,20.17,3.73,20.85,16.64c0.13,2.52,1.28,4.99,1.96,7.48C1005.81,169.77,1006.25,170.31,1006.69,170.86z M972.34,161.26
			c7.15,1.73,12.51,3.24,17.97,4.17c1.04,0.18,3.42-1.83,3.54-2.99c0.27-2.69,0.06-5.69-0.91-8.19c-2.46-6.36-6.73-7.49-11.95-3.06
			C978.08,153.67,975.92,157.02,972.34,161.26z"/>
		<path class="st0" d="M946.1,172.7c-1.55,1.5-2.84,3.76-4.68,4.37c-8.6,2.86-17.48,5.44-25.69-0.9
			c-8.48-6.55-10.12-15.77-8.46-25.63c2-11.85,8.29-21.02,19.21-26.38c13-6.38,23.96-2.67,26.32,12.94c0.38,2.5,1.71,4.86,3.05,7.18
			c-0.42,2.92-2.48,3.7-5.59,3.26c-8.23-1.16-16.5-2.02-24.73-3.17c-4.1-0.57-6.32,0.89-6.8,5.05c-0.32,2.8-1.25,5.6-1.13,8.36
			c0.49,10.95,9.64,17.76,20.39,15.38c2.37-0.52,4.71-1.21,7.06-1.81C945.4,171.81,945.75,172.26,946.1,172.7z M921.94,139.56
			c7.11,0.96,12.31,1.81,17.54,2.25c1.12,0.09,2.83-1,3.46-2.04c1.9-3.13-0.48-10.16-4.08-12.9c-3.9-2.97-7.11-0.84-9.57,1.91
			C926.74,131.62,924.91,135.12,921.94,139.56z"/>
		<path class="st0" d="M380.57,231.64c-0.69,2.46-0.89,5.23-2.17,7.32c-4.42,7.23-9.11,14.31-13.94,21.27
			c-2.32,3.34-2.23,5.86,0.89,8.58c4.72,4.12,9.43,8.21,16.32,6.41c7.02-1.83,10.56-7.07,12.5-13.65c0.68-2.32,1.17-4.69,1.74-7.04
			c0.48-0.08,0.96-0.16,1.45-0.24c0.53,1.99,1.9,4.19,1.45,5.92c-1.53,5.91-3.03,11.99-5.78,17.37c-4.08,8.01-14.8,11.17-23.5,7.87
			c-14.03-5.32-23.35-22.32-20.96-38.26c0.17-1.15,0.4-2.29,0.59-3.44c2.01-12.03,10.93-17.13,22.36-12.97
			c2.23,0.81,4.78,0.74,7.19,1.08C379.33,231.8,379.95,231.72,380.57,231.64z M359.44,260.3c3.6-5.47,6.76-10.08,9.68-14.85
			c0.57-0.94,0.79-2.85,0.23-3.6c-2.64-3.51-6.47-4.44-10.63-3.63c-3.74,0.73-5.66,3.24-5.67,7.06
			C353.05,250.83,355.34,255.41,359.44,260.3z"/>
		<path class="st0" d="M538.91,1246.56c-1.09,3.53-2.11,6.83-3.13,10.12c-3.46,0.4-5.2-0.75-5.36-4.23c-0.2-4.43-2.85-7.43-7.04-7.7
			c-2.74-0.18-6.51,0.76-8.23,2.64c-3.05,3.34-1.8,7.55,0.98,10.89c2.65,3.19,5.74,6.03,8.37,9.24c5.32,6.5,5.89,13.84,1.81,20.28
			c-3.68,5.81-10.42,8.21-18.5,6.07c-4.63-1.23-9.04-3.25-13.6-4.77c-3.79-1.26-4.94-3.38-3.17-7.14c0.9-1.92,1.27-4.09,1.9-6.22
			c3.43-0.4,4.5,0.82,5.32,4.12c0.75,3.01,3.01,6.24,5.55,8.04c3.21,2.29,7.43,2.37,10.42-1.08c3.07-3.53,3.37-7.76,0.66-11.5
			c-2.71-3.75-6.68-6.65-9.05-10.56c-2.22-3.66-4.2-8.11-4.31-12.27c-0.22-8.11,6.69-13.79,15.41-13.42
			C524.86,1239.43,532.1,1242.18,538.91,1246.56z"/>
		<path class="st0" d="M167.43,1021.09c2.5,2.07,3.49,3.86,1.17,6.77c-3.11,3.91-2.43,8.1,0.58,11.89c2.2,2.77,4.92,4.55,8.65,3.22
			c4.63-1.65,6.87-5,6.74-9.92c-0.13-4.82-0.43-9.64-0.43-14.46c0.01-6.45,3.04-11.2,8.96-13.74c5.75-2.46,11.59-1.6,15.62,2.96
			c4.44,5.02,7.87,10.96,11.44,16.69c0.53,0.84-0.16,3.2-1.05,4.01c-2.05,1.85-4.57,3.18-6.85,4.7c-2.62-2.12-3.57-3.88-1.3-6.82
			c2.64-3.42,2.39-7.6-0.76-10.43c-2.06-1.84-5.57-3.44-8.11-3.05c-4.16,0.64-6.08,4.5-6.07,8.65c0.01,4.3,0.77,8.61,0.84,12.91
			c0.14,8.41-3.71,14.27-10.71,16.83c-6.49,2.37-13.59,0.24-18.5-6.23c-3.09-4.08-5.38-8.75-8.12-13.11
			c-1.85-2.95-1.61-5.13,1.7-6.85C163.4,1023.99,165.36,1022.45,167.43,1021.09z"/>
		<path class="st0" d="M1221.37,959.67c2-4.57,3.99-9.14,6.09-13.93c1.88,0.7,3.37,1.26,5.08,1.9c-0.19-3.46-0.75-6.74-0.46-9.94
			c0.82-8.91,7.14-12.95,15.48-9.72c5.87,2.27,11.38,5.5,17.25,7.78c3.04,1.18,6.52,1.24,10.65,1.95
			c-1.13,5.11-4.66,10.4-7.41,16.53c-6.28-9.96-16.58-11.85-25.67-15.53c-1.5-0.61-5.1,1-6.03,2.58c-1.84,3.12-0.91,7.01,2.3,8.76
			c6.54,3.58,13.37,6.68,20.28,9.48c1.68,0.68,4.13-0.55,7.15-1.06c-3.01,6.38-5.66,11.99-8.71,18.44
			c-4.85-10.85-15.75-11.24-23.71-16.21c-3.48-2.17-7.22-3.42-11.02,0.14C1222.22,960.45,1221.8,960.06,1221.37,959.67z"/>
		<path class="st0" d="M1008.22,1195.69c1.69-3.16,2.84-6.17,4.71-8.63c5.12-6.75,12.92-6.8,18.07-0.09
			c3.13,4.08,5.72,8.56,8.53,12.88c2.73,4.19,4.67,9.25,11.27,10.35c-2.66,1.73-5.31,3.47-7.98,5.17c-2.65,1.68-5.33,3.31-8.83,5.47
			c1.81-10.91-6.18-16.88-10.46-24.52c-1.74-3.1-4.26-6.49-8.79-3.94c-3.69,2.07-4.33,6.89-1.61,11.33
			c2.43,3.97,4.74,8.05,7.56,11.73c2.24,2.93,5.15,5.35,8.35,8.59c-4.33,2.76-9.6,6.12-14.49,9.25
			c-3.26-13.86-9.69-24.95-21.71-33.64c3.42-2.31,7.53-5.09,11.78-7.96C1005.96,1193.17,1007.07,1194.41,1008.22,1195.69z"/>
		<path class="st0" d="M738.53,1279.37c5.79-0.87,10.65-1.6,15.83-2.38c0.33,1.71,0.63,3.27,1.1,5.74c1.61-1.4,2.86-2.51,4.13-3.6
			c9.05-7.85,18.78-4.63,20.88,7.07c1,5.55,1.12,11.26,2.2,16.79c0.66,3.38,2.39,6.56,4.01,10.79c-5.15,0.61-11.42,1.35-18.99,2.24
			c6.74-8.28,2.03-15.99,2.21-23.45c0.04-1.79-0.44-3.64-0.93-5.39c-0.8-2.83-2.26-6.13-5.54-5.13c-2.57,0.79-6.38,3.77-6.35,5.73
			c0.13,7.9,1.38,15.81,2.59,23.65c0.22,1.43,2.22,2.58,4.32,4.86c-7.03,0.89-13.18,1.67-19.72,2.5
			C749.02,1306.98,746.19,1286.1,738.53,1279.37z"/>
		<path class="st0" d="M1282.7,604.46c8.38-1.25,15.77-2.35,23.15-3.47c1.48-0.23,2.94-0.55,4.39-0.88c3.13-0.7,6.15-2.13,5.77-5.73
			c-0.43-4.04-3.38-6.96-7.49-6.62c-7.1,0.59-14.19,1.78-21.16,3.27c-1.87,0.4-3.31,2.82-5.74,5.05c-0.89-5.4-1.69-10.28-2.59-15.73
			c8.93-1.29,17.45-2.4,25.92-3.78c4.6-0.75,10.03-0.19,11.49-7.16c0.48,0.27,0.96,0.53,1.44,0.8c0.87,4.86,1.73,9.72,2.67,14.97
			c-1.9,0.29-3.32,0.5-5.05,0.77c0.3,0.81,0.42,1.44,0.74,1.92c2.03,2.99,4.78,5.69,6.02,8.97c2.5,6.65-0.41,12.09-7.27,13.83
			c-5.61,1.43-11.45,1.98-17.18,2.94c-4.5,0.76-9.42,0.65-11.62,6.2c-0.41-0.11-0.81-0.21-1.21-0.32
			C1284.24,614.63,1283.5,609.75,1282.7,604.46z"/>
		<path class="st0" d="M604.95,1274.41c5.53,0.79,10.23,1.46,14.82,2.12c1.39,13.35-6.93,25.98-1.19,40.05
			c-4.17-0.49-8.64-0.76-12.96-1.72c-0.91-0.2-1.26-2.95-2.01-4.9c-2.39,0.9-5.01,2.14-7.77,2.88c-8.82,2.35-15.05-2.43-14.59-11.48
			c0.3-5.95,1.28-11.89,2.18-17.79c0.64-4.13,2.18-8.29-3.33-11.29c0.47-0.44,0.94-0.88,1.4-1.32c4.71,0.65,9.41,1.29,14.86,2.04
			c-0.96,6.93-1.9,13.6-2.8,20.27c-0.33,2.47-0.67,4.94-0.84,7.42c-0.22,3.14,0.11,6.35,3.82,7.14c3.93,0.84,7.43-1.11,8.28-4.77
			c1.64-7.09,2.58-14.38,3.25-21.64C608.24,1279.51,606.36,1277.42,604.95,1274.41z"/>
		<path class="st0" d="M327.94,1189.94c1.29,1.02,2.43,1.93,3.91,3.1c-2.36,3.17-4.59,6.18-7,9.42c-7.8-3.2-14.67-7.36-19.97-13.74
			c-4.65-5.6-6.07-12.37-2.78-18.66c3.55-6.78,7.85-13.62,13.35-18.84c9.09-8.64,20.28-8.38,30.5-0.99
			c0.94,0.68,1.87,1.39,2.73,2.18c10.14,9.3,8.69,7.34,0.94,16.91c-2.9-1-4.09-2.48-3.07-5.93c1.99-6.71-3.84-12.69-10.73-11.27
			c-1.76,0.36-3.6,0.97-5.06,1.96c-9.33,6.37-16.03,14.88-19.79,25.55c-1.65,4.68-0.63,8.82,3.45,12c4.13,3.21,8,2.36,11.81-0.58
			C326.73,1190.66,327.3,1190.35,327.94,1189.94z"/>
		<path class="st0" d="M1306.55,669.6c-12.96,0.03-20.26-7.38-20.28-20.58c-0.02-12.41,7.28-19.01,21.04-19.01
			c13,0,20.19,7.29,20.28,20.57C1327.68,662.96,1320.36,669.56,1306.55,669.6z M1309.3,641.19c-4.34,1.03-9.93,1.94-15.16,3.83
			c-1.78,0.64-3.72,3.78-3.66,5.71c0.06,1.94,2.16,4.85,4.02,5.52c8.69,3.12,17.44,2.05,25.64-1.83c1.7-0.81,3.31-4.1,3.1-6.04
			c-0.21-1.95-2.41-4.33-4.34-5.29C1316.47,641.88,1313.43,641.92,1309.3,641.19z"/>
		<path class="st0" d="M999.93,1241.4c-2.98,1.59-7,3.73-11.26,6.01c-1.02-1.45-1.93-2.74-3.08-4.37c-0.99,1.84-1.56,3.63-2.71,4.9
			c-2.19,2.41-4.4,5.02-7.15,6.64c-4.26,2.52-9.66,1.45-12.33-1.66c-2.94-3.42-3.62-9.19-0.49-12.94
			c3.79-4.53,8.39-8.38,12.89-12.77c-1.32-5.68-5.22-9.99-8.98-9.43c-4.51,0.67-6.39,4.51-5.33,11.4c-1.86,1-3.84,2.06-5.74,3.08
			c-3.75-3.78-4.19-7.23,0.05-10.54c3.91-3.05,7.51-6.65,11.8-9.01c7.66-4.22,12.67-2.43,16.92,5.3c2.56,4.65,4.63,9.6,7.45,14.09
			C993.98,1235.26,996.87,1237.88,999.93,1241.4z M978.26,1231.6c-7.33,3.63-9.72,8.32-6.91,13.18c1.78,3.08,4.23,4.04,7.44,2.04
			C983.58,1243.84,983.46,1239.16,978.26,1231.6z"/>
		<path class="st0" d="M1266.07,846.96c1.59-6.52,3.12-12.81,4.66-19.1c0.38-0.14,0.75-0.29,1.13-0.43
			c1.98,6.36,6.66,5.73,11.37,5.2c4.87-0.55,9.76-0.97,14.63-1.44c0.14-0.46,0.28-0.91,0.41-1.37c-5.56-3.79-10.95-7.91-16.8-11.18
			c-1.86-1.04-4.98,0.16-8.53,0.4c1.03-4.38,2.18-9.23,3.48-14.78c9.65,12.07,22.16,18.93,32.79,28.03
			c3.66,3.13,7.58,6.03,10.83,9.56c4.99,5.42,5.18,10.58,1.28,17.57c-1.16-0.25-2.46-0.39-3.65-0.82c-1.47-0.53-2.86-1.31-4.29-1.98
			c0.99-1.32,2.36-2.51,2.86-3.99c0.66-1.94,1.52-4.62,0.69-6.07c-1.58-2.78-4.3-4.93-5.66-6.39c-6.99,0.86-12.81,1.66-18.66,2.28
			c-4.96,0.53-9.98,0.6-14.9,1.34C1274.24,844.33,1270.87,845.62,1266.07,846.96z"/>
		<path class="st0" d="M1019.99,222.44c-1.51,4.33-3.48,4.75-6.65,2.64c-5.65-3.76-11.49-7.23-17.67-11.09
			c1.15-1.09,1.96-2.49,2.73-2.47c5.07,0.11,6.64-3.71,8.53-7.18c3.98-7.31,7.83-14.69,11.9-21.95c1.63-2.91,2.15-5.43-0.24-8.21
			c-2.17-2.53-1.37-4.44,1.89-4.74c5.25-0.47,10.52-0.62,16.96-0.96c-2.49,4.53-4.42,8.04-7.08,12.86c5.5-0.81,9.64-1.71,13.82-1.93
			c2.39-0.12,5.89,0.08,7,1.55c1.41,1.87,2.07,5.93,0.94,7.68c-1.49,2.31-4.96,3.45-7.76,4.7c-0.44,0.2-2.4-1.59-2.66-2.69
			c-0.78-3.37-2.63-5.49-6.01-5.68c-3.69-0.21-7.37,0.12-9.47,4.01c-4.36,8.05-8.74,16.09-13.14,24.12
			c-1.45,2.65-1.14,4.71,1.72,6.2C1016.55,220.2,1018.17,221.32,1019.99,222.44z"/>
		<path class="st0" d="M724.76,1309.77c1.03,0.87,2,1.69,3,2.53c-0.35,0.62-0.51,1.11-0.83,1.46c-6.28,6.9-14.26,7.98-22.89,6.49
			c-1.75-0.3-3.5-1.16-5.02-2.12c-6.48-4.07-9.26-14.67-6.68-24.97c1.85-7.38,7.96-12.52,15.71-13.22
			c13.6-1.23,20.11,4.87,20.43,19.47c-4.28,0.24-8.57,0.5-12.86,0.72c-4.12,0.21-8.24,0.39-12.62,0.6
			c0.38,5.38,0.78,10.36,5.72,12.94C714.86,1316.87,719.94,1313.93,724.76,1309.77z M716.56,1295.8c0.06-8.11-2.11-12.2-6.23-12.22
			c-4.32-0.02-7.02,4.65-6.9,12.22C707.81,1295.8,712.19,1295.8,716.56,1295.8z"/>
		<path class="st0" d="M1177.51,1029.43c5.52-5.82,5.52-5.82,8.44-2.86c-0.62,0.92-1.28,1.86-1.89,2.83
			c-0.6,0.96-1.16,1.95-1.94,3.27c7.54,5.42,14.82,10.95,22.45,15.92c1.84,1.2,4.88,0.57,8.36,0.87
			c-3.87,5.44-7.61,10.67-11.7,16.42c-0.69-1.19-1.14-1.9-1.53-2.64c-1-1.93-1.5-4.48-3.05-5.7c-6.79-5.33-13.88-10.28-21.03-15.49
			c-1.32,1.2-2.49,2.25-2.93,2.65c-2.77-4.39-5.68-8.55-8.14-12.97c-3.72-6.7-0.31-16.86,7.63-22.91c1.78,1.26,3.64,2.58,6.78,4.81
			c-2.49,1.3-4.23,2.16-5.92,3.1c-1.34,0.75-3.35,1.36-3.74,2.49c-0.42,1.22,0.25,3.38,1.22,4.41
			C1172.52,1025.77,1175.04,1027.44,1177.51,1029.43z"/>
		<path class="st0" d="M1192.1,1017.09c-2.56-3.52-4.71-6.9-7.29-9.93c-5.66-6.64-4.43-16.48,3.58-24.37
			c1.79,1.18,3.67,2.41,6.5,4.27c-2.02,1.13-3.18,2.1-4.52,2.47c-3.81,1.04-4.82,3.54-2.01,6.37c2.28,2.29,5.14,3.99,7.9,6.08
			c1.68-2.32,2.94-4.06,4.46-6.16c1.23,0.67,2.43,1.33,3.82,2.09c-1.32,2.34-2.44,4.33-3.85,6.83c7.93,5.04,15.65,10.22,23.68,14.86
			c1.78,1.03,4.67,0.15,8.29,0.15c-3.73,5.82-7.19,11.24-10.83,16.91c-5.43-12.4-18.36-14.48-26.78-22.32
			C1193.52,1015.76,1192.39,1016.82,1192.1,1017.09z"/>
		<path class="st0" d="M806.95,1259.45c0.82,3.32,1.52,6.19,2.31,9.44c3.76-0.6,7.29-1.16,10.81-1.72c1.94,3.37,0.4,4.65-2.64,5.2
			c-2.26,0.41-4.51,0.91-7.52,1.53c1.74,8.21,3.17,16.15,5.18,23.94c1.14,4.39,4.08,5.11,8.13,3.02c1.27-0.65,2.85-0.69,4.48-0.34
			c-2.92,6.01-7.66,8.55-13.66,8.68c-5.71,0.12-9.25-3.17-10.66-9.83c-1.57-7.46-2.95-14.95-4.42-22.52
			c-1.9-0.29-3.59-0.54-5.28-0.8c-0.44-0.29-0.88-0.58-1.32-0.88c6.31-2.47,6.19-7.21,6.07-12.1c-0.02-0.92,1.55-2.31,2.67-2.73
			C802.74,1259.72,804.64,1259.76,806.95,1259.45z"/>
		<path class="st0" d="M1060.28,194.06c6.21-1.62,12.12,1.76,19.14,2.79c-6.05,9.08-11.67,17.45-17.22,25.87
			c-3.2,4.86-6.17,9.86-9.43,14.67c-2.53,3.73-3.34,6.86,1.7,9.09c0.54,0.24,0.86,0.96,1.32,1.49c-1.37,3.85-3.25,4.55-6.61,1.96
			c-4.46-3.44-9.3-6.39-13.81-9.78c-1.02-0.76-1.33-2.46-1.97-3.72c1.26-0.26,2.55-0.43,3.77-0.81c2.16-0.67,5.23-0.81,6.27-2.32
			c6.69-9.69,13.2-19.55,19.08-29.74C1063.56,201.77,1061.33,198.1,1060.28,194.06z"/>
		<path class="st0" d="M565.63,1304.15c-3.17,0.77-6.33,2.16-9.5,2.19c-9.16,0.08-13.71-5.57-11.99-14.67
			c1.44-7.64,3.26-15.2,4.95-22.93c-1.71-0.76-3.15-1.4-4.58-2.04c-0.31-0.41-0.62-0.82-0.93-1.23c7.41-0.3,9.27-5.49,11.07-11.03
			c2.99,0.62,5.69,1.19,8.42,1.76c-0.22,3.47-1.74,7.66-0.28,9.61c1.59,2.11,5.95,2.14,9.49,3.19c-0.22,1.39-0.43,2.73-0.65,4.17
			c-3.87-0.7-7.4-1.33-11.35-2.04c-1.78,8.06-3.64,15.62-5.07,23.25c-0.85,4.56,1.66,6.8,6.31,6.61c1.46-0.06,2.94,0.49,4.41,0.76
			C565.82,1302.56,565.72,1303.36,565.63,1304.15z"/>
		<path class="st0" d="M1294.47,862.89c2.09,1.54,3.82,2.15,4.3,3.28c1.98,4.74,1.34,9.48-1.14,13.89
			c-2.58,4.59-7.33,5.98-14.07,3.99c-7.15-2.11-14.23-4.47-21.57-6.8c-1.04,1.53-1.99,2.93-4.03,5.92
			c-0.07-7.26-3.62-10.2-8.47-12.18c-0.64-0.26-0.82-2.55-0.61-3.8c0.3-1.75,1.17-3.4,1.91-5.4c3.05,0.86,5.89,1.67,9.29,2.63
			c1.27-3.41,2.51-6.76,3.81-10.25c3.27-0.04,4.75,0.92,3.29,4.44c-0.93,2.25-1.4,4.69-2.26,7.69c8.17,2.45,16,5.07,23.99,7.07
			C1293.39,874.51,1295.3,871.3,1294.47,862.89z"/>
		<path class="st0" d="M489.51,205.44c0.45-1.65,0.93-3.29,1.33-4.95c0.54-2.23,2.06-4.9,1.35-6.63
			c-4.55-11.05-9.35-22.02-14.75-32.66c-0.89-1.76-5.15-1.8-8.84-2.95c1.12-6.4,7.53-9.9,11.38-16.32
			c7.76,17.39,15.12,33.9,22.57,50.6c2.12-1,3.13-1.81,4.18-1.88c1.46-0.09,2.95,0.38,4.42,0.61c-0.55,1.47-0.67,3.67-1.72,4.3
			c-5.96,3.57-12.15,6.76-18.26,10.07C490.62,205.56,490.07,205.5,489.51,205.44z"/>
		<path class="st0" d="M812.9,93.89c4.64-3.95,11.18-3.93,18.11-5.44c-1.89,10.66-3.66,20.42-5.35,30.19
			c-1.13,6.56-2.16,13.13-3.17,19.71c-0.47,3.07-0.38,5.65,3.93,5.8c1.1,0.04,2.14,2,3.2,3.08c-1.3,0.85-2.69,2.55-3.89,2.42
			c-6.11-0.65-12.19-1.7-18.24-2.78c-0.88-0.16-1.59-1.25-2.38-1.91c0.8-0.83,1.51-2.24,2.42-2.39c3.59-0.6,5.13-2.89,5.66-6.09
			c1.89-11.49,4.02-22.95,5.3-34.51C818.72,99.85,815.4,97.35,812.9,93.89z"/>
		<path class="st0" d="M1081.75,1175.18c1.31,0.36,2.54,0.69,3.66,0.99c0.14,0.58,0.33,0.92,0.26,1.2
			c-2.61,10.69-9.86,17.72-18.59,18.06c-7.13,0.28-16.4-7.42-19.63-16.3c-2.9-7.97-0.77-15.44,6.2-21.47
			c1.38-1.19,2.89-2.25,4.43-3.23c7.71-4.91,7.89-4.85,12.99,3.7c-1.66,1.38-3.39,2.81-4.94,4.1c-0.67-0.09-1.04-0.03-1.28-0.18
			c-2.62-1.58-5.07-4.36-8.41-1.48c-3.32,2.87-2.63,6.4-0.77,9.52c2.45,4.11,5.05,8.27,8.3,11.73c6.53,6.93,13.48,5.23,16.72-3.68
			C1081.03,1177.22,1081.36,1176.29,1081.75,1175.18z"/>
		<path class="st0" d="M1288.45,680.24c3.26,0,6.53,0,10.11,0c0.44,3.58,0.91,6.44-3.07,8.82c-3.45,2.07-1.15,8.15,3.67,8.69
			c7.23,0.81,14.59,0.88,21.88,0.66c2.04-0.06,4.02-2.23,6.08-3.46c0,6.45,0,12.67,0,20.16c-6.16-7.05-13.33-5.27-19.88-5.29
			c-6.46-0.02-13.67-2.71-19.44,4.93c0-6.27,0-11.27,0-16.44c1.47,0,3.07,0,5.33,0C1289.19,692.71,1285.38,687.37,1288.45,680.24z"
			/>
		<path class="st0" d="M909.45,1239.97c4.66-2.14,9.09-4.17,13.8-6.33c1.05,1.69,1.94,3.13,2.36,3.81c3.51-3.2,6.74-6.59,10.43-9.35
			c2.67-2,5.28-1.56,6.34,2.33c0.52,1.91,1.46,3.71,2.3,5.79c-2.83,1.68-5.14,3.86-8.83,1.04c-2.66-2.03-6.31,0.18-6.81,3.92
			c-0.25,1.88,0.13,4,0.79,5.81c1.41,3.9,2.9,7.84,4.89,11.46c2,3.63,4.67,6.9,7.5,10.98c-4.73,2.03-10.53,4.51-16.57,7.1
			c2.28-12.38-5.71-21.24-9.48-31.33C915.45,1243.25,912.38,1242.16,909.45,1239.97z"/>
		<path class="st0" d="M1205.71,987.16c2.38-4.5,4.71-8.91,7.06-13.36c12.99,3.91,22.15,16.05,37.28,16.14
			c-2.99,5.31-6.08,10.8-9.39,16.69c-5.4-11.57-17.37-13.35-26.28-19.31C1212.67,986.18,1209.55,987.16,1205.71,987.16z"/>
		<path class="st0" d="M1280.63,922.63c-2.65-7.98-10.41-8.17-16.44-10.51c-5.92-2.29-11.76-7.83-19.73-3.11
			c1.65-4.72,3.3-9.44,4.98-14.25c13.19,2.15,24.04,12.1,39.06,10.8c-2.05,5.35-4.3,11.23-6.55,17.11
			C1281.52,922.65,1281.07,922.64,1280.63,922.63z"/>
		<path class="st0" d="M310.4,1118.77c2.36,2.03,4.36,3.76,6.29,5.42c-2.92,7.64-10.02,11.79-17.31,10.1
			c-1.02-0.24-2.24-1.34-2.55-2.3c-0.22-0.68,0.71-2.12,1.5-2.68c2.14-1.5,4.71-2.43,6.67-4.1
			C306.97,1123.52,308.4,1121.21,310.4,1118.77z"/>
		<path class="st0" d="M1096.21,172.32c0.03,4.23-3.33,8.01-7.15,7.98c-3.71-0.03-5.31-2.25-5.46-5.68
			c-0.18-4.15,3.28-8.05,7.16-7.96C1094.31,166.75,1096.21,168.69,1096.21,172.32z"/>
		<path class="st0" d="M837.67,60.92c-0.03,4.35-3.29,8.45-6.51,8.57c-3.18,0.12-5.61-2.88-5.54-6.84c0.08-4.42,3.01-8.05,6.6-7.84
			C836.18,55.04,837.24,57.96,837.67,60.92z"/>
		<path class="st0" d="M465.38,113.49c4.33-0.05,7.27,3.34,7.1,7.89c-0.13,3.38-1.23,6.28-5.38,6.41c-3.75,0.12-6.6-3.21-6.44-7.84
			C460.78,116.57,461.83,113.69,465.38,113.49z"/>
		<path class="st0" d="M1207.53,970.37c-1.95,3.44-3.54,6.25-5.3,9.36c-2.83-1.63-5.36-3.07-8.29-4.76
			c1.75-3.07,3.36-5.88,5.26-9.23C1201.9,967.24,1204.4,968.63,1207.53,970.37z"/>
		<path class="st0" d="M1234.85,888.74c3.06,1.19,5.64,2.2,8.76,3.41c-1.19,3.22-2.3,6.22-3.65,9.85c-3.03-1.08-5.72-2.04-9.01-3.21
			C1232.27,895.39,1233.44,892.38,1234.85,888.74z"/>
	</g>
</g>
</svg>
