<?xml version="1.0" encoding="utf-8"?>
<!-- Generator: Adobe Illustrator 25.2.0, SVG Export Plug-In . SVG Version: 6.00 Build 0)  -->
<svg version="1.1" id="Layer_1" xmlns="http://www.w3.org/2000/svg" xmlns:xlink="http://www.w3.org/1999/xlink" x="0px" y="0px"
	 viewBox="0 0 2114.29 859.32" style="enable-background:new 0 0 2114.29 859.32;" xml:space="preserve">
<style type="text/css">
	.st0{fill:#FFFFFF;}
</style>
<g>
	<g>
		<path class="st0" d="M808.65,215.34c6,0,12,0.13,17.99-0.03c8.83-0.24,8.54,0.84,9.09,8.22c0.86,11.67,2.51,23.28,3.74,34.87
			c1.38,13.03,1.99,26.2,4.38,39.18c1.51,8.21,1.44,16.71,2.21,25.07c0.93,10.13,1.88,20.26,3.11,30.36
			c0.24,1.96,1.36,4.45,3.43,5.08c3.24,0.99,5.48-2.11,7.26-3.76c13.59-12.6,24.29-27.4,33.67-43.45
			c6.58-11.25,12.36-22.85,17.02-34.83c5.95-15.31,10.48-31.18,12.64-47.65c1.35-10.3,3.86-20.54,2.75-30.95
			c-1.61-15.1-4.19-29.93-10.86-43.97c-6.07-12.76-13.76-24.05-24.4-33.2c-10.26-8.82-21.72-15.78-34.71-19.94
			c-5.56-1.78-11.32-2.98-16.77-5.02c-4.3-1.61-8.77-1.25-13.07-1.71c-16.06-1.73-32.09-1.31-48.27,0.38
			c-12.61,1.31-24.91,3.91-37.09,6.71c-9.33,2.14-18.69,4.9-27.89,8.02c-12.46,4.22-24.75,8.81-36.96,13.63
			c-9.84,3.89-19.27,8.72-28.89,13.09c-9.36,4.25-18.25,9.31-27.46,13.79c-13.23,6.44-25.57,14.42-38.17,21.95
			c-6.68,3.99-13.03,8.47-19.66,12.51c-10.18,6.2-19.8,13.18-29.58,19.94c-3.17,2.2-6.49,2.43-9.75,0.74
			c-13.38-6.93-27.78-11.45-42.41-13.58c-14.5-2.11-29.27-3.58-44.29-0.98c-7.97,1.38-16.12,2.82-24.27,3.6
			c-4.88,0.47-9.61,2.19-14.18,3.65c-4.72,1.52-9.99,1.7-14.23,4.78c-1.16,0.84-2.62,0.68-3.48-0.63c-0.95-1.45-0.59-2.96,0.62-4.06
			c2.27-2.07,4.53-4.21,7.04-5.97c16.31-11.51,32.25-23.49,49.19-34.15c12.12-7.62,24.11-15.51,36.5-22.66
			c15.49-8.94,31.31-17.3,47.37-25.25c11.92-5.89,23.9-11.67,36.07-16.93c11.06-4.78,22.31-9.23,33.7-13.33
			c10.02-3.61,19.97-7.46,30.12-10.73c9.86-3.17,19.68-6.65,29.76-8.91c10.41-2.33,20.66-5.33,31.25-7.13
			c8.82-1.5,17.67-3.39,26.52-4.78c10.59-1.66,21.19-3.71,31.98-3.85c6.28-0.08,12.53-0.36,18.8-0.91
			c14.08-1.24,28.23,0.23,42.24,1.19c14.4,0.98,28.67,4.04,42.67,8.26c8.09,2.44,15.93,5.32,23.77,8.37
			c14.34,5.58,26.91,13.96,38.86,23.5c12.64,10.09,23.31,22.08,31.44,35.82c10.09,17.05,16.22,35.77,19.62,55.45
			c2.88,16.68,1.94,33.38,1.62,50.05c-0.18,9.25-2.21,18.53-4.06,27.66c-2.23,11.01-4.71,22.02-7.91,32.77
			c-2.73,9.19-6.7,18.01-10.02,27.03c-5.46,14.82-12.85,28.8-19.96,42.81c-8.14,16.03-17.61,31.44-27.9,46.26
			c-7.48,10.77-14.95,21.55-22.85,32c-7.01,9.26-14.56,18.11-21.96,27.08c-18.97,23-40.48,43.58-61.72,64.38
			c-9.87,9.67-20.45,18.62-31,27.59c-11.37,9.67-22.95,19.04-34.73,28.17c-10.83,8.4-21.94,16.44-32.83,24.77
			c-14.22,10.87-28.32,21.89-42.5,32.81c-7.17,5.52-14.27,11.15-21.66,16.36c-2.32,1.63-5.05,2.29-7.11-1.72
			c-6.13-11.94-12.76-23.63-19.18-35.42c-3.5-6.43-6.58-13.15-10.6-19.24c-3.57-5.42-2.56-10.23,0.13-15.21
			c6.42-11.87,12.96-23.67,19.42-35.52c5.5-10.08,10.97-20.18,16.45-30.27c6.5-11.99,12.95-24.01,19.51-35.98
			c7.24-13.21,14.64-26.33,21.87-39.55c9.77-17.84,19.42-35.74,29.16-53.59c6.65-12.19,13.42-24.31,20.07-36.5
			c11.27-20.64,22.53-41.29,33.7-61.99c7.09-13.14,14.13-26.32,21.3-39.41c5.77-10.54,11.18-21.3,17.48-31.57
			c1.63-2.66,3.43-3.64,6.37-3.59C794.98,215.42,801.82,215.34,808.65,215.34z"/>
		<path class="st0" d="M494.35,493.65c4.65,8.12,9.23,16.24,13.92,24.29c20.87,35.82,41.78,71.61,62.66,107.42
			c15.11,25.92,30.31,51.8,45.18,77.87c2.84,4.99,1.26,10.71-5.79,10.81c-13.83,0.2-27.66,0.25-41.49,0.04
			c-5.58-0.09-8.57-5.09-12.34-8.2c-12.33-10.17-24.92-20.01-37.2-30.22c-8.04-6.69-16.12-13.34-24.21-19.97
			c-17.88-14.69-35.92-29.17-53.93-43.69c-12.17-9.81-24.34-19.63-36.62-29.31c-23.04-18.17-45.48-37.08-68.83-54.86
			c-3.88-2.95-7.59-6.23-11.45-9.27c-3.12-2.45-5.15-5.45-5.06-9.76c0.17-7.83,0.04-15.66,0.02-23.49
			c-0.01-3.58,1.02-5.63,5.27-6.17c10.83-1.37,20.9-5.64,30.7-10.14c15.83-7.26,31.25-15.4,45.69-25.21
			c14.35-9.74,27.32-21.01,39.43-33.49c14.2-14.63,26.22-30.73,35.63-48.67c11.13-21.23,17.92-43.6,12.55-67.88
			c-4.82-21.76-18.78-35.96-39.17-43.83c-17.89-6.91-36.26-6.37-55.17-4c-25.41,3.19-47.61,14.84-70.99,23.51
			c-4.47,1.66-8.81,5.07-14.29,2.95c-1.43-0.55-2.99-1.07-3.41-2.3c-0.64-1.88,1.27-3.04,2.48-3.92
			c9.75-7.1,19.42-14.31,29.58-20.87c15.63-10.08,32.29-18.07,49.67-24.28c16.12-5.75,32.78-9.49,50.07-10.91
			c15.54-1.28,30.88-0.77,45.86,2.6c16.28,3.66,31.54,10.16,45.26,20.3c16.72,12.37,28.52,28.43,37.12,46.88
			c5.33,11.43,8.39,23.81,10.37,36.31c4.38,27.73,3.02,55.3-4.75,82.21c-7.06,24.45-19.51,46.09-37.24,64.63
			C522.17,475.28,508.48,484.83,494.35,493.65z"/>
		<path class="st0" d="M131.13,578.41c-0.18-19.56,2.07-36.83,5.69-54.16c4.76-22.84,12.24-44.67,21.72-65.76
			c7.3-16.25,15.97-31.88,25.63-46.98c13.68-21.37,29-41.41,46.03-60.13c10.72-11.78,22.37-22.6,35.11-32.36
			c9.23-7.08,18.74-13.67,28.6-19.69c8.53-5.21,17.77-9.25,27.09-13.08c12.47-5.12,25.28-9.43,38.48-11.35
			c14.94-2.18,29.96-4.26,45.36-0.99c9.19,1.95,17.91,4.44,26.01,8.9c6.12,3.37,11.02,8.43,15.63,13.66
			c2.68,3.04,1.78,6.21-1.35,7.65c-9.04,4.17-16.8,10.35-25.01,15.73c-13.94,9.13-27.42,19-40.71,29.11
			c-23.63,17.97-46.47,36.9-67.77,57.55c-20.22,19.6-39.36,40.32-56.19,62.97c-9.29,12.5-18.12,25.32-25.79,39
			c-7.61,13.56-14.36,27.45-19.26,42.12c-4,11.98-6.87,24.21-7.61,37.11c-0.86,15.01,0.26,29.4,5.52,43.45
			c5.93,15.82,15.91,28.64,29.16,38.96c14.93,11.63,31.98,19.22,50.15,23.72c13.93,3.45,27.99,6.75,42.64,6.67
			c8.02-0.05,16.08,2.32,24.14,1.66c18.02-1.47,36.09-1.8,54.08-4.52c18.59-2.82,36.99-6.29,55.32-10.32
			c5.39-1.19,10.73-2.68,16.01-4.3c4.06-1.24,7.27-1.09,10.75,2.08c5.97,5.42,12.57,10.14,18.89,15.16
			c5.11,4.05,4.93,5.84-1.14,8.14c-12.98,4.91-26.3,8.84-39.47,13.17c-13.48,4.43-27.25,7.55-40.95,10.91
			c-12.35,3.03-25.04,4.75-37.6,6.96c-26.94,4.74-54.04,3.93-81.12,3.63c-10.9-0.12-21.82-1.52-32.71-3.33
			c-10.33-1.71-20.36-4.46-30.43-6.91c-6.77-1.65-13.44-4.51-19.98-7.23c-13.89-5.76-26.83-13.38-38.7-22.52
			c-9.8-7.54-18.53-16.39-26.03-26.34c-5.14-6.82-9.67-13.99-13.56-21.6c-4.57-8.94-7.61-18.41-10.73-27.92
			c-2.68-8.18-3.01-16.67-4.89-24.92C130.21,593.77,131.76,585.07,131.13,578.41z"/>
		<path class="st0" d="M865.88,521.98c1.05,7.4,1.91,15.08,2.52,22.73c0.76,9.52,1.77,19.02,2.67,28.52
			c1.22,12.93,2.72,25.86,3.62,38.78c0.86,12.32,2.9,24.49,3.45,36.85c0.55,12.45,2.79,24.83,3.54,37.28
			c0.43,7.26,2.43,14.3,2.23,21.59c-0.13,4.88-2.79,6.75-7.64,6.58c-9.32-0.32-18.76-1.02-27.95,0.09
			c-9.86,1.19-14.24-3.51-17.83-11.45c-4.46-9.87-9.98-19.29-14.71-29c-6.87-14.08-14.2-27.93-21.25-41.91
			c-8.78-17.42-17.2-35.04-26.98-51.95c-2.83-4.89-1.81-8.78,2.52-12.66c9.3-8.33,18.59-16.64,27.59-25.33
			c8.3-8.01,16.66-15.99,24.69-24.27c10.22-10.54,20.67-20.89,29.97-32.31c0.84-1.03,1.78-2.01,2.81-2.83
			c3.63-2.89,7.8-1.47,7.71,3.13c-0.14,7.99,1.66,15.74,1.98,23.62C865,513.6,866.86,517.53,865.88,521.98z"/>
		<path class="st0" d="M1753.94,623.33c-3.23,5.62-4.3,10.75-5.96,15.6c-9.79,28.61-19.45,57.26-29.17,85.89
			c-0.42,1.24-1.06,2.42-1.57,3.63c-1.42,3.38-3.88,5.57-7.59,5.3c-2.97-0.22-4.53-2.77-5.68-5.25c-4.15-9-6.77-18.56-9.99-27.89
			c-8.07-23.36-16.09-46.74-24.34-70.03c-0.65-1.83,0.44-4.49-2.47-5.77c0,8.46,0,16.72,0,24.97c0,25.49,0,50.99,0,76.48
			c0,2.82-0.01,5.59-1.21,8.28c-1.73,3.88-4.27,6.25-8.82,5.64c-4.4-0.59-4.71-4.48-5.83-7.52c-0.54-1.47-0.15-3.3-0.16-4.96
			c0-48.99-0.01-97.98,0.03-146.97c0-2.4-0.42-4.83,0.79-7.23c1.48-2.95,3.04-5.38,6.83-5.25c3.96,0.13,5.95,2.59,7.13,5.9
			c3.69,10.37,7.33,20.75,10.92,31.16c11.06,32.02,22.09,64.04,33.14,96.06c0.2,0.58,0.59,1.11,1.26,2.34
			c4.45-12.97,8.67-25.3,12.89-37.62c5.66-16.52,11.61-32.95,16.88-49.6c4.4-13.89,9.1-27.67,13.78-41.46
			c1.2-3.53,2.88-6.59,7.2-6.75c4.84-0.18,6.45,3.48,7.79,7.04c0.67,1.79,0.54,3.94,0.54,5.92c0.03,48.66,0.03,97.31,0.01,145.97
			c0,2.47,0.1,4.89-1.14,7.28c-1.9,3.64-4.1,6.49-8.74,5.64c-2.95-0.54-6.26-5.71-6.25-9.39c0.05-34.32,0.09-68.65,0.12-102.97
			C1754.35,626.7,1754.16,625.63,1753.94,623.33z"/>
		<path class="st0" d="M1605.15,174.01c0-24.48,0.1-48.95-0.05-73.43c-0.06-9.06,4.49-12.5,12.12-12.3
			c12.15,0.32,24.32-0.2,36.47,0.14c26.18,0.75,44.68,18.67,48.38,43.12c2.26,14.95,0.46,28.88-8.11,41.61
			c-3.65,5.43-8.18,10.04-13.85,13.19c-3.51,1.95-3.16,3.51-1.46,6.48c9.46,16.52,18.71,33.16,28.07,49.73
			c3.43,6.07,2.82,12.29-1.67,15.69c-5.88,4.46-13.14,2.29-17.01-4.93c-9.44-17.6-19.72-34.74-29.26-52.26
			c-3.26-5.98-6.65-7.43-12.6-6.97c-5.3,0.41-10.66,0.3-15.98,0.01c-3.43-0.19-4.13,1.1-4.1,4.26c0.14,16.82,0.11,33.63,0.04,50.45
			c-0.03,7.26-4.48,11.72-11.18,11.51c-6-0.19-9.67-3.91-9.71-10.39c-0.11-20.65-0.07-41.29-0.09-61.94
			C1605.15,183.34,1605.15,178.68,1605.15,174.01z M1626.15,141.34c0,9.16,0.05,18.33-0.03,27.49c-0.02,2.44,0.12,4.14,3.35,4.04
			c8.82-0.27,17.67,0.12,26.46-0.47c15-1.01,26.35-13.05,26.89-27.82c0.65-17.96-9.73-32.04-25.29-34.35
			c-8.96-1.33-17.97-0.3-26.94-0.75c-3.44-0.18-4.61,0.79-4.51,4.39C1626.32,123.01,1626.15,132.18,1626.15,141.34z"/>
		<path class="st0" d="M1932.8,414.05c0-23.65-0.02-47.3,0.02-70.95c0-2.65-0.07-5.42,0.61-7.93c1.06-3.9,3.64-6.83,8.02-6.75
			c15.61,0.31,31.26-1.31,46.82,0.88c21.73,3.06,35.67,17.49,40.5,37.76c3.96,16.59,2.29,32.74-7.97,47.13
			c-3.7,5.18-8.29,9.47-13.9,12.58c-2.28,1.26-2.78,2.46-1.26,5.08c9.22,15.9,18.14,31.97,27.27,47.92
			c1.94,3.39,3.25,6.71,3.13,10.75c-0.15,5.05-2.64,8.07-7.11,9.51c-4.53,1.46-9.39-0.39-11.62-4.31
			c-8.48-14.96-16.85-29.98-25.28-44.96c-2.71-4.81-5.57-9.53-8.2-14.38c-1.01-1.86-2.31-2.32-4.32-2.29
			c-7.16,0.12-14.33,0.21-21.48-0.03c-3.25-0.11-4.18,0.82-4.15,4.12c0.17,16.49,0.13,32.97,0.06,49.46
			c-0.03,8.15-4.73,12.96-11.95,12.62c-4.81-0.22-7.61-2.86-8.61-7.32c-0.54-2.4-0.56-4.96-0.57-7.44
			C1932.78,461.68,1932.8,437.87,1932.8,414.05z M1953.96,380.79c0,9.48,0.06,18.97-0.04,28.45c-0.02,2.35,0.28,3.66,3.16,3.58
			c8.64-0.26,17.32,0.18,25.93-0.45c16.21-1.18,26.98-12.99,27.39-29.32c0.44-17.22-10.29-30.73-26.25-32.98
			c-8.78-1.24-17.61-0.21-26.41-0.66c-3.16-0.16-3.93,0.91-3.87,3.92C1954.08,362.49,1953.96,371.64,1953.96,380.79z"/>
		<path class="st0" d="M1221.18,414.34c0-24.99,0.01-49.98,0-74.97c0-3.96,0.96-7.75,4.53-9.7c3.96-2.16,8.31-2.14,12.17,0.71
			c3.32,2.45,4.33,5.95,4.32,9.95c-0.05,19.16,0.08,38.32-0.11,57.47c-0.04,3.85,0.9,5.08,4.93,5.05c27.66-0.18,55.32-0.18,82.97,0
			c4.04,0.03,4.97-1.21,4.93-5.06c-0.19-17.99-0.09-35.98-0.08-53.97c0-2.16,0-4.34,0.22-6.49c0.54-5.22,3.61-8.49,8.22-8.95
			c5.76-0.57,10.11,1.96,11.61,7.06c0.6,2.02,1,4.12,0.99,6.33c-0.06,48.31-0.04,96.62-0.06,144.93c0,8.72-4.02,13.63-10.94,13.57
			c-5.72-0.06-9.27-3.05-9.74-8.94c-0.42-5.3-0.29-10.65-0.3-15.98c-0.03-15.99-0.1-31.99,0.06-47.98c0.03-3.28-0.88-4.17-4.16-4.15
			c-28.16,0.13-56.31,0.13-84.47,0c-3.26-0.01-4.2,0.83-4.18,4.14c0.15,20.49,0.11,40.98,0.05,61.47
			c-0.02,7.03-4.39,11.28-10.76,11.52c-6.73,0.26-10.15-5.17-10.16-10.55c-0.05-22.66-0.05-45.31-0.06-67.97
			C1221.18,419.34,1221.18,416.84,1221.18,414.34z"/>
		<path class="st0" d="M1792.81,413.78c0-23.32,0-46.63,0.01-69.95c0-1.83,0.01-3.67,0.15-5.49c0.53-6.98,3.74-10.01,10.77-10.02
			c29.15-0.03,58.3-0.01,87.45-0.01c1.17,0,2.34-0.09,3.5,0.02c6.08,0.6,9.64,5.14,9.29,11.74c-0.3,5.6-4.17,9.37-9.96,9.38
			c-24.98,0.05-49.97,0.13-74.95-0.08c-4.17-0.03-5.26,1.04-5.18,5.19c0.26,14.65,0.22,29.31,0.02,43.96
			c-0.05,3.57,1.03,4.41,4.46,4.38c17.32-0.17,34.65-0.16,51.97-0.04c9.78,0.07,12.35,7.42,10.15,15.1
			c-1.29,4.5-5.25,6.4-10.14,6.37c-17.16-0.1-34.31,0.06-51.47-0.12c-3.72-0.04-5.07,0.66-5,4.78c0.28,14.98,0.26,29.98,0.01,44.96
			c-0.07,4.04,0.83,5.31,5.1,5.27c24.48-0.22,48.97-0.05,73.45-0.16c4.52-0.02,8.26,1.09,10.41,5.23c2.06,3.98,1.5,7.91-0.82,11.75
			c-1.72,2.83-4.13,4.22-7.33,4.22c-30.81,0.01-61.63,0-92.44-0.02c-5.08,0-7.91-2.88-8.9-7.57c-0.51-2.41-0.51-4.96-0.51-7.45
			C1792.79,461.41,1792.81,437.6,1792.81,413.78z"/>
		<path class="st0" d="M1126.86,173.86c0-24.48-0.02-48.96,0.01-73.44c0.01-9.14,2.97-12.05,12.08-12.05
			c29.31-0.01,58.63-0.02,87.94,0.01c5.94,0.01,9.89,3.21,10.95,8.64c0.95,4.92-1.67,9.96-6.02,11.85
			c-1.94,0.85-3.92,0.64-5.89,0.64c-24.48,0.02-48.97,0.1-73.45-0.08c-3.74-0.03-4.77,0.92-4.71,4.69
			c0.23,14.82,0.21,29.64,0.01,44.46c-0.05,3.63,1.17,4.38,4.53,4.35c17.32-0.15,34.64-0.12,51.97-0.04
			c5.24,0.02,9.48,3.13,10.61,7.36c1.48,5.55-0.58,10.27-5.46,13.11c-2.04,1.19-4.17,0.94-6.28,0.95
			c-16.99,0.05-33.98,0.13-50.97-0.06c-3.49-0.04-4.45,0.86-4.4,4.38c0.2,15.49,0.19,30.98,0.01,46.46
			c-0.04,3.37,1.03,4.14,4.23,4.13c24.98-0.12,49.97-0.08,74.95-0.06c6.13,0.01,9.1,2.18,10.61,7.58c1.35,4.8-0.64,9.49-4.9,12.45
			c-1.7,1.18-3.43,1.11-5.21,1.11c-30.15,0.02-60.3,0.04-90.44,0c-6.45-0.01-10.06-3.64-10.14-10.51
			c-0.14-11.66-0.04-23.32-0.04-34.97C1126.86,201.18,1126.86,187.52,1126.86,173.86z"/>
		<path class="st0" d="M1266.85,173.87c0-24.48-0.02-48.96,0.01-73.44c0.01-9.14,2.97-12.05,12.07-12.05
			c29.31-0.01,58.63-0.02,87.94,0.01c5.95,0.01,9.9,3.21,10.96,8.64c0.95,4.9-1.69,9.97-6.02,11.86c-1.94,0.85-3.92,0.64-5.89,0.64
			c-24.48,0.02-48.97,0.1-73.45-0.08c-3.74-0.03-4.77,0.91-4.71,4.69c0.23,14.82,0.21,29.64,0.01,44.46
			c-0.05,3.62,1.16,4.39,4.53,4.36c17.32-0.15,34.64-0.12,51.97-0.04c5.24,0.02,9.48,3.13,10.61,7.36
			c1.48,5.55-0.58,10.27-5.46,13.11c-2.04,1.19-4.17,0.94-6.28,0.95c-16.99,0.05-33.98,0.13-50.97-0.06
			c-3.49-0.04-4.45,0.85-4.4,4.38c0.2,15.49,0.19,30.98,0.01,46.46c-0.04,3.36,1.02,4.15,4.23,4.13
			c24.98-0.12,49.97-0.08,74.95-0.06c6.13,0.01,9.1,2.18,10.62,7.57c1.35,4.81-0.63,9.49-4.89,12.45c-1.7,1.18-3.42,1.11-5.21,1.11
			c-30.15,0.02-60.29,0.04-90.44,0c-6.46-0.01-10.06-3.64-10.15-10.51c-0.14-11.32-0.04-22.65-0.04-33.97
			C1266.85,201.85,1266.85,187.86,1266.85,173.87z"/>
		<path class="st0" d="M1406.84,173.93c0-24.48-0.02-48.96,0.01-73.45c0.01-9.18,2.96-12.11,12.02-12.11
			c29.32-0.01,58.63-0.02,87.95,0.01c6.01,0.01,9.91,3.13,11,8.58c0.97,4.87-1.66,9.97-5.96,11.89c-1.94,0.87-3.91,0.67-5.88,0.67
			c-24.48,0.02-48.97,0.09-73.45-0.07c-3.65-0.02-4.83,0.77-4.77,4.63c0.24,14.82,0.21,29.64,0.02,44.46
			c-0.05,3.55,1.03,4.45,4.48,4.41c17.15-0.17,34.31-0.13,51.47-0.05c7.24,0.03,11.2,3.78,11.29,10.3c0.1,7.16-3.6,11.1-10.82,11.13
			c-17.32,0.08-34.65,0.12-51.97-0.06c-3.42-0.03-4.51,0.72-4.46,4.33c0.21,15.32,0.22,30.64,0,45.96c-0.05,3.75,0.93,4.73,4.69,4.7
			c24.82-0.18,49.64-0.1,74.45-0.08c6.16,0.01,9.12,2.15,10.65,7.53c1.37,4.83-0.58,9.48-4.83,12.47c-1.7,1.19-3.42,1.14-5.2,1.14
			c-30.15,0.02-60.3,0.03-90.44,0c-6.46-0.01-10.12-3.66-10.19-10.45c-0.13-13.32-0.04-26.65-0.04-39.97
			C1406.84,197.91,1406.84,185.92,1406.84,173.93z"/>
		<path class="st0" d="M993.04,391.81c0-116.64,0-233.28,0-349.92c0-7.34,1.31-9.55,5.6-9.47c4.61,0.08,6.41,2.8,6.41,9.72
			c0,233.11,0,466.23,0.01,699.34c0,3.67,0.33,7.42-4.03,9.19c-3.97,1.61-7.34-0.21-7.88-4.44c-0.21-1.64-0.09-3.33-0.09-4.99
			C993.04,624.75,993.04,508.28,993.04,391.81z"/>
		<path class="st0" d="M1921.81,262.37c-18.62,0.32-33.19-5.57-45.63-16.6c-6.44-5.71-10.4-13.29-13.13-21.41
			c-1.09-3.26,2.38-8.57,6.12-10c5.89-2.26,11.98-0.16,14.62,5.74c3.83,8.54,10.44,13.81,18.67,17.5
			c16.02,7.17,35.53,4.11,46.89-5.83c9.44-8.26,9.71-24.7,3.31-34.42c-6.29-9.55-15.83-13.5-26.48-15.12
			c-12.45-1.89-24.72-3.81-35.67-10.81c-12.81-8.19-20.01-19.43-21.58-34.63c-1.46-14.14,2.21-26.36,12.46-36.19
			c7.46-7.15,16.85-10.78,26.91-12.63c14.59-2.69,29.01-2.84,42.48,4.49c10.93,5.95,18.78,15.03,24.15,26.16
			c2.83,5.87,0.89,11.93-4.04,14.12c-5.55,2.47-11.31,0.06-14.42-5.63c-5.83-10.65-14.36-17.12-26.84-18.98
			c-8.11-1.21-15.64-0.37-23.23,1.85c-10.76,3.14-16.9,10.79-17.16,21.6c-0.23,9.8,3.95,18.31,13.34,23.24
			c7.25,3.8,15.03,5.67,23.1,6.53c18.21,1.93,35.03,7.28,45.16,23.73c14.6,23.72,8.99,61.89-25.03,73.26
			c-2.96,0.99-5.92,2.08-8.96,2.77C1931.33,262.37,1925.69,262.62,1921.81,262.37z"/>
		<path class="st0" d="M1715.17,246.98c0.79-5.85,4.31-12.27,6.82-19.01c4.18-11.23,8.52-22.39,12.78-33.58
			c4.86-12.8,9.71-25.6,14.56-38.41c4.27-11.28,8.54-22.56,12.77-33.86c3.44-9.17,6.7-18.41,10.32-27.5
			c1.54-3.87,4.52-6.18,9.08-6.29c5.22-0.13,8.57,2.37,10.36,6.91c4.16,10.52,8.08,21.13,12.11,31.71
			c13.69,35.98,27.39,71.96,41.08,107.95c1.34,3.52,2.88,7,3.85,10.62c1.83,6.83-1.43,13.16-7.21,14.65
			c-6.2,1.59-11.27-1.82-13.64-8.94c-2.88-8.65-5.94-17.23-8.87-25.87c-0.75-2.22-2.09-2.9-4.46-2.89
			c-21.49,0.1-42.97,0.14-64.46-0.03c-3.19-0.03-4.34,1.4-5.27,3.94c-3.2,8.77-6.4,17.55-9.79,26.25
			c-2.47,6.36-6.56,8.64-12.72,7.55C1718,259.37,1715.09,254.71,1715.17,246.98z M1753.88,203.16c19.22,0,37.95,0,57.19,0
			c-9.38-25.65-18.66-51.04-28.31-77.46C1772.86,152.24,1763.43,177.54,1753.88,203.16z"/>
		<path class="st0" d="M1513,488.68c-0.03,6.23-3.47,10.84-8.1,11.54c-5.9,0.9-9.84-1.61-11.92-7.38
			c-3.28-9.06-6.64-18.1-10.01-27.13c-0.82-2.2-1.98-3.39-4.9-3.37c-21.15,0.21-42.31,0.18-63.46,0.04
			c-3.17-0.02-4.67,0.94-5.69,3.99c-2.82,8.38-5.93,16.67-9.09,24.94c-1.3,3.39-2.93,6.61-6.69,8.2
			c-6.15,2.59-12.08-0.33-13.69-6.83c-1.16-4.71,0.04-9.14,1.68-13.39c6.89-17.94,14.07-35.77,20.91-53.73
			c5.85-15.36,11.26-30.9,17.1-46.26c5.72-15.04,11.75-29.96,17.61-44.94c1.83-4.67,5.33-6.36,10.14-6.05
			c4.78,0.31,7.45,3.11,9.04,7.31c6.8,17.92,13.57,35.85,20.4,53.76c11.73,30.79,23.5,61.56,35.23,92.34
			C1512.5,484.17,1513.65,486.62,1513,488.68z M1418.11,443.15c19.05,0,37.68,0,56.8,0c-9.4-25.73-18.7-51.18-28.31-77.49
			c-9.67,25.88-18.96,50.78-28.24,75.68C1418.19,441.78,1418.22,442.29,1418.11,443.15z"/>
		<path class="st0" d="M1950.26,654.1c0-25.65-0.17-51.29,0.13-76.93c0.07-5.64,3.08-9.16,8.46-9c11.15,0.33,22.32,0.3,33.47,0.05
			c15.17-0.33,25.75,6.78,31.88,20.11c7.04,15.34,8.29,31.13,0.68,46.83c-1.89,3.89-4.56,7.27-7.71,10.27
			c-1.06,1.01-2.49,1.66,0.27,2.99c11.06,5.36,16.29,15.17,18.35,26.66c2.59,14.44,1.25,28.56-4.79,42.17
			c-5.9,13.29-19.01,23.66-34.39,23.09c-12.47-0.46-24.98-0.07-37.47-0.1c-5.17-0.01-8.87-3.91-8.87-9.19
			C1950.27,705.39,1950.26,679.74,1950.26,654.1z M1966.2,689.45c0,8.65,0.09,17.3-0.05,25.94c-0.04,2.74,0.69,3.79,3.62,3.74
			c9.14-0.17,18.3,0.11,27.44-0.11c11.65-0.27,19.71-6.77,22.76-18c1.95-7.18,2.22-14.45,0.77-21.74c-2.4-12.06-10.93-19-23.2-19.03
			c-8.98-0.02-17.96,0.14-26.94-0.08c-3.39-0.08-4.61,0.73-4.49,4.34C1966.39,672.82,1966.2,681.14,1966.2,689.45z M1966.2,613.93
			c0,7.15,0.09,14.31-0.05,21.46c-0.05,2.62,0.84,3.47,3.44,3.43c8.82-0.13,17.65,0.15,26.46-0.13c7.72-0.24,13.08-4.35,16.07-11.44
			c2.1-5,2.62-10.29,2.18-15.65c-1.32-16.07-7.93-22.17-23.92-22.16c-6.66,0-13.32,0.17-19.97-0.07c-3.23-0.12-4.4,0.74-4.28,4.11
			C1966.37,600.28,1966.2,607.11,1966.2,613.93z"/>
		<path class="st0" d="M1535.99,413.77c0-24.14,0.2-48.28-0.09-72.42c-0.12-10.32,4.62-13.47,13.23-13.15
			c12.47,0.46,24.97,0.11,37.46,0.12c24.82,0.02,44.65,17.04,49.53,41.46c3.11,15.59,2.3,30.56-5.08,44.58
			c-9.51,18.07-25.25,26.3-45.44,26.41c-7.99,0.04-15.99,0.19-23.97-0.08c-3.65-0.12-4.8,0.76-4.73,4.63
			c0.26,14.65,0.14,29.3,0.08,43.95c-0.02,4.93-3.15,9.23-7.46,10.66c-4.2,1.39-9.49-0.22-11.94-3.69
			c-1.95-2.76-1.54-5.98-1.54-9.06c-0.06-21.31-0.03-42.62-0.03-63.93C1535.99,420.09,1535.99,416.93,1535.99,413.77z
			 M1556.99,384.24c0,10.5,0.09,21-0.06,31.49c-0.04,2.79,0.71,3.69,3.58,3.63c9.33-0.18,18.67,0.04,28-0.11
			c5.24-0.09,10.13-1.68,14.56-4.58c12.87-8.45,18.06-26.07,12.59-42.82c-4.57-13.99-15.53-22.14-30.26-22.35
			c-8-0.11-16,0.15-23.99-0.1c-3.43-0.11-4.58,0.73-4.49,4.35C1557.16,363.9,1556.99,374.07,1556.99,384.24z"/>
		<path class="st0" d="M1626.39,654.46c-0.13,22.37-4.13,43.78-16.64,62.81c-13.42,20.42-33.87,29.04-56.85,23.81
			c-8.42-1.92-15.63-6.38-21.95-12.61c-13.72-13.52-20.28-30.19-23.87-48.71c-1.86-9.63-1.5-19.18-1.93-28.79
			c-0.49-11.11,1.03-21.98,4.07-32.56c5.36-18.68,13.94-35.7,31.35-45.84c22.06-12.86,50.2-6.56,65.7,13.8
			c10.96,14.4,16.72,30.82,18.82,48.74C1625.86,641.55,1626.32,647.97,1626.39,654.46z M1611.04,654.47
			c0.04-11.08-1.43-21.91-5.03-32.41c-2.33-6.81-5.49-13.19-9.89-18.93c-16.98-22.12-45.46-21.54-61.48,1.35
			c-9.58,13.69-13.29,29.25-13.81,45.69c-0.59,19.03,2.47,37.27,13.58,53.25c7.33,10.54,16.98,17.73,30.57,18
			c15.53,0.31,26.01-8,33.86-20.24C1607.94,686.99,1610.88,671.05,1611.04,654.47z"/>
		<path class="st0" d="M1136.29,502.33c-21.72,0.28-37.89-7.36-51.76-21.22c-13.29-13.29-20.54-29.27-24.28-47.39
			c-2.39-11.57-3.17-23.23-1.05-34.67c5.54-29.89,19.27-54.45,48.38-67.43c12.58-5.62,26.02-6.22,39.73-4.66
			c14.18,1.62,25.72,8.27,36.47,16.97c6.83,5.52,7.01,14.11,0.3,18.83c-3.49,2.46-8.12,1.94-11.67-0.77
			c-6.48-4.96-12.61-10.5-20.84-12.71c-16.74-4.5-32.31-2.36-46.24,8.22c-14.63,11.11-22.57,26.22-25.36,44.19
			c-3.66,23.52,1.51,44.91,17.7,62.44c15.39,16.67,36.73,22.48,58.42,12.68c5.46-2.46,10.47-5.61,15.16-9.26
			c5.8-4.51,10.77-4.55,14.66,0.15c3.73,4.51,2.73,12.48-1.87,16.47C1169.75,496.57,1153.42,503.22,1136.29,502.33z"/>
		<path class="st0" d="M1101.03,742.28c-17.75,0.34-29.17-8.75-37.79-22.22c-3.56-5.56-6.54-11.44-6.06-18.51
			c0.28-4.07,1.96-7.1,5.73-8.04c3.7-0.92,6.78,1.01,8.71,4.33c0.65,1.12,0.97,2.44,1.44,3.67c6.49,17.17,25.73,25.08,41.48,16.48
			c8.77-4.79,13.41-12.5,13.63-23.03c0.22-10.74-2.39-19.84-10.79-27c-4.86-4.14-10.66-6.22-16.65-6.79
			c-18.14-1.74-34.29-16.74-38.45-35.11c-3.7-16.31-1.8-31.73,8.31-45.45c4.98-6.77,12.07-10.68,20.2-12.68
			c11.65-2.87,23.08-2.84,33.12,4.58c9.92,7.34,15.98,17.59,18.92,29.47c1.61,6.52-2.49,11.58-8.16,11.3
			c-3.9-0.19-5.13-3.22-6.36-5.96c-3.49-7.77-7.97-14.81-16.14-18.06c-15.12-6.01-35.22,1.43-35.33,22.13
			c-0.1,18.14,10.39,27.66,27.15,29.73c25.5,3.14,38.65,21.79,40.11,44.48c0.56,8.64,0.21,17.08-2.07,25.44
			C1136.84,730.09,1119.81,743.53,1101.03,742.28z"/>
		<path class="st0" d="M1881.95,742.34c-17.07-0.49-29.26-8.87-37.76-23.34c-2.62-4.46-4.57-9.15-5.87-14.14
			c-0.43-1.64-0.48-3.07,0.36-4.71c1.74-3.4,3.08-7.05,7.92-6.76c4.85,0.29,6.66,3.92,8.12,7.66c5.36,13.73,15.94,20.63,30.49,20.42
			c9.01-0.13,22.68-9.89,24.06-21.29c1.5-12.43-0.09-23.09-9.64-31.82c-5.12-4.68-11.48-6.53-18-7.4
			c-19-2.53-32.98-16.19-37.62-35.22c-3.64-14.91-1.84-28.61,5.82-41.54c12.25-20.67,49.22-26.62,65.49-1.71
			c3.96,6.07,7.78,12.26,9.21,19.5c0.79,3.97-0.44,7.64-3.45,10.3c-1.99,1.76-4.79,1.46-7.03,0.38c-3.46-1.67-4.56-5.36-5.91-8.54
			c-4.7-11.06-13.74-17.31-25.82-16.83c-13.81,0.55-23.45,9.69-23.67,23.34c-0.31,19.37,9.63,28.01,26.83,30.43
			c25.69,3.61,37.76,19.54,40.39,43.83c1.63,15.04-0.57,29.51-10.14,41.83C1907.25,737.62,1895.92,742.89,1881.95,742.34z"/>
		<path class="st0" d="M1168.71,637.57c0-18.99-0.08-37.97,0.07-56.96c0.03-3.45-0.73-7.17,2.69-10.05
			c4.06-3.43,8.88-2.97,11.4,1.75c1.68,3.14,1.86,6.63,1.86,10.13c-0.01,33.14,0.03,66.28-0.03,99.42
			c-0.02,12.15,2.5,23.53,11.65,32.06c19.02,17.74,42.76,7.67,50.85-12.14c3.04-7.43,3.94-15.29,3.94-23.28
			c0.01-33.47,0.07-66.95,0.09-100.42c0-1.99,0.32-3.79,1.28-5.61c1.44-2.7,3.3-4.27,6.51-4.25c3.59,0.03,5.4,2.43,6.75,5.09
			c1.19,2.34,1.41,5.03,1.4,7.73c-0.05,34.14,0.17,68.28-0.12,102.42c-0.15,17.83-4.63,34.44-17.6,47.61
			c-10.16,10.32-23.2,14.55-37.05,12.83c-18.18-2.25-30.4-13.46-38-30.06c-4.45-9.72-5.71-19.86-5.71-30.33
			C1168.71,668.21,1168.71,652.89,1168.71,637.57z"/>
		<path class="st0" d="M1297.33,654.76c0-25.98,0.01-51.95,0-77.93c0-4.04,4.17-8.52,8.22-8.54c10.66-0.05,21.33-0.36,31.98,0.07
			c12.23,0.49,21.26,6.98,27.34,17.23c9.19,15.49,11.48,32.36,9.36,50.13c-1.23,10.33-3.87,20.01-9.81,28.64
			c-7.3,10.61-17.05,16.68-30.27,16.44c-5.16-0.09-10.34,0.24-15.48-0.1c-4.07-0.27-5.44,0.88-5.35,5.16
			c0.28,13.82,0.09,27.64,0.11,41.47c0.01,2.85-0.23,5.58-1.53,8.21c-1.76,3.57-4.63,5.76-8.34,4.45c-3.48-1.22-6.25-3.85-6.24-8.3
			C1297.35,706.04,1297.32,680.4,1297.33,654.76z M1313.4,624.37c0,9.98,0.15,19.95-0.08,29.92c-0.09,3.71,0.6,5.37,4.8,5.05
			c5.46-0.41,10.97-0.25,16.45-0.07c8.09,0.27,14.01-3.32,18.44-9.8c9.12-13.34,8.72-37.46-0.72-50.63
			c-4.51-6.28-10.47-9.49-18.21-9.43c-5.15,0.04-10.33,0.27-15.46-0.07c-4.02-0.27-5.49,0.78-5.34,5.1
			C1313.63,604.41,1313.4,614.39,1313.4,624.37z"/>
		<path class="st0" d="M1696.45,421.06c0-22.32-0.09-44.63,0.09-66.95c0.03-3.76-1-4.8-4.75-4.73c-12.65,0.24-25.32,0.13-37.97,0.07
			c-6.94-0.03-11.45-3.97-10.69-10.29c0.94-7.78,3.42-10.97,10.92-10.93c35.14,0.17,70.29,0.06,105.43,0.09
			c6.81,0.01,10.57,4.01,10.51,10.97c-0.05,6.38-3.95,10.16-10.64,10.17c-12.33,0.03-24.66,0.19-36.97-0.09
			c-4.07-0.09-4.93,1.24-4.92,5.06c0.12,43.8,0.08,87.6,0.07,131.4c0,3.47-0.04,6.77-2.28,9.96c-3.07,4.36-7.24,5.23-11.69,4.29
			c-3.91-0.82-6.15-4.03-6.66-8.12c-0.25-1.97-0.4-3.97-0.4-5.96C1696.44,464.36,1696.45,442.71,1696.45,421.06z"/>
		<path class="st0" d="M1387.09,652.58c-1.49-17.8,2.96-35.49,11.16-52.1c5.48-11.11,13-20.89,23.8-27.87
			c15.35-9.93,39.17-8.36,52.72,4.03c2.7,2.47,5.3,5.07,7.74,7.8c4.12,4.59,4.72,10.96,1.74,16.06c-2.64,4.5-7.27,5.09-11.04,1.51
			c-4.83-4.6-8.59-10.54-15.38-12.74c-16.41-5.31-28.98-1.02-39.85,13.1c-9.47,12.31-13.77,26.69-15.28,42.17
			c-1.88,19.16,1.18,37.23,10.4,54.06c5.78,10.53,13.73,18.87,26.05,21.95c9.17,2.29,17.16-0.5,24.54-5.44
			c3.48-2.33,6.36-5.58,9.44-8.5c4.23-4.02,10.02-2.82,11.61,2.78c1.65,5.83,1,11.23-3.45,16.1c-12.08,13.2-26.91,18.94-44.55,16.56
			c-7.9-1.07-14.82-5.24-20.69-10.45c-10.57-9.38-17.79-21.03-22.41-34.49c-2.83-8.24-5.08-16.6-6.36-25.11
			C1386.36,665.97,1387.09,659.71,1387.09,652.58z"/>
		<path class="st0" d="M1065.87,174.17c0-23.14,0-46.29,0.01-69.43c0-2,0.02-4,0.15-5.99c0.42-6.39,3.27-9.85,8.42-10.32
			c6.22-0.56,10.63,2.43,12.16,8.42c0.36,1.43,0.4,2.96,0.4,4.45c0.02,48.62,0.03,97.24,0.01,145.86c0,8.03-3.98,12.97-10.42,13.17
			c-6.21,0.19-9.99-2.95-10.47-9.25c-0.38-4.97-0.26-9.98-0.26-14.97C1065.85,215.46,1065.87,194.82,1065.87,174.17z"/>
	</g>
</g>
</svg>
