<?xml version="1.0" encoding="utf-8"?>
<!-- Generator: Adobe Illustrator 25.2.0, SVG Export Plug-In . SVG Version: 6.00 Build 0)  -->
<svg version="1.1" id="Layer_1" xmlns="http://www.w3.org/2000/svg" xmlns:xlink="http://www.w3.org/1999/xlink" x="0px" y="0px"
	 viewBox="0 0 500 500" style="enable-background:new 0 0 500 500;" xml:space="preserve">
<style type="text/css">
	.st0{fill:#FFFFFF;}
	.st1{opacity:0.15;fill:#FFFFFF;}
</style>
<g>
	<g>
		<path class="st0" d="M435,386.6c0.1-0.1,0.3-0.2,0.3-0.3s-0.1-0.2-0.2-0.3c-0.1,0.1-0.2,0.3-0.3,0.4
			C434.8,386.4,434.9,386.5,435,386.6z M425,388.1c-0.1,0.1-0.2,0.2-0.3,0.3c0.1,0.1,0.2,0.2,0.3,0.3c0.1-0.1,0.2-0.3,0.3-0.4
			C425.2,388.2,425.1,388.1,425,388.1z"/>
		<path class="st0" d="M435,386.6c-0.1-0.1-0.2-0.1-0.3-0.2c0.1-0.1,0.2-0.3,0.3-0.4c0.1,0.1,0.2,0.2,0.2,0.3S435.1,386.5,435,386.6
			z"/>
		<path class="st0" d="M425,388.1c0.1,0,0.2,0.1,0.3,0.1c-0.1,0.1-0.2,0.3-0.3,0.4c-0.1-0.1-0.2-0.2-0.3-0.3
			C424.8,388.3,424.9,388.2,425,388.1z"/>
	</g>
</g>
<path class="st1" d="M227,133.8c-81.7,0-148.1,41.6-148.1,92.6c0,51.1,66.4,92.6,148.1,92.6c81.7,0,148.1-41.6,148.1-92.6
	C375,175.4,308.6,133.8,227,133.8z M313,264.5c4.6-10,7.5-21,8.2-32.5h42.5c-1.3,11.7-6.8,22.7-15.5,32.5H313z M160.5,275.6h60.9
	v32.3C196.6,306.2,174.7,293.9,160.5,275.6z M105.8,264.5c-8.7-9.8-14.2-20.8-15.5-32.5h42.5c0.7,11.5,3.6,22.5,8.2,32.5H105.8z
	 M141,188.4c-4.6,10-7.5,21-8.2,32.5H90.3c1.3-11.7,6.8-22.7,15.5-32.5H141z M293.4,177.4h-60.9v-32.3
	C257.4,146.7,279.3,159,293.4,177.4z M300.6,188.4c5.3,9.8,8.6,20.8,9.4,32.5h-77.5v-32.5H300.6z M221.4,188.4v32.5h-77.5
	c0.8-11.7,4.1-22.7,9.4-32.5H221.4z M160.5,177.4c14.2-18.4,36.1-30.7,60.9-32.3v32.3H160.5z M143.9,232h77.5v32.5h-68.1
	C148,254.7,144.7,243.7,143.9,232z M232.5,275.6h60.9c-14.2,18.4-36.1,30.7-60.9,32.3V275.6z M232.5,264.5V232H310
	c-0.8,11.7-4.1,22.7-9.4,32.5H232.5z M321.1,220.9c-0.7-11.5-3.6-22.5-8.2-32.5h35.2c8.7,9.8,14.2,20.8,15.5,32.5H321.1z
	 M336.3,177.4h-29.4c-6.3-9.8-14.3-18.4-23.7-25.3C304.2,157.8,322.5,166.5,336.3,177.4z M147,177.4h-29.4
	c13.8-10.9,32.1-19.6,53.1-25.3C161.3,159,153.3,167.6,147,177.4z M117.6,275.6H147c6.3,9.8,14.3,18.4,23.7,25.3
	C149.7,295.2,131.4,286.4,117.6,275.6z M306.9,275.6h29.4c-13.8,10.9-32.1,19.6-53.1,25.3C292.6,293.9,300.6,285.4,306.9,275.6z"/>
<g>
	<path class="st0" d="M124,299.1c-0.6,1.2-1.1,2.3-1.7,3.5c1.2,0.6,2.3,1.4,3.5,0.6c0.5-0.4,0.9-1.3,0.8-1.9
		C126.5,299.8,125,299.7,124,299.1z"/>
	<path class="st0" d="M297.1,311.9c0.4,1.1,0.7,2.1,1,3.3c1.3-0.4,2.7-0.6,3-2c0.1-0.5-0.2-1.3-0.6-1.6
		C299.3,310.8,298.2,311.4,297.1,311.9z"/>
	<path class="st0" d="M120.9,207.9c1.2-1.1,4.5-2.3,13.3-2.3c8.2,0,11.1,0.7,12.1,1.3c0.9,0.6,2.1,2.2,2.4,6.9l0.1,1h15.1v-1.1
		c0-8.7-1.9-14.3-5.7-16.9c-3.7-2.6-11.5-3.8-23.8-3.8c-9.4,0-15.8,0.8-19.8,2.4c-4.1,1.7-7.1,4.9-9.1,9.7
		c-1.6,3.9-2.3,12.7-2.3,26.9c0,11.4,2,18.8,6,22.6c4,3.8,11.8,5.7,23.9,5.7c13,0,21.3-1.4,25.2-4.2c4-2.9,5.9-9,5.9-18.7
		c0,0-0.2-13.8-0.2-13.8H132v11.1c0,0,14.9,0,16.9,0c0,0.7,0,1.5,0,1.5c0,6.3-1.3,8.7-2.4,9.6c-1.1,0.9-4.3,2-12.5,2
		c-8.5,0-11.7-1.3-12.9-2.3c-1.2-1-2.6-3.8-2.6-11.3c0,0-0.1-8.2-0.1-8.2l0-6.4C118.3,211.8,119.7,208.9,120.9,207.9z"/>
	<path class="st0" d="M332.8,246.8c-0.9,0.7-3.5,1.5-10.2,1.5c-9.3,0-12-0.8-12.8-1.3c-0.7-0.4-1.9-2-1.9-7.3c0,0-0.1-2.4-0.1-2.4
		h-14.6l0.1,3.4c0,7.7,1.9,13,5.7,15.7c3.7,2.6,10.8,3.9,21.7,3.9c12.1,0,19.8-1.3,23.5-3.9c3.8-2.7,5.6-8.4,5.6-17.3
		c0-7.3-1.6-12.1-4.8-14.5c-3.1-2.4-9.7-3.8-20-4.3c-10.8-0.6-13.7-1.3-14.5-1.7c-0.6-0.3-1.7-1.6-1.7-6.3c0-3,0.8-4.9,2.2-5.8
		c1.1-0.7,4-1.4,11.3-1.4c6.4,0,8.4,0.7,9.1,1.2c0.7,0.5,1.7,2,2,6c0-0.1,0.1,1.3,0.1,1.3l0.1,1l1,0H348l0-3.5
		c0-7-1.9-11.8-5.7-14.2c-3.7-2.4-10.6-3.6-21-3.6c-11,0-18.2,1.3-22,3.9v0c-3.8,2.7-5.8,8-5.8,15.8c0,7.7,1.6,12.7,4.8,15.1
		c3.2,2.4,10,3.8,21,4.5l7,0.4c4.6,0.3,6.4,1,7.1,1.6c0.6,0.6,1.4,1.9,1.4,5.4C334.8,244.4,333.7,246.2,332.8,246.8z"/>
	<path class="st0" d="M288.4,315.8c-0.1-0.4-0.8-0.9-1.3-0.9c-1,0-1.9,0.3-2.9,0.5c0.3,1,0.5,1.8,0.8,2.9c1-0.3,2-0.5,2.8-1
		C288.1,317.1,288.5,316.2,288.4,315.8z"/>
	<path class="st0" d="M288.5,319.8c-1,0.1-1.9,0.4-3,0.6c0.3,1.2,0.6,2.2,0.9,3.4c1.1-0.3,2-0.6,2.9-0.9c0.8-0.3,1.1-1,0.9-1.9
		C290,320.1,289.3,319.7,288.5,319.8z"/>
	<path class="st0" d="M311.6,312.4c1.2-0.5,2.2-0.9,3.4-1.3c-1.3-1.5-2.4-2.8-3.7-4.4C311.4,308.8,311.5,310.5,311.6,312.4z"/>
	<path class="st0" d="M398,226.5c0-64.8-75.1-115.6-171-115.6c-42.4,0-82.8,10.2-113.8,28.7l-1.1,0.7c0,0-5.1-7.8-6.9-10.5
		c-1.8,3.6-21.1,41.7-22.9,45.3c4-0.2,46.6-2.6,50.6-2.8c-1.7-2.6-6-9.2-6-9.2l1.3-0.7C155,146.5,190.1,138,227,138
		c79.4,0,143.9,39.7,143.9,88.5c0,31-25.6,59.1-68.4,75.4l0-0.1c-22,8.4-47.8,13.2-75.5,13.2C147.6,315,83,275.3,83,226.5
		c0-18.7,9.5-36,25.6-50.3l-31,1.7l9.5-18.9c-19.7,18.9-31.3,42.1-31.3,67.4c0,64.8,75.1,115.6,171,115.6c38.1,0,72.9-8,101.1-21.8
		l1.2,0.9l-0.6-1.2C372.7,298.2,398,264.2,398,226.5z M143.6,149.8l-6.6-16.5l7.3-2.9l6.6,16.5L143.6,149.8z M177.6,138.7l-2.8-17.6
		l26.3-4.2l0.5,3.2l-18.5,3l0.6,3.8l17-2.7l0.5,3l-17,2.7l0.7,4.3l18.9-3l0.5,3.2L177.6,138.7z M258.3,120.9l-18.7-1.3l-0.3,3.8
		l17.2,1.2l-0.2,3l-17.2-1.2l-0.3,4.3l19.1,1.3l-0.2,3.3l-26.9-1.9l1.2-17.7l26.5,1.8L258.3,120.9z M313.7,135l-17.8-5.9l-1.2,3.6
		l16.4,5.4l-1,2.9l-16.4-5.4l-1.4,4.1l18.2,6l-1,3.1l-25.6-8.4l5.6-16.9l25.3,8.3L313.7,135z M101.5,295.8c-1,1.2-2.3,1.4-3.7,1.1
		c-2.3-0.5-4.1-1.8-5.6-3.7c-0.2-0.2-0.2-0.8-0.1-1.1c0.2-0.6,0.7-1.1,1-1.6c0.7,0.8,1.3,1.6,2.1,2.3c0.5,0.5,1.1,1,1.7,1.2
		c0.5,0.2,1.5,0.2,1.8-0.1c0.3-0.3,0.2-1.3,0-1.8c-0.3-0.8-0.9-1.4-1.3-2.1c-0.4-0.6-0.7-1.2-0.9-1.9c-0.8-2.8,1.6-5.1,4.4-4.4
		c2.3,0.6,4,2.1,5.4,4c-0.7,0.5-1.3,0.9-1.9,1.3c-0.9-0.8-1.6-1.6-2.5-2.3c-0.6-0.5-1.4-0.9-2.2-0.2c-0.7,0.7-0.3,1.4,0.1,2.1
		c0.6,1.1,1.4,2.1,2,3.1C102.6,293.1,102.5,294.5,101.5,295.8z M110.4,304.1c-2.1-0.3-3.9-1.3-5.4-2.9c-1.3-1.5-1.6-3.5-0.7-5.2
		c1.4-2.5,2.9-5,4.5-7.7c0.9,0.5,1.7,1,2.7,1.6c-0.7,1.3-1.5,2.6-2.2,3.9c-0.6,1.1-1.2,2.1-1.8,3.2c-1,1.9-0.6,3.1,1.2,4
		c1.7,0.9,2.8,0.6,3.8-1.1c1.1-1.9,2.1-3.9,3.2-5.9c0.2-0.5,0.5-0.9,0.8-1.4c0.9,0.5,1.7,0.9,2.8,1.5c-1.6,2.9-3,5.8-4.7,8.5
		C113.7,304,112.1,304.3,110.4,304.1z M128.8,304.7c-1.1,1.4-2.7,1.6-4.3,1.2c-1.1-0.3-2.1-0.7-3.2-1.2c-0.7,1.3-1.3,2.7-2.1,4.1
		c-1-0.5-1.9-0.9-2.9-1.4c2-4,4-7.9,6-12c1.9,1,3.9,1.9,5.7,3C130.3,300,130.5,302.6,128.8,304.7z M130.2,304.7
		c1.1-1.6,2-2.8,2.9-4.1c0.9,0.4,1.7,0.8,2.5,1.1c0.1,0.2,0.2,0.3,0.3,0.5c-1,0.9-2,2-3.2,2.7C132.2,305.2,131.2,304.8,130.2,304.7z
		 M136.9,312.6c0.6,3.1,3.6,2.8,5.9,3.3c-0.7,2.4-0.7,2.4-3,1.9c-0.7-0.1-1.3-0.3-1.9-0.6c-3-1.2-4.4-3.1-4.3-5.8
		c0.1-3.3,2.2-6.3,4.9-7.1c2.6-0.8,5.8,0.3,8.1,2.7c-0.5,0.6-1.1,1.1-1.7,1.8c-1.7-1.3-3.4-3.2-5.8-1.6
		C137.5,308.4,136.5,310.5,136.9,312.6z M153.7,322.4c-4.4,0-7.8-2.9-7.8-6.5c0-4.2,3-7.7,6.5-7.6c4.4,0.1,7.6,2.8,7.6,6.5
		C160,319.2,157.3,322.4,153.7,322.4z M176.1,328.3c-1-0.2-1.9-0.4-2.9-0.6c0.7-3.1,1.4-6.2,2.1-9.3c-0.1,0-0.1-0.1-0.2-0.1
		c-0.5,0.8-1,1.6-1.5,2.4c-1.2,1.8-2.3,3.6-3.6,5.4c-0.2,0.3-0.9,0.6-1.2,0.5c-2.4-0.6-2,0-2.2-2.5c-0.2-2.6-0.4-5.2-0.8-7.9
		c-0.8,3-1.5,5.9-2.3,9c-0.9-0.2-1.8-0.5-2.8-0.7c1.2-4.4,2.4-8.5,3.6-12.8c1.2,0.3,2.4,0.6,3.5,1c0.3,0.1,0.5,0.7,0.5,1
		c0.2,2.7,0.4,5.5,0.6,8.2c0,0.4,0.1,0.8,0.2,1.4c1.7-2.6,3.3-5,4.7-7.5c0.7-1.3,1.5-1.7,2.8-1.1c0.7,0.3,1.4,0.3,2.2,0.5
		C177.9,319.6,177,323.9,176.1,328.3z M189.9,322.4c0.9,0.7,1.9,1.3,2.8,2c1.2,1,1.6,2.2,1.2,3.7c-0.4,1.5-1.4,2.3-2.8,2.6
		c-2.3,0.4-4.4,0-6.5-1.1c-0.2-0.1-0.4-0.6-0.4-0.8c0-0.7,0.2-1.3,0.4-2c0.8,0.4,1.5,0.8,2.2,1.1c0.6,0.2,1.2,0.5,1.8,0.6
		c0.9,0.1,1.9,0.3,2.3-0.8c0.4-1-0.5-1.5-1.2-2c-0.8-0.6-1.7-1.1-2.5-1.8c-1.3-1.1-1.7-2.4-1.2-4.1c0.5-1.6,1.7-2.3,3.2-2.4
		c2.2-0.2,4.1,0.4,5.9,1.6c-0.4,0.7-0.8,1.3-1.2,2c-1-0.4-1.9-0.8-2.9-1.1c-0.8-0.2-1.7-0.3-2.1,0.6
		C188.5,321.3,189.2,321.9,189.9,322.4z M206.7,321.8c-1.3-0.1-2.5-0.2-3.8-0.3c-0.4,3.6-0.7,7.1-1.1,10.8c-1-0.1-2-0.2-3.1-0.3
		c0.4-3.7,0.8-7.2,1.2-10.8c-1.3-0.2-2.5-0.4-3.7-0.5c0.1-0.8,0.2-1.5,0.3-2.3c3.5,0.4,6.9,0.7,10.5,1.1
		C206.8,320.2,206.8,320.9,206.7,321.8z M220.2,326.1c0,0.9-0.1,1.8-0.1,2.8c-0.1,2.2-1.2,3.6-3.2,4.3c-1.9,0.6-3.9,0.5-5.8-0.2
		c-1.9-0.7-2.9-2.2-2.8-4.2c0.1-3,0.4-6,0.6-9.1c1,0.1,1.9,0.1,3,0.2c-0.1,1.7-0.2,3.2-0.3,4.8c-0.1,1.3-0.2,2.6-0.2,4
		c0,1.6,0.9,2.4,2.7,2.5c1.7,0.1,2.7-0.7,2.8-2.3c0.2-2.2,0.2-4.4,0.3-6.6c0-0.7,0.1-1.3,0.1-2c1,0,1.9,0,2.8,0
		C220.2,322.2,220.2,324.1,220.2,326.1z M235.4,328c-0.3,2.9-2.4,4.9-5.7,5.4c-0.4,0.1-0.8,0.2-1.3,0.3c-1.6,0-3.2,0-4.8,0
		c0-1.7-0.1-3.4-0.1-5.1c0-2.7,0-5.4,0-8.3c2.7,0.1,5.3-0.4,7.8,0.5C234.4,321.8,235.8,324.3,235.4,328z M238.7,333.3
		c-0.2-4.5-0.4-8.9-0.7-13.3c2.7-0.2,5.3-0.4,8-0.5c0.1,0.8,0.1,1.5,0.2,2.3c-1.7,0.1-3.3,0.3-5.1,0.4c0.1,1,0.2,1.9,0.2,2.8
		c1.6-0.1,3.1-0.2,4.7-0.3c0.1,0.8,0.1,1.5,0.2,2.3c-1.6,0.1-3.1,0.3-4.8,0.4c0,1.1,0.1,2.1,0.1,3.3c1.8-0.1,3.5-0.2,5.3-0.3
		c0.1,0.8,0.1,1.5,0.2,2.4C244.4,332.9,241.6,333.1,238.7,333.3z M259.6,331.3c-0.3,0-0.7-0.3-0.9-0.6c-2-2.4-3.9-4.8-5.8-7.2
		c-0.2-0.3-0.4-0.5-0.9-1.1c0.4,3.4,0.7,6.5,1.1,9.7c-1.1,0.1-1.9,0.2-2.8,0.3c-0.4-4.4-0.9-8.8-1.3-13.2c1.1-0.1,2.2-0.3,3.3-0.3
		c0.3,0,0.8,0.3,1,0.6c1.9,2.3,3.7,4.6,5.6,6.9c0.3,0.4,0.6,0.7,1.1,1.3c-0.5-3.3-0.9-6.4-1.4-9.6c0.9-0.1,1.8-0.3,2.7-0.4
		c0.7,4.4,1.3,8.7,2,13.2C262,331,260.8,331.2,259.6,331.3z M272.5,329.2c-1.1,0.2-2,0.4-3.1,0.6c-0.6-3.6-1.3-7.1-1.9-10.7
		c-1.3,0.2-2.5,0.4-3.8,0.6c-0.1-0.8-0.2-1.5-0.4-2.3c3.4-0.6,6.8-1.3,10.4-1.9c0.2,0.8,0.3,1.5,0.5,2.3c-1.3,0.3-2.4,0.5-3.7,0.8
		C271.1,322.1,271.8,325.6,272.5,329.2z M291.4,324.5c-2.4,1-5,1.6-7.6,2.5c-1.1-4.5-2.1-8.8-3.2-13.2c2.5-0.5,4.9-1,7.3-1.4
		c1.3-0.2,2.5,0.2,3.2,1.6c0.7,1.4,0.6,2.4-0.7,4c1.4,0.1,2.3,0.6,2.8,1.9C294,321.7,293.4,323.6,291.4,324.5z M319.2,315.4
		c-0.3,0.1-0.8-0.2-1-0.5c-1.6-1.8-1.6-1.8-3.8-0.9c-0.1,0-0.2,0.1-0.3,0.1c-2.3,0.9-2.4,0.9-2.3,3.4c0,0.7-0.2,1-0.8,1.2
		c-0.8,0.2-1.5,0.5-2.3,0.8c0,0,0,0,0,0c0,0,0,0,0,0c-0.9,0.3-1.8,0.6-2.7,0.9c-0.4,0.1-1,0-1.4-0.2c-1.2-0.8-2.3-1.6-3.3-2.5
		c-0.8-0.7-1.5-0.7-2.4-0.1c0.5,1.5,0.9,3.1,1.5,4.7c-1,0.3-2,0.6-3.1,0.9c-1.3-4.3-2.5-8.4-3.8-12.8c2.6-0.7,5.1-2.1,7.9-1.7
		c2.5,0.3,3.8,3.6,2.2,5.7c-0.2,0.3-0.5,0.6-0.8,1c1.6,1.1,3.1,2.1,4.7,3.2c0.3,0.2,0.7,0.4,1.3,0.8c0,0,0,0,0,0c0-2.4,0-4.5,0-6.6
		c0-2.2,0.1-4.4,0.1-6.6c0-0.8,0.2-1.2,1-1.5c2.4-0.9,2.4-0.9,4.2,1c2.5,2.6,5,5.3,7.5,7.9c0.2,0.2,0.3,0.3,0.5,0.6
		C321,314.7,320.1,315.2,319.2,315.4z M332.5,309.6c-0.3,0.1-0.8-0.1-1.2-0.3c-2.9-1.8-5.9-3.7-9-5.7c1.4,3,2.7,5.9,4,8.9
		c-0.9,0.4-1.7,0.8-2.7,1.2c-1.8-4.1-3.5-8.1-5.3-12.2c1.1-0.5,2.1-1,3.2-1.4c0.3-0.1,0.7,0.1,1.1,0.3c2.6,1.6,5.1,3.3,7.7,4.9
		c0.4,0.2,0.7,0.4,1.3,0.8c-1.5-3-2.8-5.8-4.3-8.7c0.9-0.4,1.7-0.8,2.5-1.2c2,4,3.9,7.9,5.9,11.9
		C334.7,308.5,333.6,309.1,332.5,309.6z M338.8,304.2c-2.8-1.3-4.7-5.3-4-8.4c0.7-3,4.1-5.5,7.7-5.5c0.1,0.8,0.2,1.5,0.3,2.3
		c-0.8,0.2-1.6,0.3-2.3,0.5c-2.4,0.7-3.3,2.6-2.5,5c0.1,0.2,0.2,0.4,0.3,0.7c1.6,3.5,3.9,4,6.9,1.6c0.5-0.4,1-0.9,1.7-1.5
		c0.4,0.7,0.8,1.4,1.2,2C345.7,303.9,341.5,305.4,338.8,304.2z M361.7,293.1c-0.9,0.6-1.8,1.2-2.8,1.8c-1-1.6-2-3.1-3.1-4.8
		c-1.6,1-3.3,2-4.9,3c1,1.6,1.9,3.2,2.9,4.9c-0.9,0.6-1.8,1.1-2.8,1.7c-2.2-3.8-4.5-7.6-6.7-11.5c0.9-0.6,1.7-1.1,2.7-1.6
		c0.9,1.5,1.8,2.9,2.7,4.4c1.6-1,3.2-2,4.9-3c-0.9-1.5-1.8-2.9-2.8-4.4c0.9-0.6,1.7-1.1,2.6-1.7c1.9,2.9,3.8,5.8,5.7,8.6
		c0.5,0.8,1.1,1.5,1.7,2.3C361.7,293,361.7,293,361.7,293.1z"/>
	<path class="st0" d="M223.4,227.2c1.7-2.6,2.5-7.1,2.5-13.8c0-7.4-1.7-12.6-5.1-15.5c-3.4-2.9-9.2-4.4-17.8-4.4h-34.2v66.2h14.9
		c0,0,0-19.7,0-21.6c2,0,17.3,0,17.3,0c6.2,0,9.1,2.8,9.1,8.9v12.8h15v-15.2c0-7.1-3.2-11.3-9-12.8
		C219.4,230.6,222.1,229.2,223.4,227.2z M208.9,223.8c-1.2,1.2-3.9,1.9-7.9,1.9c0,0-15.2,0-17.2,0v-19.9c2,0,18.1,0,18.1,0
		c4.8,0,6.6,0.9,7.3,1.6c0.7,0.8,1.6,2.8,1.6,8.1C210.7,220.8,209.7,222.9,208.9,223.8z"/>
	<path class="st0" d="M154.5,311.1c-1.9-0.6-3.3-0.1-4.3,1.7c-0.4,0.8-0.7,1.7-0.9,2.6c-0.5,2.5,1.1,4.3,3.6,4.3
		c1.1,0,2-0.4,2.5-1.3c0.6-1.1,1-2.2,1.3-3.4C157.1,313,156.3,311.7,154.5,311.1z"/>
	<path class="st0" d="M271,246.8c-0.9,0.7-3.5,1.5-10.2,1.5c-9.3,0-12-0.8-12.8-1.3c-0.7-0.4-1.9-2-1.9-7.3c0,0-0.1-2.4-0.1-2.4
		h-14.6l0.1,3.4c0,7.7,1.9,13,5.6,15.7c3.7,2.6,10.8,3.9,21.7,3.9c12.1,0,19.8-1.3,23.5-3.9c3.8-2.7,5.6-8.4,5.6-17.3
		c0-7.3-1.6-12.1-4.8-14.5c-3.2-2.4-9.7-3.8-20.1-4.3c-10.8-0.6-13.7-1.3-14.5-1.7c-0.6-0.3-1.7-1.6-1.7-6.3c0-3,0.7-4.9,2.2-5.8
		c1.1-0.7,4-1.4,11.3-1.4c6.4,0,8.4,0.7,9.1,1.2c0.7,0.5,1.7,2,2,6c0-0.1,0.1,1.3,0.1,1.3l0.1,1l1,0h13.6l0-3.5
		c0-7-1.9-11.8-5.7-14.2c-3.7-2.4-10.6-3.6-21-3.6c-11,0-18.2,1.3-22,3.9c-3.8,2.7-5.8,8-5.8,15.8c0,7.7,1.6,12.7,4.9,15.1
		c3.2,2.4,10,3.8,21,4.5l7,0.4c4.6,0.3,6.4,1,7.1,1.6c0.6,0.5,1.4,1.9,1.4,5.4C272.9,244.4,271.9,246.2,271,246.8z"/>
	<path class="st0" d="M226.7,322.7c0,2.8,0,5.6,0,8.5c1.9,0.1,3.8,0.2,4.9-1.6c1.1-1.8,1-3.7-0.1-5.4
		C230.4,322.3,228.5,322.6,226.7,322.7z"/>
</g>
</svg>
